<?xml version="1.0" encoding="utf-8" standalone="no"?>
<!DOCTYPE svg PUBLIC "-//W3C//DTD SVG 1.1//EN"
  "http://www.w3.org/Graphics/SVG/1.1/DTD/svg11.dtd">
<!-- Created with matplotlib (https://matplotlib.org/) -->
<svg height="234.035795pt" version="1.1" viewBox="0 0 786.325 234.035795" width="786.325pt" xmlns="http://www.w3.org/2000/svg" xmlns:xlink="http://www.w3.org/1999/xlink">
 <defs>
  <style type="text/css">
*{stroke-linecap:butt;stroke-linejoin:round;}
  </style>
 </defs>
 <g id="figure_1">
  <g id="patch_1">
   <path d="M 0 234.035795 
L 786.325 234.035795 
L 786.325 0 
L 0 0 
z
" style="fill:none;"/>
  </g>
  <g id="axes_1">
   <g id="patch_2">
    <path d="M 30.4625 198.654545 
L 755.8625 198.654545 
L 755.8625 50.4 
L 30.4625 50.4 
z
" style="fill:#ffffff;"/>
   </g>
   <g id="matplotlib.axis_1">
    <g id="xtick_1">
     <g id="line2d_1">
      <path clip-path="url(#pf63a8dd769)" d="M 78.8225 198.654545 
L 78.8225 50.4 
" style="fill:none;stroke:#b0b0b0;stroke-linecap:square;stroke-width:0.8;"/>
     </g>
     <g id="line2d_2">
      <defs>
       <path d="M 0 0 
L 0 3.5 
" id="mb79d95dc25" style="stroke:#000000;stroke-width:0.8;"/>
      </defs>
      <g>
       <use style="stroke:#000000;stroke-width:0.8;" x="78.8225" xlink:href="#mb79d95dc25" y="198.654545"/>
      </g>
     </g>
     <g id="text_1">
      <!-- 2020-01-25 -->
      <defs>
       <path d="M 42.59375 5.703125 
Q 39 5.796875 34.796875 5.890625 
Q 30.59375 6 24.09375 6 
Q 17.5 6 12.140625 5.953125 
Q 6.796875 5.90625 3.296875 5.703125 
Q 3.59375 8.09375 4.09375 10.296875 
Q 4.59375 12.5 5.890625 14.953125 
Q 7.203125 17.40625 9.453125 20.296875 
Q 11.703125 23.203125 15.5 27.09375 
L 19.203125 30.90625 
Q 23.09375 34.796875 25.390625 37.6875 
Q 27.703125 40.59375 28.890625 42.9375 
Q 30.09375 45.296875 30.390625 47.390625 
Q 30.703125 49.5 30.703125 51.90625 
Q 30.703125 56.59375 27.796875 59.390625 
Q 24.90625 62.203125 20 62.203125 
Q 14.90625 62.203125 11.65625 58.890625 
Q 8.40625 55.59375 7.203125 49.40625 
L 4.09375 50.59375 
Q 5.5 59.796875 10.84375 64.640625 
Q 16.203125 69.5 24.203125 69.5 
Q 27.796875 69.5 31 68.5 
Q 34.203125 67.5 36.59375 65.546875 
Q 39 63.59375 40.453125 60.75 
Q 41.90625 57.90625 41.90625 54.203125 
Q 41.90625 50.296875 40.5 47 
Q 39.09375 43.703125 36.6875 40.75 
Q 34.296875 37.796875 31.140625 35.09375 
Q 28 32.40625 24.59375 29.796875 
L 21.59375 27.40625 
Q 19 25.296875 16.09375 22.296875 
Q 13.203125 19.296875 10.703125 15.296875 
L 32.40625 15.296875 
Q 34.90625 15.296875 36.203125 15.796875 
Q 37.5 16.296875 38.25 17.4375 
Q 39 18.59375 39.546875 20.34375 
Q 40.09375 22.09375 41 24.5 
L 44.09375 24.5 
z
" id="STSongti-SC-Black-50"/>
       <path d="M 23.703125 69.5 
Q 28 69.5 31.953125 66.953125 
Q 35.90625 64.40625 38.84375 60 
Q 41.796875 55.59375 43.546875 49.640625 
Q 45.296875 43.703125 45.296875 36.90625 
Q 45.296875 30.203125 43.59375 24.296875 
Q 41.90625 18.40625 38.953125 13.953125 
Q 36 9.5 32.09375 6.953125 
Q 28.203125 4.40625 23.796875 4.40625 
Q 19.5 4.40625 15.546875 6.90625 
Q 11.59375 9.40625 8.59375 13.75 
Q 5.59375 18.09375 3.84375 24.046875 
Q 2.09375 30 2.09375 36.796875 
Q 2.09375 43.703125 3.84375 49.703125 
Q 5.59375 55.703125 8.546875 60.09375 
Q 11.5 64.5 15.390625 67 
Q 19.296875 69.5 23.703125 69.5 
z
M 23.703125 8.09375 
Q 29.203125 8.09375 31.203125 15.09375 
Q 33.203125 22.09375 33.203125 36.90625 
Q 33.203125 51.703125 31.140625 58.75 
Q 29.09375 65.796875 23.703125 65.796875 
Q 18.296875 65.796875 16.25 58.796875 
Q 14.203125 51.796875 14.203125 36.90625 
Q 14.203125 8.09375 23.703125 8.09375 
z
" id="STSongti-SC-Black-48"/>
       <path d="M 3.796875 27.703125 
L 27.5 27.703125 
L 27.5 23.40625 
L 3.796875 23.40625 
z
" id="STSongti-SC-Black-45"/>
       <path d="M 38.5 5.703125 
Q 35.90625 5.796875 31.953125 5.890625 
Q 28 6 23.796875 6 
Q 19.59375 6 15.640625 5.890625 
Q 11.703125 5.796875 9.09375 5.703125 
L 9.09375 8.59375 
L 15.296875 9.5 
Q 18.796875 10.296875 18.796875 13.40625 
L 18.796875 60 
L 6.90625 52.296875 
L 5.203125 55.40625 
Q 6.90625 56.5 9.5 58.09375 
Q 12.09375 59.703125 15 61.59375 
Q 17.90625 63.5 20.796875 65.5 
Q 23.703125 67.5 26.09375 69.5 
L 29.40625 69.5 
L 29.40625 13.40625 
Q 29.40625 9.90625 32.90625 9.40625 
L 38.5 8.59375 
z
" id="STSongti-SC-Black-49"/>
       <path d="M 38.90625 58.796875 
L 24 58.796875 
Q 20.09375 58.796875 17.09375 58.75 
Q 14.09375 58.703125 13.703125 58.5 
L 12.796875 45 
Q 15 46.09375 17.890625 46.59375 
Q 20.796875 47.09375 23.09375 47.09375 
Q 28.203125 47.09375 32.046875 45.4375 
Q 35.90625 43.796875 38.5 41.046875 
Q 41.09375 38.296875 42.390625 34.6875 
Q 43.703125 31.09375 43.703125 27.203125 
Q 43.703125 22.09375 41.59375 17.890625 
Q 39.5 13.703125 36.09375 10.703125 
Q 32.703125 7.703125 28.390625 6.046875 
Q 24.09375 4.40625 19.59375 4.40625 
Q 17.296875 4.40625 14.59375 4.84375 
Q 11.90625 5.296875 9.546875 6.140625 
Q 7.203125 7 5.640625 8.25 
Q 4.09375 9.5 4.09375 11.203125 
Q 4.09375 12.40625 4.890625 13.34375 
Q 5.703125 14.296875 6.796875 14.84375 
Q 7.90625 15.40625 9.09375 15.40625 
Q 10.296875 15.40625 11.09375 14.703125 
Q 13.5 12.703125 15.046875 11.296875 
Q 16.59375 9.90625 17.796875 9 
Q 19 8.09375 20.09375 7.6875 
Q 21.203125 7.296875 22.703125 7.296875 
Q 25.5 7.296875 27.59375 8.59375 
Q 29.703125 9.90625 31.140625 12.15625 
Q 32.59375 14.40625 33.34375 17.40625 
Q 34.09375 20.40625 34.09375 23.796875 
Q 34.09375 27 33.09375 29.640625 
Q 32.09375 32.296875 30.296875 34.25 
Q 28.5 36.203125 26.046875 37.296875 
Q 23.59375 38.40625 20.59375 38.40625 
Q 17.203125 38.40625 14.953125 37.65625 
Q 12.703125 36.90625 11.296875 35.5 
L 9.59375 35.5 
L 11.5 68.5 
L 24.09375 68.5 
Q 28 68.5 30.5 68.5 
Q 33 68.5 34.453125 68.75 
Q 35.90625 69 36.5 69.546875 
Q 37.09375 70.09375 37.296875 71.203125 
L 39.796875 71.203125 
z
" id="STSongti-SC-Black-53"/>
      </defs>
      <g transform="translate(56.930313 212.854545)scale(0.1 -0.1)">
       <use xlink:href="#STSongti-SC-Black-50"/>
       <use x="46.899994" xlink:href="#STSongti-SC-Black-48"/>
       <use x="93.799988" xlink:href="#STSongti-SC-Black-50"/>
       <use x="140.699982" xlink:href="#STSongti-SC-Black-48"/>
       <use x="187.599976" xlink:href="#STSongti-SC-Black-45"/>
       <use x="218.899963" xlink:href="#STSongti-SC-Black-48"/>
       <use x="265.799957" xlink:href="#STSongti-SC-Black-49"/>
       <use x="312.699951" xlink:href="#STSongti-SC-Black-45"/>
       <use x="343.999939" xlink:href="#STSongti-SC-Black-50"/>
       <use x="390.899933" xlink:href="#STSongti-SC-Black-53"/>
      </g>
     </g>
    </g>
    <g id="xtick_2">
     <g id="line2d_3">
      <path clip-path="url(#pf63a8dd769)" d="M 175.5425 198.654545 
L 175.5425 50.4 
" style="fill:none;stroke:#b0b0b0;stroke-linecap:square;stroke-width:0.8;"/>
     </g>
     <g id="line2d_4">
      <g>
       <use style="stroke:#000000;stroke-width:0.8;" x="175.5425" xlink:href="#mb79d95dc25" y="198.654545"/>
      </g>
     </g>
     <g id="text_2">
      <!-- 2020-01-27 -->
      <defs>
       <path d="M 5.59375 68.5 
L 44.09375 68.5 
L 44.09375 66.796875 
Q 42.40625 63.796875 39.40625 56.1875 
Q 36.40625 48.59375 31.90625 36.09375 
Q 23.203125 11.5 22.296875 6 
L 16.296875 6 
Q 17.5 11.203125 19.09375 16.640625 
Q 20.703125 22.09375 22.84375 28.390625 
Q 25 34.703125 27.796875 42.046875 
Q 30.59375 49.40625 34.203125 58.296875 
L 9.90625 58.296875 
Q 7.296875 58.296875 7.203125 57 
L 6.40625 52.796875 
L 4.203125 52.796875 
z
" id="STSongti-SC-Black-55"/>
      </defs>
      <g transform="translate(153.650313 212.854545)scale(0.1 -0.1)">
       <use xlink:href="#STSongti-SC-Black-50"/>
       <use x="46.899994" xlink:href="#STSongti-SC-Black-48"/>
       <use x="93.799988" xlink:href="#STSongti-SC-Black-50"/>
       <use x="140.699982" xlink:href="#STSongti-SC-Black-48"/>
       <use x="187.599976" xlink:href="#STSongti-SC-Black-45"/>
       <use x="218.899963" xlink:href="#STSongti-SC-Black-48"/>
       <use x="265.799957" xlink:href="#STSongti-SC-Black-49"/>
       <use x="312.699951" xlink:href="#STSongti-SC-Black-45"/>
       <use x="343.999939" xlink:href="#STSongti-SC-Black-50"/>
       <use x="390.899933" xlink:href="#STSongti-SC-Black-55"/>
      </g>
     </g>
    </g>
    <g id="xtick_3">
     <g id="line2d_5">
      <path clip-path="url(#pf63a8dd769)" d="M 272.2625 198.654545 
L 272.2625 50.4 
" style="fill:none;stroke:#b0b0b0;stroke-linecap:square;stroke-width:0.8;"/>
     </g>
     <g id="line2d_6">
      <g>
       <use style="stroke:#000000;stroke-width:0.8;" x="272.2625" xlink:href="#mb79d95dc25" y="198.654545"/>
      </g>
     </g>
     <g id="text_3">
      <!-- 2020-01-29 -->
      <defs>
       <path d="M 25.90625 31.59375 
Q 23.203125 30.296875 20.296875 30.296875 
Q 16.703125 30.296875 13.5 31.390625 
Q 10.296875 32.5 7.890625 34.703125 
Q 5.5 36.90625 4.140625 40.296875 
Q 2.796875 43.703125 2.796875 48.296875 
Q 2.796875 52.90625 4.390625 56.796875 
Q 6 60.703125 8.75 63.546875 
Q 11.5 66.40625 15.140625 67.953125 
Q 18.796875 69.5 22.90625 69.5 
Q 27.296875 69.5 31 67.796875 
Q 34.703125 66.09375 37.34375 62.84375 
Q 40 59.59375 41.5 55 
Q 43 50.40625 43 44.703125 
Q 43 37.09375 40.34375 30.1875 
Q 37.703125 23.296875 33.09375 17.84375 
Q 28.5 12.40625 22.140625 8.75 
Q 15.796875 5.09375 8.5 4.09375 
L 8.09375 6.296875 
Q 14.296875 7.90625 18.546875 11.59375 
Q 22.796875 15.296875 25.4375 20.4375 
Q 28.09375 25.59375 29.25 32.046875 
Q 30.40625 38.5 30.40625 45.59375 
Q 30.40625 49.90625 30.15625 53.84375 
Q 29.90625 57.796875 29.15625 60.796875 
Q 28.40625 63.796875 26.90625 65.546875 
Q 25.40625 67.296875 22.90625 67.296875 
Q 20.59375 67.296875 19.046875 65.6875 
Q 17.5 64.09375 16.546875 61.546875 
Q 15.59375 59 15.1875 55.796875 
Q 14.796875 52.59375 14.796875 49.40625 
Q 14.796875 46.703125 15.34375 43.84375 
Q 15.90625 41 17 38.703125 
Q 18.09375 36.40625 19.6875 34.90625 
Q 21.296875 33.40625 23.40625 33.40625 
Q 24.796875 33.40625 25.59375 33.703125 
z
" id="STSongti-SC-Black-57"/>
      </defs>
      <g transform="translate(250.370313 212.854545)scale(0.1 -0.1)">
       <use xlink:href="#STSongti-SC-Black-50"/>
       <use x="46.899994" xlink:href="#STSongti-SC-Black-48"/>
       <use x="93.799988" xlink:href="#STSongti-SC-Black-50"/>
       <use x="140.699982" xlink:href="#STSongti-SC-Black-48"/>
       <use x="187.599976" xlink:href="#STSongti-SC-Black-45"/>
       <use x="218.899963" xlink:href="#STSongti-SC-Black-48"/>
       <use x="265.799957" xlink:href="#STSongti-SC-Black-49"/>
       <use x="312.699951" xlink:href="#STSongti-SC-Black-45"/>
       <use x="343.999939" xlink:href="#STSongti-SC-Black-50"/>
       <use x="390.899933" xlink:href="#STSongti-SC-Black-57"/>
      </g>
     </g>
    </g>
    <g id="xtick_4">
     <g id="line2d_7">
      <path clip-path="url(#pf63a8dd769)" d="M 368.9825 198.654545 
L 368.9825 50.4 
" style="fill:none;stroke:#b0b0b0;stroke-linecap:square;stroke-width:0.8;"/>
     </g>
     <g id="line2d_8">
      <g>
       <use style="stroke:#000000;stroke-width:0.8;" x="368.9825" xlink:href="#mb79d95dc25" y="198.654545"/>
      </g>
     </g>
     <g id="text_4">
      <!-- 2020-01-31 -->
      <defs>
       <path d="M 9 53.59375 
L 7.40625 55.09375 
Q 8.59375 58.296875 10.09375 60.9375 
Q 11.59375 63.59375 13.6875 65.5 
Q 15.796875 67.40625 18.640625 68.453125 
Q 21.5 69.5 25.296875 69.5 
Q 27.796875 69.5 30.296875 68.890625 
Q 32.796875 68.296875 34.75 67 
Q 36.703125 65.703125 37.890625 63.796875 
Q 39.09375 61.90625 39.09375 59.203125 
Q 39.09375 55.296875 35.640625 51.390625 
Q 32.203125 47.5 26.296875 44.09375 
Q 30.296875 44.40625 33.640625 43.296875 
Q 37 42.203125 39.34375 40 
Q 41.703125 37.796875 43 34.59375 
Q 44.296875 31.40625 44.296875 27.5 
Q 44.296875 22.59375 42.296875 18.34375 
Q 40.296875 14.09375 36.796875 11 
Q 33.296875 7.90625 28.640625 6.15625 
Q 24 4.40625 18.796875 4.40625 
Q 11.90625 4.40625 8.09375 6.296875 
Q 4.296875 8.203125 4.296875 11.203125 
Q 4.296875 12.296875 5.046875 13.34375 
Q 5.796875 14.40625 7.140625 14.84375 
Q 8.5 15.296875 10.203125 14.84375 
Q 11.90625 14.40625 13.90625 12.5 
Q 15.40625 11 16.453125 10 
Q 17.5 9 18.34375 8.453125 
Q 19.203125 7.90625 19.953125 7.65625 
Q 20.703125 7.40625 21.703125 7.40625 
Q 24.703125 7.40625 26.953125 8.90625 
Q 29.203125 10.40625 30.703125 12.90625 
Q 32.203125 15.40625 32.890625 18.5 
Q 33.59375 21.59375 33.59375 24.796875 
Q 33.59375 31.203125 30.546875 34.34375 
Q 27.5 37.5 23.40625 37.5 
Q 20.796875 37.5 18.84375 36.640625 
Q 16.90625 35.796875 14.90625 34.09375 
L 13.203125 36.40625 
Q 14.203125 37.296875 15.296875 38.1875 
Q 16.40625 39.09375 17.59375 40 
Q 23.09375 44.09375 26.1875 47.34375 
Q 29.296875 50.59375 29.296875 53.703125 
Q 29.296875 57.59375 27.046875 59.75 
Q 24.796875 61.90625 20.40625 61.90625 
Q 17.203125 61.90625 14.09375 60.046875 
Q 11 58.203125 9 53.59375 
z
" id="STSongti-SC-Black-51"/>
      </defs>
      <g transform="translate(347.090313 212.854545)scale(0.1 -0.1)">
       <use xlink:href="#STSongti-SC-Black-50"/>
       <use x="46.899994" xlink:href="#STSongti-SC-Black-48"/>
       <use x="93.799988" xlink:href="#STSongti-SC-Black-50"/>
       <use x="140.699982" xlink:href="#STSongti-SC-Black-48"/>
       <use x="187.599976" xlink:href="#STSongti-SC-Black-45"/>
       <use x="218.899963" xlink:href="#STSongti-SC-Black-48"/>
       <use x="265.799957" xlink:href="#STSongti-SC-Black-49"/>
       <use x="312.699951" xlink:href="#STSongti-SC-Black-45"/>
       <use x="343.999939" xlink:href="#STSongti-SC-Black-51"/>
       <use x="390.899933" xlink:href="#STSongti-SC-Black-49"/>
      </g>
     </g>
    </g>
    <g id="xtick_5">
     <g id="line2d_9">
      <path clip-path="url(#pf63a8dd769)" d="M 417.3425 198.654545 
L 417.3425 50.4 
" style="fill:none;stroke:#b0b0b0;stroke-linecap:square;stroke-width:0.8;"/>
     </g>
     <g id="line2d_10">
      <g>
       <use style="stroke:#000000;stroke-width:0.8;" x="417.3425" xlink:href="#mb79d95dc25" y="198.654545"/>
      </g>
     </g>
     <g id="text_5">
      <!-- 2020-02-01 -->
      <g transform="translate(395.450313 212.854545)scale(0.1 -0.1)">
       <use xlink:href="#STSongti-SC-Black-50"/>
       <use x="46.899994" xlink:href="#STSongti-SC-Black-48"/>
       <use x="93.799988" xlink:href="#STSongti-SC-Black-50"/>
       <use x="140.699982" xlink:href="#STSongti-SC-Black-48"/>
       <use x="187.599976" xlink:href="#STSongti-SC-Black-45"/>
       <use x="218.899963" xlink:href="#STSongti-SC-Black-48"/>
       <use x="265.799957" xlink:href="#STSongti-SC-Black-50"/>
       <use x="312.699951" xlink:href="#STSongti-SC-Black-45"/>
       <use x="343.999939" xlink:href="#STSongti-SC-Black-48"/>
       <use x="390.899933" xlink:href="#STSongti-SC-Black-49"/>
      </g>
     </g>
    </g>
    <g id="xtick_6">
     <g id="line2d_11">
      <path clip-path="url(#pf63a8dd769)" d="M 514.0625 198.654545 
L 514.0625 50.4 
" style="fill:none;stroke:#b0b0b0;stroke-linecap:square;stroke-width:0.8;"/>
     </g>
     <g id="line2d_12">
      <g>
       <use style="stroke:#000000;stroke-width:0.8;" x="514.0625" xlink:href="#mb79d95dc25" y="198.654545"/>
      </g>
     </g>
     <g id="text_6">
      <!-- 2020-02-03 -->
      <g transform="translate(492.170313 212.854545)scale(0.1 -0.1)">
       <use xlink:href="#STSongti-SC-Black-50"/>
       <use x="46.899994" xlink:href="#STSongti-SC-Black-48"/>
       <use x="93.799988" xlink:href="#STSongti-SC-Black-50"/>
       <use x="140.699982" xlink:href="#STSongti-SC-Black-48"/>
       <use x="187.599976" xlink:href="#STSongti-SC-Black-45"/>
       <use x="218.899963" xlink:href="#STSongti-SC-Black-48"/>
       <use x="265.799957" xlink:href="#STSongti-SC-Black-50"/>
       <use x="312.699951" xlink:href="#STSongti-SC-Black-45"/>
       <use x="343.999939" xlink:href="#STSongti-SC-Black-48"/>
       <use x="390.899933" xlink:href="#STSongti-SC-Black-51"/>
      </g>
     </g>
    </g>
    <g id="xtick_7">
     <g id="line2d_13">
      <path clip-path="url(#pf63a8dd769)" d="M 610.7825 198.654545 
L 610.7825 50.4 
" style="fill:none;stroke:#b0b0b0;stroke-linecap:square;stroke-width:0.8;"/>
     </g>
     <g id="line2d_14">
      <g>
       <use style="stroke:#000000;stroke-width:0.8;" x="610.7825" xlink:href="#mb79d95dc25" y="198.654545"/>
      </g>
     </g>
     <g id="text_7">
      <!-- 2020-02-05 -->
      <g transform="translate(588.890313 212.854545)scale(0.1 -0.1)">
       <use xlink:href="#STSongti-SC-Black-50"/>
       <use x="46.899994" xlink:href="#STSongti-SC-Black-48"/>
       <use x="93.799988" xlink:href="#STSongti-SC-Black-50"/>
       <use x="140.699982" xlink:href="#STSongti-SC-Black-48"/>
       <use x="187.599976" xlink:href="#STSongti-SC-Black-45"/>
       <use x="218.899963" xlink:href="#STSongti-SC-Black-48"/>
       <use x="265.799957" xlink:href="#STSongti-SC-Black-50"/>
       <use x="312.699951" xlink:href="#STSongti-SC-Black-45"/>
       <use x="343.999939" xlink:href="#STSongti-SC-Black-48"/>
       <use x="390.899933" xlink:href="#STSongti-SC-Black-53"/>
      </g>
     </g>
    </g>
    <g id="xtick_8">
     <g id="line2d_15">
      <path clip-path="url(#pf63a8dd769)" d="M 707.5025 198.654545 
L 707.5025 50.4 
" style="fill:none;stroke:#b0b0b0;stroke-linecap:square;stroke-width:0.8;"/>
     </g>
     <g id="line2d_16">
      <g>
       <use style="stroke:#000000;stroke-width:0.8;" x="707.5025" xlink:href="#mb79d95dc25" y="198.654545"/>
      </g>
     </g>
     <g id="text_8">
      <!-- 2020-02-07 -->
      <g transform="translate(685.610313 212.854545)scale(0.1 -0.1)">
       <use xlink:href="#STSongti-SC-Black-50"/>
       <use x="46.899994" xlink:href="#STSongti-SC-Black-48"/>
       <use x="93.799988" xlink:href="#STSongti-SC-Black-50"/>
       <use x="140.699982" xlink:href="#STSongti-SC-Black-48"/>
       <use x="187.599976" xlink:href="#STSongti-SC-Black-45"/>
       <use x="218.899963" xlink:href="#STSongti-SC-Black-48"/>
       <use x="265.799957" xlink:href="#STSongti-SC-Black-50"/>
       <use x="312.699951" xlink:href="#STSongti-SC-Black-45"/>
       <use x="343.999939" xlink:href="#STSongti-SC-Black-48"/>
       <use x="390.899933" xlink:href="#STSongti-SC-Black-55"/>
      </g>
     </g>
    </g>
    <g id="text_9">
     <!-- updateDate -->
     <defs>
      <path d="M 1.5 44.09375 
L 19.5 44.09375 
L 19.5 20.203125 
Q 19.5 15.40625 21.140625 13.40625 
Q 22.796875 11.40625 25.703125 11.40625 
Q 28.09375 11.40625 29.84375 12.15625 
Q 31.59375 12.90625 33.59375 14.59375 
L 33.59375 37.703125 
Q 33.59375 38.5 33.5 39.09375 
Q 33.40625 39.703125 32.75 40.140625 
Q 32.09375 40.59375 30.59375 40.890625 
Q 29.09375 41.203125 26.40625 41.5 
L 26.40625 44.09375 
L 45.09375 44.09375 
L 45.09375 15.703125 
Q 45.09375 14.203125 45.1875 13.203125 
Q 45.296875 12.203125 45.84375 11.640625 
Q 46.40625 11.09375 47.65625 10.890625 
Q 48.90625 10.703125 51.203125 10.59375 
Q 51.203125 10 51.25 9.34375 
Q 51.296875 8.703125 51.296875 8.09375 
L 33.59375 4.5 
L 33.59375 12.09375 
Q 31.90625 10.296875 30.40625 8.84375 
Q 28.90625 7.40625 27.296875 6.40625 
Q 25.703125 5.40625 23.75 4.90625 
Q 21.796875 4.40625 19.203125 4.40625 
Q 13 4.40625 10.5 8.09375 
Q 8 11.796875 8 17.90625 
L 8 37.796875 
Q 8 38.703125 7.796875 39.25 
Q 7.59375 39.796875 6.890625 40.25 
Q 6.203125 40.703125 4.953125 41 
Q 3.703125 41.296875 1.5 41.703125 
z
" id="STSongti-SC-Black-117"/>
      <path d="M 19.59375 40.59375 
Q 21.203125 41.90625 22.546875 42.90625 
Q 23.90625 43.90625 25.34375 44.59375 
Q 26.796875 45.296875 28.546875 45.640625 
Q 30.296875 46 32.59375 46 
Q 40.40625 46 44.90625 40.953125 
Q 49.40625 35.90625 49.40625 26.796875 
Q 49.40625 21.703125 47.75 17.703125 
Q 46.09375 13.703125 43.390625 10.953125 
Q 40.703125 8.203125 37.140625 6.75 
Q 33.59375 5.296875 29.796875 5.296875 
Q 26.90625 5.296875 24.25 5.890625 
Q 21.59375 6.5 19.59375 8.203125 
L 19.59375 -7 
Q 19.59375 -8.40625 20.4375 -9.09375 
Q 21.296875 -9.796875 23.796875 -10.203125 
L 29.796875 -11.203125 
L 29.796875 -13.90625 
Q 27.796875 -13.703125 25 -13.59375 
Q 22.203125 -13.5 17.796875 -13.5 
L 15.09375 -13.5 
Q 13.5 -13.5 11.546875 -13.546875 
Q 9.59375 -13.59375 7.6875 -13.640625 
Q 5.796875 -13.703125 4.140625 -13.75 
Q 2.5 -13.796875 1.5 -13.90625 
L 1.5 -11.296875 
L 5.703125 -10.5 
Q 7.203125 -10.203125 7.640625 -9.546875 
Q 8.09375 -8.90625 8.09375 -7 
L 8.09375 37.203125 
Q 8.09375 40.90625 6.796875 41 
L 1.90625 41.796875 
L 2.203125 43.203125 
Q 5 43.90625 7.34375 44.703125 
Q 9.703125 45.5 10.796875 46 
Q 11.5 46.296875 12.59375 46.84375 
Q 13.703125 47.40625 14.796875 48.046875 
Q 15.90625 48.703125 16.796875 49.296875 
Q 17.703125 49.90625 18.09375 50.40625 
L 19.59375 50.40625 
z
M 19.59375 36.59375 
L 19.59375 18.09375 
Q 19.59375 14.5 21.5 12.140625 
Q 23.40625 9.796875 27.796875 9.796875 
Q 32.40625 9.796875 34.84375 13.75 
Q 37.296875 17.703125 37.296875 24.59375 
Q 37.296875 27.90625 36.5 30.75 
Q 35.703125 33.59375 34.25 35.6875 
Q 32.796875 37.796875 30.9375 39 
Q 29.09375 40.203125 27 40.203125 
Q 24.59375 40.203125 22.890625 39.203125 
Q 21.203125 38.203125 19.59375 36.59375 
z
" id="STSongti-SC-Black-112"/>
      <path d="M 32.09375 60.5 
Q 32.09375 62.40625 31.890625 63.546875 
Q 31.703125 64.703125 30.890625 65.453125 
Q 30.09375 66.203125 28.546875 66.796875 
Q 27 67.40625 24.296875 68.09375 
L 24.296875 69.703125 
Q 25.90625 69.796875 28.25 70 
Q 30.59375 70.203125 33 70.5 
Q 35.40625 70.796875 37.59375 71.140625 
Q 39.796875 71.5 41.09375 72 
L 43.59375 72 
L 43.59375 13.796875 
Q 43.59375 12 43.75 11 
Q 43.90625 10 44.59375 9.546875 
Q 45.296875 9.09375 46.640625 9 
Q 48 8.90625 50.40625 8.796875 
L 50.40625 6.203125 
Q 48.5 5.796875 45.953125 5.4375 
Q 43.40625 5.09375 40.75 4.796875 
Q 38.09375 4.5 35.796875 4.25 
Q 33.5 4 32.09375 3.90625 
L 32.09375 10.5 
Q 29 8 26.046875 6.203125 
Q 23.09375 4.40625 19 4.40625 
Q 15.59375 4.40625 12.59375 5.296875 
Q 9.59375 6.203125 7.203125 9.09375 
Q 4.796875 12 3.640625 15.59375 
Q 2.5 19.203125 2.5 23.40625 
Q 2.5 29.09375 4.390625 33.34375 
Q 6.296875 37.59375 9.296875 40.390625 
Q 12.296875 43.203125 16 44.546875 
Q 19.703125 45.90625 23.296875 45.90625 
Q 26.5 45.90625 28.59375 45.15625 
Q 30.703125 44.40625 32.09375 43.203125 
z
M 32.09375 13.703125 
L 32.09375 30.5 
Q 32.09375 32.59375 31.796875 34.546875 
Q 31.5 36.5 30.703125 38.046875 
Q 29.90625 39.59375 28.34375 40.5 
Q 26.796875 41.40625 24.296875 41.40625 
Q 22.09375 41.40625 20.390625 40.15625 
Q 18.703125 38.90625 17.5 36.703125 
Q 16.296875 34.5 15.640625 31.59375 
Q 15 28.703125 15 25.296875 
Q 15 19.09375 17.296875 15.09375 
Q 19.59375 11.09375 24.296875 11.09375 
Q 27.40625 11.09375 29 11.796875 
Q 30.59375 12.5 32.09375 13.703125 
z
" id="STSongti-SC-Black-100"/>
      <path d="M 18 4.5 
Q 13.90625 4.5 10.953125 5.953125 
Q 8 7.40625 6.140625 9.90625 
Q 4.296875 12.40625 3.390625 15.796875 
Q 2.5 19.203125 2.5 23.09375 
Q 2.5 28.40625 4.09375 32.5 
Q 5.703125 36.59375 8.390625 39.390625 
Q 11.09375 42.203125 14.6875 43.640625 
Q 18.296875 45.09375 22.296875 45.09375 
Q 25.09375 45.09375 27.1875 44.6875 
Q 29.296875 44.296875 30.703125 43.796875 
Q 32.40625 43.296875 33.5 42.59375 
L 40.09375 46.296875 
L 41 46 
L 41 15.203125 
Q 41 11.203125 44.40625 11.40625 
Q 45.203125 11.40625 45.640625 11.65625 
Q 46.09375 11.90625 46.5 12.09375 
Q 46.90625 12.40625 47.203125 12.703125 
L 47.796875 11.296875 
Q 47 9.40625 45.703125 7.90625 
Q 44.59375 6.59375 42.75 5.546875 
Q 40.90625 4.5 38.203125 4.5 
Q 33.796875 4.5 31.9375 7.140625 
Q 30.09375 9.796875 30.09375 13.59375 
L 30.09375 16 
Q 29.59375 13.796875 28.640625 11.75 
Q 27.703125 9.703125 26.296875 8.09375 
Q 24.90625 6.5 22.84375 5.5 
Q 20.796875 4.5 18 4.5 
z
M 30.09375 27.5 
Q 30.09375 29.59375 29.890625 31.890625 
Q 29.703125 34.203125 29 36.140625 
Q 28.296875 38.09375 26.84375 39.390625 
Q 25.40625 40.703125 22.90625 40.703125 
Q 21.5 40.703125 19.953125 39.953125 
Q 18.40625 39.203125 17.09375 37.5 
Q 15.796875 35.796875 14.9375 32.84375 
Q 14.09375 29.90625 14.09375 25.59375 
Q 14.09375 22.59375 14.546875 19.890625 
Q 15 17.203125 16 15.203125 
Q 17 13.203125 18.453125 12.046875 
Q 19.90625 10.90625 21.90625 10.90625 
Q 23.90625 10.90625 25.40625 12.203125 
Q 26.90625 13.5 27.953125 15.640625 
Q 29 17.796875 29.546875 20.59375 
Q 30.09375 23.40625 30.09375 26.40625 
z
" id="STSongti-SC-Black-97"/>
      <path d="M 17.40625 54.203125 
L 19.59375 54.203125 
Q 19.59375 51.5 19.640625 48.84375 
Q 19.703125 46.203125 19.703125 43.5 
L 32.203125 43.796875 
L 32.203125 39.09375 
L 19.703125 38.703125 
L 19.703125 20.703125 
Q 19.703125 16.296875 20.796875 14.1875 
Q 21.90625 12.09375 25.40625 12.09375 
Q 26.90625 12.09375 28.703125 12.4375 
Q 30.5 12.796875 32.59375 14.59375 
L 33.5 13.203125 
Q 32.796875 11.796875 31.59375 10.25 
Q 30.40625 8.703125 28.65625 7.390625 
Q 26.90625 6.09375 24.703125 5.25 
Q 22.5 4.40625 19.703125 4.40625 
Q 14.09375 4.40625 11.25 7.25 
Q 8.40625 10.09375 8.40625 17 
L 8.40625 38.5 
Q 7 38.5 5.703125 38.453125 
Q 4.40625 38.40625 3 38.40625 
Q 1.59375 38.40625 1.546875 39.703125 
Q 1.5 41 2.90625 41.59375 
Q 5.09375 42.5 6.9375 43.5 
Q 8.796875 44.5 10 45.5 
Q 10.59375 46 11.640625 46.84375 
Q 12.703125 47.703125 13.796875 48.796875 
Q 14.90625 49.90625 15.84375 51.296875 
Q 16.796875 52.703125 17.40625 54.203125 
z
" id="STSongti-SC-Black-116"/>
      <path d="M 39.296875 29.5 
L 14.5 29.5 
Q 14.296875 28.5 14.25 28.296875 
Q 14.203125 28.09375 14.203125 27.09375 
Q 14.203125 23.90625 15.09375 21.25 
Q 16 18.59375 17.640625 16.640625 
Q 19.296875 14.703125 21.640625 13.59375 
Q 24 12.5 26.796875 12.5 
Q 30.296875 12.5 33.25 13.453125 
Q 36.203125 14.40625 39.5 17.59375 
L 39.90625 16.09375 
Q 38.703125 13.796875 37.140625 11.6875 
Q 35.59375 9.59375 33.390625 8 
Q 31.203125 6.40625 28.25 5.40625 
Q 25.296875 4.40625 21.296875 4.40625 
Q 17.09375 4.40625 13.59375 5.84375 
Q 10.09375 7.296875 7.640625 10 
Q 5.203125 12.703125 3.84375 16.5 
Q 2.5 20.296875 2.5 25 
Q 2.5 29.703125 3.953125 33.546875 
Q 5.40625 37.40625 8.046875 40.15625 
Q 10.703125 42.90625 14.5 44.40625 
Q 18.296875 45.90625 23 45.90625 
Q 27.296875 45.90625 30.296875 44.59375 
Q 33.296875 43.296875 35.25 41.046875 
Q 37.203125 38.796875 38.140625 35.796875 
Q 39.09375 32.796875 39.296875 29.5 
z
M 15 33.203125 
L 24.40625 33.203125 
Q 27.09375 33.203125 27.09375 35.796875 
Q 27.09375 38.703125 26.1875 40.75 
Q 25.296875 42.796875 22.59375 42.796875 
Q 17 42.796875 15 33.203125 
z
" id="STSongti-SC-Black-101"/>
      <path d="M 12.203125 59.40625 
Q 12.203125 61.796875 11.59375 62.75 
Q 11 63.703125 9.296875 64.09375 
L 3.5 65.296875 
L 3.5 68.59375 
Q 6.703125 68.5 11.140625 68.640625 
Q 15.59375 68.796875 20.296875 69 
Q 25 69.203125 29.546875 69.34375 
Q 34.09375 69.5 37.59375 69.5 
Q 45.40625 69.5 52.15625 67.546875 
Q 58.90625 65.59375 63.84375 61.6875 
Q 68.796875 57.796875 71.640625 51.9375 
Q 74.5 46.09375 74.5 38.203125 
Q 74.5 31.203125 71.703125 25.203125 
Q 68.90625 19.203125 64.15625 14.84375 
Q 59.40625 10.5 53.09375 8.09375 
Q 46.796875 5.703125 39.703125 5.90625 
L 23.5 6.296875 
L 2.5 6.296875 
L 2.5 9.40625 
L 9.296875 11.09375 
Q 10.90625 11.40625 11.546875 12.40625 
Q 12.203125 13.40625 12.203125 16.203125 
z
M 24.296875 18.59375 
Q 24.296875 17 25.046875 15.453125 
Q 25.796875 13.90625 27.390625 12.65625 
Q 29 11.40625 31.5 10.65625 
Q 34 9.90625 37.5 9.90625 
Q 43.796875 9.90625 48.140625 12.046875 
Q 52.5 14.203125 55.203125 18 
Q 57.90625 21.796875 59.09375 27.046875 
Q 60.296875 32.296875 60.296875 38.59375 
Q 60.296875 51.203125 53.390625 58.25 
Q 46.5 65.296875 34 65.296875 
Q 31.703125 65.296875 30.25 65.25 
Q 28.796875 65.203125 27.890625 65.046875 
Q 27 64.90625 26.5 64.703125 
Q 26 64.5 25.703125 64.203125 
Q 24.296875 63.09375 24.296875 59.40625 
z
" id="STSongti-SC-Black-68"/>
     </defs>
     <g transform="translate(368.866406 225.44517)scale(0.1 -0.1)">
      <use xlink:href="#STSongti-SC-Black-117"/>
      <use x="52.799988" xlink:href="#STSongti-SC-Black-112"/>
      <use x="104.699982" xlink:href="#STSongti-SC-Black-100"/>
      <use x="156.599976" xlink:href="#STSongti-SC-Black-97"/>
      <use x="205.899963" xlink:href="#STSongti-SC-Black-116"/>
      <use x="240.09996" xlink:href="#STSongti-SC-Black-101"/>
      <use x="282.499954" xlink:href="#STSongti-SC-Black-68"/>
      <use x="359.999939" xlink:href="#STSongti-SC-Black-97"/>
      <use x="409.299927" xlink:href="#STSongti-SC-Black-116"/>
      <use x="443.499924" xlink:href="#STSongti-SC-Black-101"/>
     </g>
    </g>
   </g>
   <g id="matplotlib.axis_2">
    <g id="ytick_1">
     <g id="line2d_17">
      <path clip-path="url(#pf63a8dd769)" d="M 30.4625 191.915702 
L 755.8625 191.915702 
" style="fill:none;stroke:#b0b0b0;stroke-linecap:square;stroke-width:0.8;"/>
     </g>
     <g id="line2d_18">
      <defs>
       <path d="M 0 0 
L -3.5 0 
" id="m197e257408" style="stroke:#000000;stroke-width:0.8;"/>
      </defs>
      <g>
       <use style="stroke:#000000;stroke-width:0.8;" x="30.4625" xlink:href="#m197e257408" y="191.915702"/>
      </g>
     </g>
     <g id="text_10">
      <!-- 0.0 -->
      <defs>
       <path d="M 11 4.59375 
Q 8.40625 4.59375 6.59375 6.390625 
Q 4.796875 8.203125 4.796875 10.796875 
Q 4.796875 13.40625 6.59375 15.203125 
Q 8.40625 17 11 17 
Q 13.59375 17 15.390625 15.203125 
Q 17.203125 13.40625 17.203125 10.796875 
Q 17.203125 8.203125 15.390625 6.390625 
Q 13.59375 4.59375 11 4.59375 
z
" id="STSongti-SC-Black-46"/>
      </defs>
      <g transform="translate(11.890625 195.515702)scale(0.1 -0.1)">
       <use xlink:href="#STSongti-SC-Black-48"/>
       <use x="46.899994" xlink:href="#STSongti-SC-Black-46"/>
       <use x="68.799988" xlink:href="#STSongti-SC-Black-48"/>
      </g>
     </g>
     <g id="text_11">
      <!-- 0.0 -->
      <g transform="translate(762.8625 195.515702)scale(0.1 -0.1)">
       <use xlink:href="#STSongti-SC-Black-48"/>
       <use x="46.899994" xlink:href="#STSongti-SC-Black-46"/>
       <use x="68.799988" xlink:href="#STSongti-SC-Black-48"/>
      </g>
     </g>
    </g>
    <g id="ytick_2">
     <g id="line2d_19">
      <path clip-path="url(#pf63a8dd769)" d="M 30.4625 166.645041 
L 755.8625 166.645041 
" style="fill:none;stroke:#b0b0b0;stroke-linecap:square;stroke-width:0.8;"/>
     </g>
     <g id="line2d_20">
      <g>
       <use style="stroke:#000000;stroke-width:0.8;" x="30.4625" xlink:href="#m197e257408" y="166.645041"/>
      </g>
     </g>
     <g id="text_12">
      <!-- 2.5 -->
      <g transform="translate(11.890625 170.245041)scale(0.1 -0.1)">
       <use xlink:href="#STSongti-SC-Black-50"/>
       <use x="46.899994" xlink:href="#STSongti-SC-Black-46"/>
       <use x="68.799988" xlink:href="#STSongti-SC-Black-53"/>
      </g>
     </g>
     <g id="text_13">
      <!-- 2.5 -->
      <g transform="translate(762.8625 170.245041)scale(0.1 -0.1)">
       <use xlink:href="#STSongti-SC-Black-50"/>
       <use x="46.899994" xlink:href="#STSongti-SC-Black-46"/>
       <use x="68.799988" xlink:href="#STSongti-SC-Black-53"/>
      </g>
     </g>
    </g>
    <g id="ytick_3">
     <g id="line2d_21">
      <path clip-path="url(#pf63a8dd769)" d="M 30.4625 141.37438 
L 755.8625 141.37438 
" style="fill:none;stroke:#b0b0b0;stroke-linecap:square;stroke-width:0.8;"/>
     </g>
     <g id="line2d_22">
      <g>
       <use style="stroke:#000000;stroke-width:0.8;" x="30.4625" xlink:href="#m197e257408" y="141.37438"/>
      </g>
     </g>
     <g id="text_14">
      <!-- 5.0 -->
      <g transform="translate(11.890625 144.97438)scale(0.1 -0.1)">
       <use xlink:href="#STSongti-SC-Black-53"/>
       <use x="46.899994" xlink:href="#STSongti-SC-Black-46"/>
       <use x="68.799988" xlink:href="#STSongti-SC-Black-48"/>
      </g>
     </g>
     <g id="text_15">
      <!-- 5.0 -->
      <g transform="translate(762.8625 144.97438)scale(0.1 -0.1)">
       <use xlink:href="#STSongti-SC-Black-53"/>
       <use x="46.899994" xlink:href="#STSongti-SC-Black-46"/>
       <use x="68.799988" xlink:href="#STSongti-SC-Black-48"/>
      </g>
     </g>
    </g>
    <g id="ytick_4">
     <g id="line2d_23">
      <path clip-path="url(#pf63a8dd769)" d="M 30.4625 116.103719 
L 755.8625 116.103719 
" style="fill:none;stroke:#b0b0b0;stroke-linecap:square;stroke-width:0.8;"/>
     </g>
     <g id="line2d_24">
      <g>
       <use style="stroke:#000000;stroke-width:0.8;" x="30.4625" xlink:href="#m197e257408" y="116.103719"/>
      </g>
     </g>
     <g id="text_16">
      <!-- 7.5 -->
      <g transform="translate(11.890625 119.703719)scale(0.1 -0.1)">
       <use xlink:href="#STSongti-SC-Black-55"/>
       <use x="46.899994" xlink:href="#STSongti-SC-Black-46"/>
       <use x="68.799988" xlink:href="#STSongti-SC-Black-53"/>
      </g>
     </g>
     <g id="text_17">
      <!-- 7.5 -->
      <g transform="translate(762.8625 119.703719)scale(0.1 -0.1)">
       <use xlink:href="#STSongti-SC-Black-55"/>
       <use x="46.899994" xlink:href="#STSongti-SC-Black-46"/>
       <use x="68.799988" xlink:href="#STSongti-SC-Black-53"/>
      </g>
     </g>
    </g>
    <g id="ytick_5">
     <g id="line2d_25">
      <path clip-path="url(#pf63a8dd769)" d="M 30.4625 90.833058 
L 755.8625 90.833058 
" style="fill:none;stroke:#b0b0b0;stroke-linecap:square;stroke-width:0.8;"/>
     </g>
     <g id="line2d_26">
      <g>
       <use style="stroke:#000000;stroke-width:0.8;" x="30.4625" xlink:href="#m197e257408" y="90.833058"/>
      </g>
     </g>
     <g id="text_18">
      <!-- 10.0 -->
      <g transform="translate(7.2 94.433058)scale(0.1 -0.1)">
       <use xlink:href="#STSongti-SC-Black-49"/>
       <use x="46.899994" xlink:href="#STSongti-SC-Black-48"/>
       <use x="93.799988" xlink:href="#STSongti-SC-Black-46"/>
       <use x="115.699982" xlink:href="#STSongti-SC-Black-48"/>
      </g>
     </g>
     <g id="text_19">
      <!-- 10.0 -->
      <g transform="translate(762.8625 94.433058)scale(0.1 -0.1)">
       <use xlink:href="#STSongti-SC-Black-49"/>
       <use x="46.899994" xlink:href="#STSongti-SC-Black-48"/>
       <use x="93.799988" xlink:href="#STSongti-SC-Black-46"/>
       <use x="115.699982" xlink:href="#STSongti-SC-Black-48"/>
      </g>
     </g>
    </g>
    <g id="ytick_6">
     <g id="line2d_27">
      <path clip-path="url(#pf63a8dd769)" d="M 30.4625 65.562397 
L 755.8625 65.562397 
" style="fill:none;stroke:#b0b0b0;stroke-linecap:square;stroke-width:0.8;"/>
     </g>
     <g id="line2d_28">
      <g>
       <use style="stroke:#000000;stroke-width:0.8;" x="30.4625" xlink:href="#m197e257408" y="65.562397"/>
      </g>
     </g>
     <g id="text_20">
      <!-- 12.5 -->
      <g transform="translate(7.2 69.162397)scale(0.1 -0.1)">
       <use xlink:href="#STSongti-SC-Black-49"/>
       <use x="46.899994" xlink:href="#STSongti-SC-Black-50"/>
       <use x="93.799988" xlink:href="#STSongti-SC-Black-46"/>
       <use x="115.699982" xlink:href="#STSongti-SC-Black-53"/>
      </g>
     </g>
     <g id="text_21">
      <!-- 12.5 -->
      <g transform="translate(762.8625 69.162397)scale(0.1 -0.1)">
       <use xlink:href="#STSongti-SC-Black-49"/>
       <use x="46.899994" xlink:href="#STSongti-SC-Black-50"/>
       <use x="93.799988" xlink:href="#STSongti-SC-Black-46"/>
       <use x="115.699982" xlink:href="#STSongti-SC-Black-53"/>
      </g>
     </g>
    </g>
   </g>
   <g id="line2d_29">
    <path clip-path="url(#pf63a8dd769)" d="M 30.4625 191.915702 
L 78.8225 191.915702 
L 127.1825 191.915702 
L 175.5425 191.915702 
L 223.9025 191.915702 
L 272.2625 191.915702 
L 320.6225 191.915702 
L 368.9825 191.915702 
L 417.3425 191.915702 
L 465.7025 191.915702 
L 514.0625 191.915702 
L 562.4225 191.915702 
L 610.7825 191.915702 
L 659.1425 191.915702 
L 707.5025 191.915702 
L 755.8625 191.915702 
" style="fill:none;stroke:#1f77b4;stroke-linecap:square;stroke-width:1.5;"/>
    <defs>
     <path d="M 0 -3 
L -0.673542 -0.927051 
L -2.85317 -0.927051 
L -1.089814 0.354102 
L -1.763356 2.427051 
L -0 1.145898 
L 1.763356 2.427051 
L 1.089814 0.354102 
L 2.85317 -0.927051 
L 0.673542 -0.927051 
z
" id="m3add2cc091" style="stroke:#1f77b4;stroke-linejoin:bevel;"/>
    </defs>
    <g clip-path="url(#pf63a8dd769)">
     <use style="fill:#1f77b4;stroke:#1f77b4;stroke-linejoin:bevel;" x="30.4625" xlink:href="#m3add2cc091" y="191.915702"/>
     <use style="fill:#1f77b4;stroke:#1f77b4;stroke-linejoin:bevel;" x="78.8225" xlink:href="#m3add2cc091" y="191.915702"/>
     <use style="fill:#1f77b4;stroke:#1f77b4;stroke-linejoin:bevel;" x="127.1825" xlink:href="#m3add2cc091" y="191.915702"/>
     <use style="fill:#1f77b4;stroke:#1f77b4;stroke-linejoin:bevel;" x="175.5425" xlink:href="#m3add2cc091" y="191.915702"/>
     <use style="fill:#1f77b4;stroke:#1f77b4;stroke-linejoin:bevel;" x="223.9025" xlink:href="#m3add2cc091" y="191.915702"/>
     <use style="fill:#1f77b4;stroke:#1f77b4;stroke-linejoin:bevel;" x="272.2625" xlink:href="#m3add2cc091" y="191.915702"/>
     <use style="fill:#1f77b4;stroke:#1f77b4;stroke-linejoin:bevel;" x="320.6225" xlink:href="#m3add2cc091" y="191.915702"/>
     <use style="fill:#1f77b4;stroke:#1f77b4;stroke-linejoin:bevel;" x="368.9825" xlink:href="#m3add2cc091" y="191.915702"/>
     <use style="fill:#1f77b4;stroke:#1f77b4;stroke-linejoin:bevel;" x="417.3425" xlink:href="#m3add2cc091" y="191.915702"/>
     <use style="fill:#1f77b4;stroke:#1f77b4;stroke-linejoin:bevel;" x="465.7025" xlink:href="#m3add2cc091" y="191.915702"/>
     <use style="fill:#1f77b4;stroke:#1f77b4;stroke-linejoin:bevel;" x="514.0625" xlink:href="#m3add2cc091" y="191.915702"/>
     <use style="fill:#1f77b4;stroke:#1f77b4;stroke-linejoin:bevel;" x="562.4225" xlink:href="#m3add2cc091" y="191.915702"/>
     <use style="fill:#1f77b4;stroke:#1f77b4;stroke-linejoin:bevel;" x="610.7825" xlink:href="#m3add2cc091" y="191.915702"/>
     <use style="fill:#1f77b4;stroke:#1f77b4;stroke-linejoin:bevel;" x="659.1425" xlink:href="#m3add2cc091" y="191.915702"/>
     <use style="fill:#1f77b4;stroke:#1f77b4;stroke-linejoin:bevel;" x="707.5025" xlink:href="#m3add2cc091" y="191.915702"/>
     <use style="fill:#1f77b4;stroke:#1f77b4;stroke-linejoin:bevel;" x="755.8625" xlink:href="#m3add2cc091" y="191.915702"/>
    </g>
   </g>
   <g id="line2d_30">
    <path clip-path="url(#pf63a8dd769)" d="M 30.4625 57.138843 
L 78.8225 90.833058 
L 127.1825 126.701093 
L 175.5425 107.680165 
L 223.9025 120.980513 
L 272.2625 141.37438 
L 320.6225 150.65748 
L 368.9825 161.741779 
L 417.3425 162.185513 
L 465.7025 167.499605 
L 514.0625 150.65748 
L 562.4225 143.425873 
L 610.7825 136.337616 
L 659.1425 121.541709 
L 707.5025 99.480246 
L 755.8625 102.640432 
" style="fill:none;stroke:#ff7f0e;stroke-linecap:square;stroke-width:1.5;"/>
    <defs>
     <path d="M 0 -3 
L -0.673542 -0.927051 
L -2.85317 -0.927051 
L -1.089814 0.354102 
L -1.763356 2.427051 
L -0 1.145898 
L 1.763356 2.427051 
L 1.089814 0.354102 
L 2.85317 -0.927051 
L 0.673542 -0.927051 
z
" id="m86afdac69c" style="stroke:#ff7f0e;stroke-linejoin:bevel;"/>
    </defs>
    <g clip-path="url(#pf63a8dd769)">
     <use style="fill:#ff7f0e;stroke:#ff7f0e;stroke-linejoin:bevel;" x="30.4625" xlink:href="#m86afdac69c" y="57.138843"/>
     <use style="fill:#ff7f0e;stroke:#ff7f0e;stroke-linejoin:bevel;" x="78.8225" xlink:href="#m86afdac69c" y="90.833058"/>
     <use style="fill:#ff7f0e;stroke:#ff7f0e;stroke-linejoin:bevel;" x="127.1825" xlink:href="#m86afdac69c" y="126.701093"/>
     <use style="fill:#ff7f0e;stroke:#ff7f0e;stroke-linejoin:bevel;" x="175.5425" xlink:href="#m86afdac69c" y="107.680165"/>
     <use style="fill:#ff7f0e;stroke:#ff7f0e;stroke-linejoin:bevel;" x="223.9025" xlink:href="#m86afdac69c" y="120.980513"/>
     <use style="fill:#ff7f0e;stroke:#ff7f0e;stroke-linejoin:bevel;" x="272.2625" xlink:href="#m86afdac69c" y="141.37438"/>
     <use style="fill:#ff7f0e;stroke:#ff7f0e;stroke-linejoin:bevel;" x="320.6225" xlink:href="#m86afdac69c" y="150.65748"/>
     <use style="fill:#ff7f0e;stroke:#ff7f0e;stroke-linejoin:bevel;" x="368.9825" xlink:href="#m86afdac69c" y="161.741779"/>
     <use style="fill:#ff7f0e;stroke:#ff7f0e;stroke-linejoin:bevel;" x="417.3425" xlink:href="#m86afdac69c" y="162.185513"/>
     <use style="fill:#ff7f0e;stroke:#ff7f0e;stroke-linejoin:bevel;" x="465.7025" xlink:href="#m86afdac69c" y="167.499605"/>
     <use style="fill:#ff7f0e;stroke:#ff7f0e;stroke-linejoin:bevel;" x="514.0625" xlink:href="#m86afdac69c" y="150.65748"/>
     <use style="fill:#ff7f0e;stroke:#ff7f0e;stroke-linejoin:bevel;" x="562.4225" xlink:href="#m86afdac69c" y="143.425873"/>
     <use style="fill:#ff7f0e;stroke:#ff7f0e;stroke-linejoin:bevel;" x="610.7825" xlink:href="#m86afdac69c" y="136.337616"/>
     <use style="fill:#ff7f0e;stroke:#ff7f0e;stroke-linejoin:bevel;" x="659.1425" xlink:href="#m86afdac69c" y="121.541709"/>
     <use style="fill:#ff7f0e;stroke:#ff7f0e;stroke-linejoin:bevel;" x="707.5025" xlink:href="#m86afdac69c" y="99.480246"/>
     <use style="fill:#ff7f0e;stroke:#ff7f0e;stroke-linejoin:bevel;" x="755.8625" xlink:href="#m86afdac69c" y="102.640432"/>
    </g>
   </g>
   <g id="patch_3">
    <path d="M 30.4625 198.654545 
L 30.4625 50.4 
" style="fill:none;stroke:#000000;stroke-linecap:square;stroke-linejoin:miter;stroke-width:0.8;"/>
   </g>
   <g id="patch_4">
    <path d="M 755.8625 198.654545 
L 755.8625 50.4 
" style="fill:none;stroke:#000000;stroke-linecap:square;stroke-linejoin:miter;stroke-width:0.8;"/>
   </g>
   <g id="patch_5">
    <path d="M 30.4625 198.654545 
L 755.8625 198.654545 
" style="fill:none;stroke:#000000;stroke-linecap:square;stroke-linejoin:miter;stroke-width:0.8;"/>
   </g>
   <g id="patch_6">
    <path d="M 30.4625 50.4 
L 755.8625 50.4 
" style="fill:none;stroke:#000000;stroke-linecap:square;stroke-linejoin:miter;stroke-width:0.8;"/>
   </g>
   <g id="legend_1">
    <g id="patch_7">
     <path d="M 678.632812 88.078125 
L 748.8625 88.078125 
Q 750.8625 88.078125 750.8625 86.078125 
L 750.8625 57.4 
Q 750.8625 55.4 748.8625 55.4 
L 678.632812 55.4 
Q 676.632812 55.4 676.632812 57.4 
L 676.632812 86.078125 
Q 676.632812 88.078125 678.632812 88.078125 
z
" style="fill:#ffffff;opacity:0.8;stroke:#cccccc;stroke-linejoin:miter;"/>
    </g>
    <g id="line2d_31">
     <path d="M 680.632812 64.279687 
L 700.632812 64.279687 
" style="fill:none;stroke:#1f77b4;stroke-linecap:square;stroke-width:1.5;"/>
    </g>
    <g id="line2d_32">
     <g>
      <use style="fill:#1f77b4;stroke:#1f77b4;stroke-linejoin:bevel;" x="690.632812" xlink:href="#m3add2cc091" y="64.279687"/>
     </g>
    </g>
    <g id="text_22">
     <!-- 死亡率% -->
     <defs>
      <path d="M 22.703125 68 
L 12.203125 68 
Q 10.203125 68 8.59375 66.90625 
L 6 71.59375 
Q 8.40625 71.296875 11 71.296875 
L 78.90625 71.296875 
Q 80.203125 73.703125 81.796875 76.203125 
Q 83.40625 78.703125 84.046875 79.453125 
Q 84.703125 80.203125 85.453125 80.203125 
Q 86.203125 80.203125 87.59375 79.09375 
L 92.5 75.09375 
Q 95.90625 72.296875 97.09375 71 
Q 98.296875 69.703125 98.296875 68.84375 
Q 98.296875 68 96.296875 68 
L 69.5 68 
Q 68.796875 66.5 66.90625 65.5 
L 66.90625 30.296875 
Q 74 39.40625 80.5 57.203125 
Q 95.296875 50.5 95.296875 48.09375 
Q 95.296875 47.203125 93.59375 46.796875 
Q 89.90625 45.90625 87.84375 43.65625 
Q 85.796875 41.40625 79.4375 36.34375 
Q 73.09375 31.296875 66.90625 27 
L 66.90625 8.796875 
Q 66.90625 5.09375 67.953125 4.34375 
Q 69 3.59375 74 3.59375 
Q 79 3.59375 81.046875 4.5 
Q 83.09375 5.40625 85 8.90625 
Q 86.90625 12.40625 89 20.796875 
Q 89.203125 21.796875 89.640625 21.796875 
Q 90.09375 21.796875 90 20.703125 
Q 89.59375 16.796875 89.59375 13.84375 
Q 89.59375 10.90625 90.390625 8.84375 
Q 91.203125 6.796875 94.40625 4.796875 
Q 96.59375 3.40625 96.59375 0.796875 
Q 96.59375 -1.796875 93.25 -4.6875 
Q 89.90625 -7.59375 75.09375 -7.59375 
Q 63.796875 -7.59375 59.5 -5.390625 
Q 55.203125 -3.203125 55.203125 4.40625 
L 55.203125 68 
L 29.296875 68 
Q 37.296875 66 38.390625 65.5 
Q 39.5 65 39.5 63.953125 
Q 39.5 62.90625 38.09375 62.40625 
Q 36.703125 61.90625 35.75 60.5 
Q 34.796875 59.09375 33.296875 55.75 
Q 31.796875 52.40625 30.296875 49.59375 
L 37.296875 49.59375 
Q 40.59375 54.703125 41.046875 55.203125 
Q 41.5 55.703125 42.453125 55.703125 
Q 43.40625 55.703125 46.703125 53.59375 
L 52.203125 50.09375 
Q 54.296875 48.703125 54.296875 47.5 
Q 54.296875 46.296875 52.9375 45.890625 
Q 51.59375 45.5 50.796875 43.75 
Q 50 42 49.09375 38.40625 
Q 44.5 19.796875 36.34375 10.296875 
Q 28.203125 0.796875 16.953125 -4.59375 
Q 5.703125 -10 4.5 -10 
Q 4.296875 -10 4.296875 -9.90625 
Q 4.296875 -9.59375 5.796875 -8.59375 
Q 21.59375 2.09375 29.046875 14.84375 
Q 36.5 27.59375 38.796875 46.296875 
L 28.40625 46.296875 
Q 26.5 43.09375 23.40625 39.5 
Q 31.90625 35.59375 31.90625 29.09375 
Q 31.90625 25.296875 29.25 23.796875 
Q 26.59375 22.296875 24.5 22.296875 
Q 22.40625 22.296875 20.90625 24.296875 
Q 19.40625 26.296875 19.796875 27.703125 
Q 20.796875 31.296875 20.796875 33.140625 
Q 20.796875 35 20.296875 36.296875 
Q 17.203125 33.296875 11.59375 29 
Q 6 24.703125 5.25 24.25 
Q 4.5 23.796875 4.09375 23.796875 
Q 3.703125 23.796875 3.703125 24.25 
Q 3.703125 24.703125 4.5 25.59375 
Q 14.09375 36.90625 17.75 45.796875 
Q 21.40625 54.703125 22.703125 68 
z
" id="STSongti-SC-Black-27515"/>
      <path d="M 39.59375 80.40625 
Q 49.40625 80.40625 53.953125 77.09375 
Q 58.5 73.796875 58.5 69.09375 
Q 58.5 65.59375 55.84375 62.890625 
Q 53.203125 60.203125 49.59375 60.203125 
Q 47 60.203125 45.296875 62.25 
Q 43.59375 64.296875 43.796875 66.5 
Q 43.90625 67.40625 43.90625 68.203125 
Q 43.90625 75.296875 36.5 79.09375 
Q 35.5 79.59375 35.5 79.90625 
Q 35.5 80.40625 39.59375 80.40625 
z
M 18.703125 54.40625 
L 9.59375 54.40625 
Q 7.59375 54.40625 6 53.296875 
L 3.40625 58 
Q 5.796875 57.703125 8.40625 57.703125 
L 74.59375 57.703125 
Q 78.296875 64.09375 79.4375 65.84375 
Q 80.59375 67.59375 81.296875 67.59375 
Q 82.703125 67.59375 89.796875 62.25 
Q 96.90625 56.90625 96.90625 55.65625 
Q 96.90625 54.40625 94.90625 54.40625 
L 33.5 54.40625 
Q 33.09375 53.40625 31.5 52.5 
L 31.5 2.703125 
L 71.703125 2.703125 
Q 75.40625 8.703125 76.65625 10.453125 
Q 77.90625 12.203125 78.59375 12.203125 
Q 80 12.203125 86.5 7.046875 
Q 93 1.90625 93 0.65625 
Q 93 -0.59375 90.796875 -0.59375 
L 31.296875 -0.59375 
L 28.59375 -4.40625 
Q 27.796875 -5.5 26.9375 -5.5 
Q 26.09375 -5.5 21.5 -2.84375 
Q 16.90625 -0.203125 16.046875 0.25 
Q 15.203125 0.703125 15.203125 1.453125 
Q 15.203125 2.203125 16.5 3.046875 
Q 17.796875 3.90625 18.25 4.59375 
Q 18.703125 5.296875 18.703125 7.203125 
z
" id="STSongti-SC-Black-20129"/>
      <path d="M 46.5 70.90625 
Q 45.90625 71.5 45.546875 72.296875 
Q 45.203125 73.09375 45.203125 74 
L 45.296875 75.5 
Q 45.296875 79.90625 41.40625 82.09375 
Q 40.09375 82.796875 40.09375 83.203125 
Q 40.09375 83.796875 46.09375 83.796875 
Q 58.59375 83.796875 58.59375 76.90625 
Q 58.59375 73 54.296875 70.90625 
L 76.40625 70.90625 
Q 80.296875 77.5 80.9375 78.203125 
Q 81.59375 78.90625 82.203125 78.90625 
Q 83.703125 78.90625 89.046875 74.40625 
Q 94.40625 69.90625 94.40625 68.75 
Q 94.40625 67.59375 92.40625 67.59375 
L 51.59375 67.59375 
Q 55.203125 66.09375 56.453125 65.1875 
Q 57.703125 64.296875 57.703125 63.34375 
Q 57.703125 62.40625 56.453125 62.40625 
Q 55.203125 62.40625 53.890625 61.84375 
Q 52.59375 61.296875 48.25 58.1875 
Q 43.90625 55.09375 40.703125 52.203125 
L 53.59375 52.09375 
Q 57.203125 56.90625 58.5 59.59375 
Q 60.5 58.40625 64.09375 55.59375 
Q 67.703125 52.796875 68.09375 52.34375 
Q 68.5 51.90625 68.5 51.5 
Q 68.5 50.703125 67.296875 50.640625 
Q 66.09375 50.59375 61.4375 47.140625 
Q 56.796875 43.703125 53.796875 41.703125 
Q 61.296875 40.5 66.34375 37.390625 
Q 71.40625 34.296875 71.40625 29.5 
Q 71.40625 26.703125 69.046875 24.796875 
Q 66.703125 22.90625 65 22.90625 
Q 63.296875 22.90625 62.25 23.65625 
Q 61.203125 24.40625 60.890625 25.296875 
Q 60.59375 26.203125 60.59375 27.75 
Q 60.59375 29.296875 60.09375 31.09375 
L 46.703125 27.09375 
Q 48.296875 27 52.59375 26.34375 
Q 56.90625 25.703125 57.5 25.25 
Q 58.09375 24.796875 58.09375 23.9375 
Q 58.09375 23.09375 56.5 22.203125 
L 56.5 14.703125 
L 79.09375 14.703125 
Q 82.90625 21.09375 83.703125 22.203125 
Q 80.40625 22 79 23.796875 
Q 77.59375 25.59375 76.59375 30.09375 
Q 76 32.5 73 36.25 
Q 70 40 66.5 42.40625 
Q 73.09375 54.59375 74.703125 65 
Q 77.40625 64.203125 81.953125 62.140625 
Q 86.5 60.09375 88 59.1875 
Q 89.5 58.296875 89.5 57.5 
Q 89.5 56.203125 87.09375 56 
Q 85.40625 55.796875 83.953125 54.9375 
Q 82.5 54.09375 77.203125 49.84375 
Q 71.90625 45.59375 68.40625 42.40625 
Q 79.703125 40.40625 84.546875 37.203125 
Q 89.40625 34 89.40625 29.59375 
Q 89.40625 25.203125 86.09375 23.09375 
Q 88.40625 22.09375 93.296875 17.84375 
Q 98.203125 13.59375 98.203125 12.5 
Q 98.203125 11.40625 96.203125 11.40625 
L 56.5 11.40625 
L 56.5 3.296875 
Q 56.5 -1.703125 56.59375 -3.59375 
L 56.703125 -7.09375 
Q 56.703125 -8.796875 53.046875 -9.796875 
Q 49.40625 -10.796875 47.25 -10.796875 
Q 45.09375 -10.796875 44.4375 -10.390625 
Q 43.796875 -10 43.796875 -8.703125 
L 44 -4.796875 
Q 44.09375 -0.90625 44.09375 3.796875 
L 44.09375 11.40625 
L 9.90625 11.40625 
Q 7.90625 11.40625 6.296875 10.296875 
L 3.703125 15 
Q 6.09375 14.703125 8.703125 14.703125 
L 44.09375 14.703125 
L 44.09375 18.59375 
L 44 26.09375 
Q 38.09375 24.296875 36.75 23.59375 
Q 35.40625 22.90625 35.203125 22.90625 
Q 34.796875 22.90625 34.640625 23.546875 
Q 34.5 24.203125 33.203125 28.09375 
Q 31.90625 32 31.90625 32.59375 
Q 31.90625 33.703125 32.84375 33.5 
Q 33.796875 33.296875 34.296875 33.296875 
Q 36.5 33.296875 41.34375 37.9375 
Q 46.203125 42.59375 50.09375 47.5 
Q 40.40625 45 36.90625 43.296875 
Q 36.5 43.09375 36.046875 43.09375 
Q 35.59375 43.09375 35.390625 43.4375 
Q 35.203125 43.796875 33.890625 47.640625 
Q 32.59375 51.5 32.59375 52.09375 
Q 32.59375 52.703125 33.203125 52.796875 
Q 36.703125 53.296875 39.09375 57 
Q 41.5 60.703125 43.796875 67.59375 
L 13.796875 67.59375 
Q 11.796875 67.59375 10.203125 66.5 
L 7.59375 71.203125 
Q 10 70.90625 12.59375 70.90625 
z
M 52.796875 41 
Q 44.40625 35.5 41.09375 33.203125 
L 59.203125 33.40625 
Q 57.09375 37.90625 52.796875 41 
z
M 12.296875 63.59375 
Q 13.796875 63.59375 18.4375 61.890625 
Q 23.09375 60.203125 26.09375 57.296875 
Q 29.09375 54.40625 29.09375 51.203125 
Q 29.09375 48 27.1875 45.890625 
Q 25.296875 43.796875 21.90625 43.796875 
Q 19.90625 43.796875 18.453125 45.5 
Q 17 47.203125 17 49.40625 
L 17.09375 51.5 
Q 17.09375 54.703125 15.84375 57.75 
Q 14.59375 60.796875 12.5 62.40625 
Q 11.703125 63 11.703125 63.296875 
Q 11.703125 63.59375 12.296875 63.59375 
z
M 6.40625 34.5 
Q 12.296875 35.90625 20.1875 38.59375 
Q 28.09375 41.296875 30.890625 42.75 
Q 33.703125 44.203125 34.140625 44.203125 
Q 34.59375 44.203125 34.59375 44 
Q 34.59375 43.5 31.4375 40.640625 
Q 28.296875 37.796875 22.59375 31.796875 
Q 16.90625 25.796875 15.703125 24 
Q 14.5 22.203125 14.140625 22.203125 
Q 13.796875 22.203125 13.5 22.5 
Q 13.203125 22.796875 10.59375 26.75 
Q 8 30.703125 6.40625 34.5 
z
" id="STSongti-SC-Black-29575"/>
      <path d="M 75.296875 71.5 
L 13.40625 -14.59375 
L 8.09375 -10.5 
L 69.796875 75.296875 
z
M 28.703125 74.40625 
Q 31.5 74.40625 34.09375 72.90625 
Q 36.703125 71.40625 38.703125 68.75 
Q 40.703125 66.09375 41.890625 62.4375 
Q 43.09375 58.796875 43.09375 54.40625 
Q 43.09375 50 42 46.296875 
Q 40.90625 42.59375 39 39.84375 
Q 37.09375 37.09375 34.390625 35.546875 
Q 31.703125 34 28.59375 34 
Q 25.40625 34 22.75 35.5 
Q 20.09375 37 18.1875 39.703125 
Q 16.296875 42.40625 15.1875 46.09375 
Q 14.09375 49.796875 14.09375 54.296875 
Q 14.09375 58.796875 15.25 62.546875 
Q 16.40625 66.296875 18.40625 68.890625 
Q 20.40625 71.5 23.046875 72.953125 
Q 25.703125 74.40625 28.703125 74.40625 
z
M 33.59375 47.5 
Q 33.59375 52.90625 33.59375 57.453125 
Q 33.59375 62 33.1875 65.296875 
Q 32.796875 68.59375 31.75 70.4375 
Q 30.703125 72.296875 28.5 72.296875 
Q 26.796875 72.296875 25.796875 71.4375 
Q 24.796875 70.59375 24.296875 68.6875 
Q 23.796875 66.796875 23.640625 63.75 
Q 23.5 60.703125 23.5 56.296875 
Q 23.5 51.296875 23.59375 47.5 
Q 23.703125 43.703125 24.140625 41.140625 
Q 24.59375 38.59375 25.59375 37.25 
Q 26.59375 35.90625 28.5 35.90625 
Q 33.59375 35.90625 33.59375 47.5 
z
M 54.296875 27.40625 
Q 57 27.40625 59.546875 25.90625 
Q 62.09375 24.40625 64 21.75 
Q 65.90625 19.09375 67.046875 15.390625 
Q 68.203125 11.703125 68.203125 7.296875 
Q 68.203125 2.90625 67.140625 -0.796875 
Q 66.09375 -4.5 64.25 -7.203125 
Q 62.40625 -9.90625 59.90625 -11.453125 
Q 57.40625 -13 54.5 -13 
Q 51.59375 -13 49.046875 -11.5 
Q 46.5 -10 44.640625 -7.34375 
Q 42.796875 -4.703125 41.6875 -0.953125 
Q 40.59375 2.796875 40.59375 7.296875 
Q 40.59375 11.796875 41.6875 15.546875 
Q 42.796875 19.296875 44.640625 21.890625 
Q 46.5 24.5 49 25.953125 
Q 51.5 27.40625 54.296875 27.40625 
z
M 59 0.5 
Q 59 5.90625 59 10.453125 
Q 59 15 58.640625 18.296875 
Q 58.296875 21.59375 57.296875 23.4375 
Q 56.296875 25.296875 54.296875 25.296875 
Q 52.796875 25.296875 51.890625 24.546875 
Q 51 23.796875 50.546875 21.9375 
Q 50.09375 20.09375 49.9375 17 
Q 49.796875 13.90625 49.796875 9.296875 
Q 49.796875 4 49.84375 0.203125 
Q 49.90625 -3.59375 50.34375 -6.09375 
Q 50.796875 -8.59375 51.6875 -9.75 
Q 52.59375 -10.90625 54.40625 -10.90625 
Q 59 -10.90625 59 0.5 
z
" id="STSongti-SC-Black-37"/>
     </defs>
     <g transform="translate(708.632812 67.779687)scale(0.1 -0.1)">
      <use xlink:href="#STSongti-SC-Black-27515"/>
      <use x="99.999985" xlink:href="#STSongti-SC-Black-20129"/>
      <use x="199.999969" xlink:href="#STSongti-SC-Black-29575"/>
      <use x="299.999954" xlink:href="#STSongti-SC-Black-37"/>
     </g>
    </g>
    <g id="line2d_33">
     <path d="M 680.632812 79.11875 
L 700.632812 79.11875 
" style="fill:none;stroke:#ff7f0e;stroke-linecap:square;stroke-width:1.5;"/>
    </g>
    <g id="line2d_34">
     <g>
      <use style="fill:#ff7f0e;stroke:#ff7f0e;stroke-linejoin:bevel;" x="690.632812" xlink:href="#m86afdac69c" y="79.11875"/>
     </g>
    </g>
    <g id="text_23">
     <!-- 治愈率% -->
     <defs>
      <path d="M 80.703125 46.09375 
Q 61.5 42.09375 54.59375 40.390625 
Q 47.703125 38.703125 41.703125 36.703125 
Q 41.203125 36.5 40.75 36.5 
Q 40.296875 36.5 39.796875 37.25 
Q 39.296875 38 37.6875 43.046875 
Q 36.09375 48.09375 36.09375 49.25 
Q 36.09375 50.40625 37.5 50.40625 
Q 41.09375 50.5 43.140625 52.390625 
Q 45.203125 54.296875 48.890625 59.4375 
Q 52.59375 64.59375 54.6875 69.75 
Q 56.796875 74.90625 58.796875 82.90625 
Q 66.09375 80.59375 71 78.6875 
Q 75.90625 76.796875 76.59375 76.1875 
Q 77.296875 75.59375 77.296875 75.09375 
Q 77.296875 74.203125 75 73.703125 
Q 73.90625 73.5 72.40625 72.546875 
Q 70.90625 71.59375 69.90625 70.40625 
Q 60.5 60.203125 47.203125 48.90625 
L 79.703125 49.5 
Q 77 56.40625 69.296875 63.40625 
Q 68.203125 64.40625 68.203125 64.703125 
Q 68.203125 65 68.59375 65 
Q 69.90625 65 78.75 61.203125 
Q 87.59375 57.40625 91.4375 52.75 
Q 95.296875 48.09375 95.296875 43.84375 
Q 95.296875 39.59375 93.09375 37.140625 
Q 90.90625 34.703125 87.40625 34.703125 
Q 81.203125 34.703125 81.203125 41.59375 
Q 81.203125 44.203125 80.703125 46.09375 
z
M 33.90625 64.59375 
Q 33.90625 61 31.40625 58.890625 
Q 28.90625 56.796875 26.40625 56.796875 
Q 21.296875 56.796875 20.703125 63.296875 
Q 20 71.703125 14.203125 75 
Q 13.203125 75.59375 13.203125 75.9375 
Q 13.203125 76.296875 14.296875 76.296875 
Q 23.296875 76.296875 28.59375 73.09375 
Q 33.90625 69.90625 33.90625 64.59375 
z
M 41.296875 69.40625 
L 29.796875 32.296875 
Q 26.40625 21.5 26.40625 15.09375 
Q 26.40625 8.703125 27.546875 4.546875 
Q 28.703125 0.40625 28.703125 -1.59375 
Q 28.703125 -5.40625 26.453125 -7.703125 
Q 24.203125 -10 20.296875 -10 
Q 13.09375 -10 13.09375 -3.5 
Q 13.09375 -1.5 14.4375 3.25 
Q 15.796875 8 15.796875 11.953125 
Q 15.796875 15.90625 13.84375 18.046875 
Q 11.90625 20.203125 7.40625 21.296875 
Q 6.40625 21.5 6.40625 22.046875 
Q 6.40625 22.59375 7.84375 22.5 
Q 9.296875 22.40625 10.59375 22.40625 
Q 15.796875 22.40625 18.640625 25.296875 
Q 21.5 28.203125 25.703125 37.5 
L 40.203125 69.796875 
Q 40.703125 70.796875 41.09375 70.796875 
Q 41.5 70.796875 41.5 70.34375 
Q 41.5 69.90625 41.296875 69.40625 
z
M 23.5 43.796875 
Q 23.5 39.90625 21.25 37.953125 
Q 19 36 16.84375 36 
Q 14.703125 36 13.296875 36.953125 
Q 11.90625 37.90625 11.296875 39.09375 
Q 10.703125 40.296875 10.703125 42.5 
Q 10.703125 46.5 9.390625 49.09375 
Q 8.09375 51.703125 5 53.5 
Q 3.90625 54.203125 3.90625 54.546875 
Q 3.90625 54.90625 5.203125 54.90625 
Q 13 54.90625 18.25 52.09375 
Q 23.5 49.296875 23.5 43.796875 
z
M 54.40625 27.40625 
L 72.09375 27.40625 
Q 73.59375 30.203125 74.84375 32 
Q 76.09375 33.796875 76.6875 33.796875 
Q 77.296875 33.796875 79.84375 32.4375 
Q 82.40625 31.09375 85.59375 29 
Q 88.796875 26.90625 89.546875 26.15625 
Q 90.296875 25.40625 90.296875 24.703125 
Q 90.296875 23.203125 87 21.796875 
L 87 -1.796875 
Q 87 -3.5 87.09375 -4.796875 
L 87.296875 -7 
Q 87.296875 -7.59375 87 -7.890625 
Q 86.703125 -8.203125 84.890625 -8.890625 
Q 83.09375 -9.59375 80 -9.9375 
Q 76.90625 -10.296875 75.203125 -10.296875 
Q 74.09375 -10.296875 74.09375 -8.796875 
L 74.09375 -1.09375 
L 52.796875 -1.09375 
L 52.796875 -7.203125 
Q 52.796875 -8 52 -8.546875 
Q 51.203125 -9.09375 47.546875 -9.796875 
Q 43.90625 -10.5 40.296875 -10.5 
Q 39.796875 -10.5 39.796875 -9.5 
L 39.90625 -6.296875 
Q 40 -4.796875 40 -2.09375 
L 40 23.90625 
Q 40 26.90625 39.796875 32.40625 
Q 50.5 29.203125 54.40625 27.40625 
z
M 74.09375 2.203125 
L 74.09375 24.09375 
L 54.40625 24.09375 
Q 53.796875 23.5 52.796875 23.203125 
L 52.796875 2.203125 
z
" id="STSongti-SC-Black-27835"/>
      <path d="M 17.296875 49.5 
Q 4.796875 44.09375 3.703125 44.09375 
Q 3.296875 44.09375 3.296875 44.390625 
Q 3.296875 44.703125 4.5 45.5 
Q 18.40625 54.796875 28.34375 64.640625 
Q 38.296875 74.5 42.40625 83 
Q 48.90625 81.5 52.84375 80.34375 
Q 56.796875 79.203125 57.5 78.75 
Q 58.203125 78.296875 58.203125 77.546875 
Q 58.203125 76.796875 54.5 75.90625 
Q 61.796875 70.09375 73.1875 66.34375 
Q 84.59375 62.59375 97.5 61.5 
Q 99.703125 61.296875 99.703125 60.796875 
Q 99.703125 60.296875 97.890625 59.4375 
Q 96.09375 58.59375 94.296875 56.046875 
Q 92.5 53.5 91.90625 50.796875 
Q 91.5 48.796875 90.40625 48.796875 
Q 89.09375 48.796875 82.796875 51.296875 
L 82.796875 27.09375 
Q 82.796875 21.09375 80.75 19.5 
Q 78.703125 17.90625 74.296875 16.90625 
Q 86.703125 13.5 90.84375 9.203125 
Q 95 4.90625 95 0.5 
Q 95 -2.296875 93.046875 -4.1875 
Q 91.09375 -6.09375 88.09375 -6.09375 
Q 82.90625 -6.09375 82.5 0.203125 
Q 81.703125 10.09375 73.40625 16.703125 
Q 72.40625 16.40625 71.59375 16.40625 
Q 69.40625 16.40625 69.15625 19.09375 
Q 68.90625 21.796875 67.796875 23.1875 
Q 66.703125 24.59375 63.203125 25.59375 
Q 61.796875 26 61.796875 26.296875 
Q 61.796875 26.59375 63.296875 26.703125 
Q 69.203125 27 70.546875 27.640625 
Q 71.90625 28.296875 71.90625 30.59375 
L 71.90625 56.296875 
Q 68.203125 58.296875 64 61.5 
Q 64.5 60.796875 64.5 60.09375 
Q 64.5 58.59375 63 58.59375 
L 33.703125 58.59375 
Q 30.703125 56.59375 26.203125 54 
Q 28.09375 53.5 29.296875 53 
L 39.203125 53 
Q 40.40625 55.40625 41.09375 56.34375 
Q 41.796875 57.296875 42.40625 57.296875 
Q 43.59375 57.296875 48.75 54.390625 
Q 53.90625 51.5 53.90625 50.203125 
Q 53.90625 49.296875 51.203125 48.09375 
L 51.203125 27.5 
Q 51.203125 23.5 50.09375 21.5 
Q 54.90625 20.296875 57.59375 17.890625 
Q 60.296875 15.5 60.296875 12.703125 
Q 60.296875 9.90625 58.1875 7.796875 
Q 56.09375 5.703125 53.546875 5.703125 
Q 51 5.703125 50 6.390625 
Q 49 7.09375 48.796875 8.140625 
Q 48.59375 9.203125 48.59375 13.09375 
Q 48.59375 17 47 19 
Q 43.90625 17.796875 40.5 17.796875 
Q 38.09375 17.796875 38.09375 20.1875 
Q 38.09375 22.59375 36.84375 23.890625 
Q 35.59375 25.203125 33.296875 25.953125 
Q 31 26.703125 31 27 
Q 31 27.296875 34.640625 27.296875 
Q 38.296875 27.296875 39.59375 27.890625 
Q 40.90625 28.5 40.90625 30.09375 
L 40.90625 33.5 
L 28.703125 33.5 
L 28.703125 22.296875 
Q 28.703125 17.59375 20.703125 17.59375 
Q 18.296875 17.59375 17.59375 17.9375 
Q 16.90625 18.296875 16.90625 19.1875 
Q 16.90625 20.09375 17.09375 23.09375 
Q 17.296875 26.09375 17.296875 31.5 
z
M 52.796875 74.40625 
Q 45.296875 66.90625 38.40625 61.90625 
L 51 61.90625 
Q 52.796875 65.296875 53.640625 66.640625 
Q 54.5 68 54.796875 68 
Q 55.59375 68 60.90625 64.09375 
Q 56.09375 68.5 52.796875 74.40625 
z
M 28.703125 44.90625 
L 40.90625 44.90625 
L 40.90625 49.703125 
L 29.59375 49.703125 
Q 29.40625 49.09375 28.703125 48.796875 
z
M 40.90625 41.59375 
L 28.703125 41.59375 
L 28.703125 36.796875 
L 40.90625 36.796875 
z
M 56.203125 53.5 
Q 61.09375 53.5 64.390625 52.953125 
Q 67.703125 52.40625 67.703125 51.5 
Q 67.703125 50.59375 65.90625 49.796875 
L 65.90625 36 
L 66.09375 31.203125 
Q 66.09375 30.203125 65.59375 29.703125 
Q 65.09375 29.203125 62.890625 28.546875 
Q 60.703125 27.90625 58.5 27.90625 
Q 56.296875 27.90625 56.296875 30 
L 56.40625 35.796875 
L 56.40625 45.59375 
Q 56.40625 50 56.203125 53.5 
z
M 38.296875 11.796875 
L 38.296875 5.09375 
Q 38.296875 2.09375 40.59375 1.09375 
Q 42.90625 0.09375 50.40625 0.09375 
Q 55 0.09375 59 0.640625 
Q 63 1.203125 64.546875 5 
Q 66.09375 8.796875 67.09375 14.59375 
Q 67.296875 16 67.84375 16 
Q 68.40625 16 68.40625 14.40625 
L 68.40625 12.703125 
Q 68.40625 8.40625 69.5 5.953125 
Q 70.59375 3.5 73.1875 1.953125 
Q 75.796875 0.40625 75.796875 -1.90625 
Q 75.796875 -5.203125 71.046875 -7.59375 
Q 66.296875 -10 50.59375 -10 
Q 39.296875 -10 35.1875 -9.09375 
Q 31.09375 -8.203125 29.546875 -5.59375 
Q 28 -3 28 2.203125 
L 28 8.203125 
Q 28 12.296875 27.703125 16.40625 
Q 35 15.703125 37.09375 15.453125 
Q 39.203125 15.203125 39.890625 14.75 
Q 40.59375 14.296875 40.59375 13.796875 
Q 40.59375 12.703125 38.296875 11.796875 
z
M 17.40625 15.796875 
Q 18.09375 15.796875 19.796875 11.546875 
Q 21.5 7.296875 21.5 3.09375 
Q 21.5 -1.09375 18.953125 -3.75 
Q 16.40625 -6.40625 13.25 -6.40625 
Q 10.09375 -6.40625 8.390625 -4.703125 
Q 6.703125 -3 6.703125 -0.390625 
Q 6.703125 2.203125 10.296875 4.34375 
Q 13.90625 6.5 15.40625 8.640625 
Q 16.90625 10.796875 16.953125 13.296875 
Q 17 15.796875 17.40625 15.796875 
z
" id="STSongti-SC-Black-24840"/>
     </defs>
     <g transform="translate(708.632812 82.61875)scale(0.1 -0.1)">
      <use xlink:href="#STSongti-SC-Black-27835"/>
      <use x="99.999985" xlink:href="#STSongti-SC-Black-24840"/>
      <use x="199.999969" xlink:href="#STSongti-SC-Black-29575"/>
      <use x="299.999954" xlink:href="#STSongti-SC-Black-37"/>
     </g>
    </g>
   </g>
  </g>
  <g id="text_24">
   <!-- 深圳死亡治愈率% -->
   <defs>
    <path d="M 43.90625 74.5 
L 77.90625 74.5 
Q 80.703125 80.09375 82.203125 80.09375 
Q 82.90625 80.09375 85.34375 78.4375 
Q 87.796875 76.796875 90.9375 74.1875 
Q 94.09375 71.59375 94.890625 70.546875 
Q 95.703125 69.5 95.703125 68.546875 
Q 95.703125 67.59375 94.640625 67.046875 
Q 93.59375 66.5 91.640625 66.703125 
Q 89.703125 66.90625 87.390625 66.90625 
Q 85.09375 66.90625 82.9375 65.90625 
Q 80.796875 64.90625 78.40625 62.5 
Q 83.796875 60.5 86.546875 57.453125 
Q 89.296875 54.40625 89.296875 51.34375 
Q 89.296875 48.296875 87.140625 46.09375 
Q 85 43.90625 81.796875 43.90625 
Q 80.203125 43.90625 78.703125 45.25 
Q 77.203125 46.59375 76.796875 48.5 
Q 75.703125 53.5 72.203125 57.640625 
Q 68.703125 61.796875 63.296875 64 
Q 61.796875 64.59375 61.796875 64.9375 
Q 61.796875 65.296875 63.4375 65.296875 
Q 65.09375 65.296875 69.046875 64.75 
Q 73 64.203125 76.703125 63.09375 
Q 78 67 78.5 71.203125 
L 45.296875 71.203125 
Q 45.90625 69.296875 45.90625 67.5 
Q 45.90625 63.703125 43.546875 61.09375 
Q 41.203125 58.5 38.390625 58.5 
Q 35.59375 58.5 34.046875 59.75 
Q 32.5 61 32.5 63.390625 
Q 32.5 65.796875 35.84375 68.796875 
Q 39.203125 71.796875 39.203125 75.59375 
Q 39.203125 77 38.84375 78.140625 
Q 38.5 79.296875 38.5 79.59375 
Q 38.5 79.90625 38.703125 79.90625 
Q 39.203125 79.90625 40.84375 78.296875 
Q 42.5 76.703125 43.90625 74.5 
z
M 14.40625 78.59375 
Q 21.703125 78.59375 25.25 76.59375 
Q 28.796875 74.59375 28.796875 70.84375 
Q 28.796875 67.09375 26.59375 64.890625 
Q 24.40625 62.703125 21.703125 62.703125 
Q 19 62.703125 17.75 63.953125 
Q 16.5 65.203125 16.5 67.890625 
Q 16.5 70.59375 14.890625 73.25 
Q 13.296875 75.90625 10.5 77.203125 
Q 9.5 77.703125 9.5 78 
Q 9.5 78.59375 14.40625 78.59375 
z
M 32.296875 68.796875 
L 25.203125 33.5 
Q 23.703125 25.796875 23.703125 20.34375 
Q 23.703125 14.90625 25.5 5.796875 
Q 25.90625 3.90625 25.90625 2.296875 
Q 25.90625 -2 23.65625 -4.5 
Q 21.40625 -7 17.90625 -7 
Q 11.796875 -7 11.796875 -0.5 
Q 11.796875 1.59375 12.890625 5.6875 
Q 14 9.796875 14 13.640625 
Q 14 17.5 12.046875 19.796875 
Q 10.09375 22.09375 5.703125 23.09375 
Q 4.5 23.296875 4.5 24 
Q 4.5 24.703125 5.09375 25 
Q 5.703125 25.296875 7.40625 25.296875 
Q 13.5 25.296875 16.140625 27.4375 
Q 18.796875 29.59375 20.703125 35.703125 
L 31.203125 69.296875 
Q 31.703125 70.90625 32.09375 70.90625 
Q 32.5 70.90625 32.5 70.25 
Q 32.5 69.59375 32.296875 68.796875 
z
M 49.203125 67 
Q 53.09375 65 56.84375 62.546875 
Q 60.59375 60.09375 61.390625 59.34375 
Q 62.203125 58.59375 62.203125 58 
Q 62.203125 56.90625 60.5 56.90625 
Q 58.796875 56.90625 57.4375 56.203125 
Q 56.09375 55.5 51.390625 52.25 
Q 46.703125 49 39.453125 44.890625 
Q 32.203125 40.796875 31.09375 40.796875 
Q 30.796875 40.796875 30.796875 41.09375 
Q 30.796875 41.40625 31.796875 42.296875 
Q 42.703125 51.703125 49.203125 67 
z
M 4 55.296875 
Q 12.90625 55.296875 17.046875 53.1875 
Q 21.203125 51.09375 21.203125 45.90625 
Q 21.203125 43.09375 19.046875 41.046875 
Q 16.90625 39 14 39 
Q 10 39 9.5 43.203125 
Q 8.59375 51.203125 3.90625 54 
Q 3 54.5 3 54.890625 
Q 3 55.296875 4 55.296875 
z
M 66.59375 34.5 
L 79.796875 34.5 
Q 81.09375 37.203125 82.546875 39.390625 
Q 84 41.59375 84.453125 41.9375 
Q 84.90625 42.296875 85.40625 42.296875 
Q 86.59375 42.296875 92.390625 37.890625 
Q 98.203125 33.5 98.203125 32.34375 
Q 98.203125 31.203125 95.5 31.203125 
L 70.796875 31.203125 
Q 79.5 15.09375 97.59375 9.703125 
Q 99.09375 9.296875 99.09375 8.796875 
Q 99.09375 8.296875 97.296875 7.6875 
Q 95.5 7.09375 92.953125 3.9375 
Q 90.40625 0.796875 89.5 -1.796875 
Q 89.09375 -3 88.40625 -3 
Q 87.09375 -3 82.1875 1.953125 
Q 77.296875 6.90625 73.5 14.453125 
Q 69.703125 22 68.90625 31.203125 
L 66.59375 31.203125 
L 66.59375 4.09375 
Q 66.59375 0.796875 66.703125 -2.90625 
L 66.90625 -6.296875 
Q 66.90625 -7.40625 66.25 -8 
Q 65.59375 -8.59375 62.546875 -9.390625 
Q 59.5 -10.203125 57.34375 -10.203125 
Q 55.203125 -10.203125 54.953125 -9.84375 
Q 54.703125 -9.5 54.703125 -8.59375 
L 54.90625 -4.703125 
Q 55 -0.703125 55 4.296875 
L 55 21.296875 
Q 49.59375 14.09375 43.84375 9.1875 
Q 38.09375 4.296875 32.390625 1.296875 
Q 26.703125 -1.703125 25.796875 -1.703125 
Q 25.59375 -1.703125 25.59375 -1.59375 
Q 25.59375 -1.296875 27.203125 0 
Q 42.203125 11.59375 48 31.203125 
L 35.09375 31.203125 
Q 33.09375 31.203125 31.5 30.09375 
L 28.90625 34.796875 
Q 31.296875 34.5 33.90625 34.5 
L 55 34.5 
L 55 39.296875 
Q 55 44.296875 54.796875 48.203125 
Q 59.59375 48.09375 63.25 47.75 
Q 66.90625 47.40625 67.75 47.046875 
Q 68.59375 46.703125 68.59375 46.046875 
Q 68.59375 45.40625 66.59375 44.296875 
z
" id="STSongti-SC-Black-28145"/>
    <path d="M 78.40625 81.203125 
Q 83.203125 80.703125 87.5 79.953125 
Q 91.796875 79.203125 92.546875 78.640625 
Q 93.296875 78.09375 93.296875 77.59375 
Q 93.296875 76.296875 90.40625 75.296875 
L 90.40625 9.90625 
L 90.59375 -5.703125 
Q 90.59375 -8 87.5 -9.09375 
Q 84.40625 -10.203125 80.296875 -10.203125 
Q 79.296875 -10.203125 78.9375 -9.453125 
Q 78.59375 -8.703125 78.59375 -5.796875 
L 78.59375 72.296875 
Q 78.59375 77.296875 78.40625 81.203125 
z
M 44.703125 51.90625 
Q 44.5 71.5 43.90625 80 
Q 47.703125 79.5 52 78.5 
Q 56.296875 77.5 57.34375 76.953125 
Q 58.40625 76.40625 58.40625 75.65625 
Q 58.40625 74.90625 56.796875 74.203125 
Q 56.09375 73.90625 55.84375 72.796875 
Q 55.59375 71.703125 55.59375 68 
Q 55.5 47.40625 54.796875 36.09375 
Q 54.09375 24.796875 52.296875 19.046875 
Q 50.5 13.296875 46.75 8.390625 
Q 43 3.5 37.25 -0.5 
Q 31.5 -4.5 24.140625 -7.5 
Q 16.796875 -10.5 15.59375 -10.5 
Q 15.09375 -10.5 15.09375 -10.140625 
Q 15.09375 -9.796875 16.5 -9.203125 
Q 40.796875 1.59375 43.703125 24.5 
Q 18.59375 13 10.796875 6.90625 
Q 9.796875 6.203125 9.34375 6.203125 
Q 8.90625 6.203125 8.546875 6.703125 
Q 8.203125 7.203125 6.390625 12 
Q 4.59375 16.796875 3.296875 20.703125 
Q 12.59375 21.40625 19.703125 22.296875 
L 19.703125 48.59375 
L 9.296875 48.59375 
Q 7.296875 48.59375 5.703125 47.5 
L 3.09375 52.203125 
Q 5.5 51.90625 8.09375 51.90625 
L 19.703125 51.90625 
L 19.703125 71.90625 
Q 19.703125 76.90625 19.5 80.796875 
Q 29.90625 79.703125 31.59375 79.140625 
Q 33.296875 78.59375 33.296875 77.6875 
Q 33.296875 76.796875 30.59375 75.59375 
L 30.59375 51.90625 
L 32.5 51.90625 
Q 33.203125 53.5 34.546875 55.796875 
Q 35.90625 58.09375 36.34375 58.546875 
Q 36.796875 59 37.296875 59 
Q 38.59375 59 44.703125 51.90625 
z
M 43.796875 25.796875 
Q 44.40625 29.40625 44.703125 48.59375 
L 30.59375 48.59375 
L 30.59375 23.703125 
z
M 61.203125 73.296875 
Q 65.796875 72.90625 69.34375 72.203125 
Q 72.90625 71.5 73.59375 71.09375 
Q 74.296875 70.703125 74.296875 70.09375 
Q 74.296875 69.09375 71.796875 67.796875 
L 71.796875 20.5 
Q 71.796875 14.59375 71.90625 12.203125 
L 72 7.796875 
Q 72 3.40625 63 3.40625 
Q 61.90625 3.40625 61.5 3.703125 
Q 61.09375 4 61.09375 4.796875 
L 61.296875 10.203125 
Q 61.40625 13.5 61.40625 18.5 
L 61.40625 64.40625 
Q 61.40625 69.40625 61.203125 73.296875 
z
" id="STSongti-SC-Black-22323"/>
   </defs>
   <g transform="translate(311.055781 22.283437)scale(0.18 -0.18)">
    <use xlink:href="#STSongti-SC-Black-28145"/>
    <use x="99.999985" xlink:href="#STSongti-SC-Black-22323"/>
    <use x="199.999969" xlink:href="#STSongti-SC-Black-27515"/>
    <use x="299.999954" xlink:href="#STSongti-SC-Black-20129"/>
    <use x="399.999939" xlink:href="#STSongti-SC-Black-27835"/>
    <use x="499.999924" xlink:href="#STSongti-SC-Black-24840"/>
    <use x="599.999908" xlink:href="#STSongti-SC-Black-29575"/>
    <use x="699.999893" xlink:href="#STSongti-SC-Black-37"/>
   </g>
  </g>
 </g>
 <defs>
  <clipPath id="pf63a8dd769">
   <rect height="148.254545" width="725.4" x="30.4625" y="50.4"/>
  </clipPath>
 </defs>
</svg>
