<?xml version="1.0" encoding="utf-8" standalone="no"?>
<!DOCTYPE svg PUBLIC "-//W3C//DTD SVG 1.1//EN"
  "http://www.w3.org/Graphics/SVG/1.1/DTD/svg11.dtd">
<!-- Created with matplotlib (https://matplotlib.org/) -->
<svg height="234.035795pt" version="1.1" viewBox="0 0 772.5625 234.035795" width="772.5625pt" xmlns="http://www.w3.org/2000/svg" xmlns:xlink="http://www.w3.org/1999/xlink">
 <defs>
  <style type="text/css">
*{stroke-linecap:butt;stroke-linejoin:round;}
  </style>
 </defs>
 <g id="figure_1">
  <g id="patch_1">
   <path d="M 0 234.035795 
L 772.5625 234.035795 
L 772.5625 0 
L 0 0 
z
" style="fill:none;"/>
  </g>
  <g id="axes_1">
   <g id="patch_2">
    <path d="M 23.58125 198.654545 
L 748.98125 198.654545 
L 748.98125 50.4 
L 23.58125 50.4 
z
" style="fill:#ffffff;"/>
   </g>
   <g id="matplotlib.axis_1">
    <g id="xtick_1">
     <g id="line2d_1">
      <path clip-path="url(#pd290ce483b)" d="M 71.94125 198.654545 
L 71.94125 50.4 
" style="fill:none;stroke:#b0b0b0;stroke-linecap:square;stroke-width:0.8;"/>
     </g>
     <g id="line2d_2">
      <defs>
       <path d="M 0 0 
L 0 3.5 
" id="m3d1b00fe7f" style="stroke:#000000;stroke-width:0.8;"/>
      </defs>
      <g>
       <use style="stroke:#000000;stroke-width:0.8;" x="71.94125" xlink:href="#m3d1b00fe7f" y="198.654545"/>
      </g>
     </g>
     <g id="text_1">
      <!-- 2020-01-25 -->
      <defs>
       <path d="M 42.59375 5.703125 
Q 39 5.796875 34.796875 5.890625 
Q 30.59375 6 24.09375 6 
Q 17.5 6 12.140625 5.953125 
Q 6.796875 5.90625 3.296875 5.703125 
Q 3.59375 8.09375 4.09375 10.296875 
Q 4.59375 12.5 5.890625 14.953125 
Q 7.203125 17.40625 9.453125 20.296875 
Q 11.703125 23.203125 15.5 27.09375 
L 19.203125 30.90625 
Q 23.09375 34.796875 25.390625 37.6875 
Q 27.703125 40.59375 28.890625 42.9375 
Q 30.09375 45.296875 30.390625 47.390625 
Q 30.703125 49.5 30.703125 51.90625 
Q 30.703125 56.59375 27.796875 59.390625 
Q 24.90625 62.203125 20 62.203125 
Q 14.90625 62.203125 11.65625 58.890625 
Q 8.40625 55.59375 7.203125 49.40625 
L 4.09375 50.59375 
Q 5.5 59.796875 10.84375 64.640625 
Q 16.203125 69.5 24.203125 69.5 
Q 27.796875 69.5 31 68.5 
Q 34.203125 67.5 36.59375 65.546875 
Q 39 63.59375 40.453125 60.75 
Q 41.90625 57.90625 41.90625 54.203125 
Q 41.90625 50.296875 40.5 47 
Q 39.09375 43.703125 36.6875 40.75 
Q 34.296875 37.796875 31.140625 35.09375 
Q 28 32.40625 24.59375 29.796875 
L 21.59375 27.40625 
Q 19 25.296875 16.09375 22.296875 
Q 13.203125 19.296875 10.703125 15.296875 
L 32.40625 15.296875 
Q 34.90625 15.296875 36.203125 15.796875 
Q 37.5 16.296875 38.25 17.4375 
Q 39 18.59375 39.546875 20.34375 
Q 40.09375 22.09375 41 24.5 
L 44.09375 24.5 
z
" id="STSongti-SC-Black-50"/>
       <path d="M 23.703125 69.5 
Q 28 69.5 31.953125 66.953125 
Q 35.90625 64.40625 38.84375 60 
Q 41.796875 55.59375 43.546875 49.640625 
Q 45.296875 43.703125 45.296875 36.90625 
Q 45.296875 30.203125 43.59375 24.296875 
Q 41.90625 18.40625 38.953125 13.953125 
Q 36 9.5 32.09375 6.953125 
Q 28.203125 4.40625 23.796875 4.40625 
Q 19.5 4.40625 15.546875 6.90625 
Q 11.59375 9.40625 8.59375 13.75 
Q 5.59375 18.09375 3.84375 24.046875 
Q 2.09375 30 2.09375 36.796875 
Q 2.09375 43.703125 3.84375 49.703125 
Q 5.59375 55.703125 8.546875 60.09375 
Q 11.5 64.5 15.390625 67 
Q 19.296875 69.5 23.703125 69.5 
z
M 23.703125 8.09375 
Q 29.203125 8.09375 31.203125 15.09375 
Q 33.203125 22.09375 33.203125 36.90625 
Q 33.203125 51.703125 31.140625 58.75 
Q 29.09375 65.796875 23.703125 65.796875 
Q 18.296875 65.796875 16.25 58.796875 
Q 14.203125 51.796875 14.203125 36.90625 
Q 14.203125 8.09375 23.703125 8.09375 
z
" id="STSongti-SC-Black-48"/>
       <path d="M 3.796875 27.703125 
L 27.5 27.703125 
L 27.5 23.40625 
L 3.796875 23.40625 
z
" id="STSongti-SC-Black-45"/>
       <path d="M 38.5 5.703125 
Q 35.90625 5.796875 31.953125 5.890625 
Q 28 6 23.796875 6 
Q 19.59375 6 15.640625 5.890625 
Q 11.703125 5.796875 9.09375 5.703125 
L 9.09375 8.59375 
L 15.296875 9.5 
Q 18.796875 10.296875 18.796875 13.40625 
L 18.796875 60 
L 6.90625 52.296875 
L 5.203125 55.40625 
Q 6.90625 56.5 9.5 58.09375 
Q 12.09375 59.703125 15 61.59375 
Q 17.90625 63.5 20.796875 65.5 
Q 23.703125 67.5 26.09375 69.5 
L 29.40625 69.5 
L 29.40625 13.40625 
Q 29.40625 9.90625 32.90625 9.40625 
L 38.5 8.59375 
z
" id="STSongti-SC-Black-49"/>
       <path d="M 38.90625 58.796875 
L 24 58.796875 
Q 20.09375 58.796875 17.09375 58.75 
Q 14.09375 58.703125 13.703125 58.5 
L 12.796875 45 
Q 15 46.09375 17.890625 46.59375 
Q 20.796875 47.09375 23.09375 47.09375 
Q 28.203125 47.09375 32.046875 45.4375 
Q 35.90625 43.796875 38.5 41.046875 
Q 41.09375 38.296875 42.390625 34.6875 
Q 43.703125 31.09375 43.703125 27.203125 
Q 43.703125 22.09375 41.59375 17.890625 
Q 39.5 13.703125 36.09375 10.703125 
Q 32.703125 7.703125 28.390625 6.046875 
Q 24.09375 4.40625 19.59375 4.40625 
Q 17.296875 4.40625 14.59375 4.84375 
Q 11.90625 5.296875 9.546875 6.140625 
Q 7.203125 7 5.640625 8.25 
Q 4.09375 9.5 4.09375 11.203125 
Q 4.09375 12.40625 4.890625 13.34375 
Q 5.703125 14.296875 6.796875 14.84375 
Q 7.90625 15.40625 9.09375 15.40625 
Q 10.296875 15.40625 11.09375 14.703125 
Q 13.5 12.703125 15.046875 11.296875 
Q 16.59375 9.90625 17.796875 9 
Q 19 8.09375 20.09375 7.6875 
Q 21.203125 7.296875 22.703125 7.296875 
Q 25.5 7.296875 27.59375 8.59375 
Q 29.703125 9.90625 31.140625 12.15625 
Q 32.59375 14.40625 33.34375 17.40625 
Q 34.09375 20.40625 34.09375 23.796875 
Q 34.09375 27 33.09375 29.640625 
Q 32.09375 32.296875 30.296875 34.25 
Q 28.5 36.203125 26.046875 37.296875 
Q 23.59375 38.40625 20.59375 38.40625 
Q 17.203125 38.40625 14.953125 37.65625 
Q 12.703125 36.90625 11.296875 35.5 
L 9.59375 35.5 
L 11.5 68.5 
L 24.09375 68.5 
Q 28 68.5 30.5 68.5 
Q 33 68.5 34.453125 68.75 
Q 35.90625 69 36.5 69.546875 
Q 37.09375 70.09375 37.296875 71.203125 
L 39.796875 71.203125 
z
" id="STSongti-SC-Black-53"/>
      </defs>
      <g transform="translate(50.049063 212.854545)scale(0.1 -0.1)">
       <use xlink:href="#STSongti-SC-Black-50"/>
       <use x="46.899994" xlink:href="#STSongti-SC-Black-48"/>
       <use x="93.799988" xlink:href="#STSongti-SC-Black-50"/>
       <use x="140.699982" xlink:href="#STSongti-SC-Black-48"/>
       <use x="187.599976" xlink:href="#STSongti-SC-Black-45"/>
       <use x="218.899963" xlink:href="#STSongti-SC-Black-48"/>
       <use x="265.799957" xlink:href="#STSongti-SC-Black-49"/>
       <use x="312.699951" xlink:href="#STSongti-SC-Black-45"/>
       <use x="343.999939" xlink:href="#STSongti-SC-Black-50"/>
       <use x="390.899933" xlink:href="#STSongti-SC-Black-53"/>
      </g>
     </g>
    </g>
    <g id="xtick_2">
     <g id="line2d_3">
      <path clip-path="url(#pd290ce483b)" d="M 168.66125 198.654545 
L 168.66125 50.4 
" style="fill:none;stroke:#b0b0b0;stroke-linecap:square;stroke-width:0.8;"/>
     </g>
     <g id="line2d_4">
      <g>
       <use style="stroke:#000000;stroke-width:0.8;" x="168.66125" xlink:href="#m3d1b00fe7f" y="198.654545"/>
      </g>
     </g>
     <g id="text_2">
      <!-- 2020-01-27 -->
      <defs>
       <path d="M 5.59375 68.5 
L 44.09375 68.5 
L 44.09375 66.796875 
Q 42.40625 63.796875 39.40625 56.1875 
Q 36.40625 48.59375 31.90625 36.09375 
Q 23.203125 11.5 22.296875 6 
L 16.296875 6 
Q 17.5 11.203125 19.09375 16.640625 
Q 20.703125 22.09375 22.84375 28.390625 
Q 25 34.703125 27.796875 42.046875 
Q 30.59375 49.40625 34.203125 58.296875 
L 9.90625 58.296875 
Q 7.296875 58.296875 7.203125 57 
L 6.40625 52.796875 
L 4.203125 52.796875 
z
" id="STSongti-SC-Black-55"/>
      </defs>
      <g transform="translate(146.769063 212.854545)scale(0.1 -0.1)">
       <use xlink:href="#STSongti-SC-Black-50"/>
       <use x="46.899994" xlink:href="#STSongti-SC-Black-48"/>
       <use x="93.799988" xlink:href="#STSongti-SC-Black-50"/>
       <use x="140.699982" xlink:href="#STSongti-SC-Black-48"/>
       <use x="187.599976" xlink:href="#STSongti-SC-Black-45"/>
       <use x="218.899963" xlink:href="#STSongti-SC-Black-48"/>
       <use x="265.799957" xlink:href="#STSongti-SC-Black-49"/>
       <use x="312.699951" xlink:href="#STSongti-SC-Black-45"/>
       <use x="343.999939" xlink:href="#STSongti-SC-Black-50"/>
       <use x="390.899933" xlink:href="#STSongti-SC-Black-55"/>
      </g>
     </g>
    </g>
    <g id="xtick_3">
     <g id="line2d_5">
      <path clip-path="url(#pd290ce483b)" d="M 265.38125 198.654545 
L 265.38125 50.4 
" style="fill:none;stroke:#b0b0b0;stroke-linecap:square;stroke-width:0.8;"/>
     </g>
     <g id="line2d_6">
      <g>
       <use style="stroke:#000000;stroke-width:0.8;" x="265.38125" xlink:href="#m3d1b00fe7f" y="198.654545"/>
      </g>
     </g>
     <g id="text_3">
      <!-- 2020-01-29 -->
      <defs>
       <path d="M 25.90625 31.59375 
Q 23.203125 30.296875 20.296875 30.296875 
Q 16.703125 30.296875 13.5 31.390625 
Q 10.296875 32.5 7.890625 34.703125 
Q 5.5 36.90625 4.140625 40.296875 
Q 2.796875 43.703125 2.796875 48.296875 
Q 2.796875 52.90625 4.390625 56.796875 
Q 6 60.703125 8.75 63.546875 
Q 11.5 66.40625 15.140625 67.953125 
Q 18.796875 69.5 22.90625 69.5 
Q 27.296875 69.5 31 67.796875 
Q 34.703125 66.09375 37.34375 62.84375 
Q 40 59.59375 41.5 55 
Q 43 50.40625 43 44.703125 
Q 43 37.09375 40.34375 30.1875 
Q 37.703125 23.296875 33.09375 17.84375 
Q 28.5 12.40625 22.140625 8.75 
Q 15.796875 5.09375 8.5 4.09375 
L 8.09375 6.296875 
Q 14.296875 7.90625 18.546875 11.59375 
Q 22.796875 15.296875 25.4375 20.4375 
Q 28.09375 25.59375 29.25 32.046875 
Q 30.40625 38.5 30.40625 45.59375 
Q 30.40625 49.90625 30.15625 53.84375 
Q 29.90625 57.796875 29.15625 60.796875 
Q 28.40625 63.796875 26.90625 65.546875 
Q 25.40625 67.296875 22.90625 67.296875 
Q 20.59375 67.296875 19.046875 65.6875 
Q 17.5 64.09375 16.546875 61.546875 
Q 15.59375 59 15.1875 55.796875 
Q 14.796875 52.59375 14.796875 49.40625 
Q 14.796875 46.703125 15.34375 43.84375 
Q 15.90625 41 17 38.703125 
Q 18.09375 36.40625 19.6875 34.90625 
Q 21.296875 33.40625 23.40625 33.40625 
Q 24.796875 33.40625 25.59375 33.703125 
z
" id="STSongti-SC-Black-57"/>
      </defs>
      <g transform="translate(243.489063 212.854545)scale(0.1 -0.1)">
       <use xlink:href="#STSongti-SC-Black-50"/>
       <use x="46.899994" xlink:href="#STSongti-SC-Black-48"/>
       <use x="93.799988" xlink:href="#STSongti-SC-Black-50"/>
       <use x="140.699982" xlink:href="#STSongti-SC-Black-48"/>
       <use x="187.599976" xlink:href="#STSongti-SC-Black-45"/>
       <use x="218.899963" xlink:href="#STSongti-SC-Black-48"/>
       <use x="265.799957" xlink:href="#STSongti-SC-Black-49"/>
       <use x="312.699951" xlink:href="#STSongti-SC-Black-45"/>
       <use x="343.999939" xlink:href="#STSongti-SC-Black-50"/>
       <use x="390.899933" xlink:href="#STSongti-SC-Black-57"/>
      </g>
     </g>
    </g>
    <g id="xtick_4">
     <g id="line2d_7">
      <path clip-path="url(#pd290ce483b)" d="M 362.10125 198.654545 
L 362.10125 50.4 
" style="fill:none;stroke:#b0b0b0;stroke-linecap:square;stroke-width:0.8;"/>
     </g>
     <g id="line2d_8">
      <g>
       <use style="stroke:#000000;stroke-width:0.8;" x="362.10125" xlink:href="#m3d1b00fe7f" y="198.654545"/>
      </g>
     </g>
     <g id="text_4">
      <!-- 2020-01-31 -->
      <defs>
       <path d="M 9 53.59375 
L 7.40625 55.09375 
Q 8.59375 58.296875 10.09375 60.9375 
Q 11.59375 63.59375 13.6875 65.5 
Q 15.796875 67.40625 18.640625 68.453125 
Q 21.5 69.5 25.296875 69.5 
Q 27.796875 69.5 30.296875 68.890625 
Q 32.796875 68.296875 34.75 67 
Q 36.703125 65.703125 37.890625 63.796875 
Q 39.09375 61.90625 39.09375 59.203125 
Q 39.09375 55.296875 35.640625 51.390625 
Q 32.203125 47.5 26.296875 44.09375 
Q 30.296875 44.40625 33.640625 43.296875 
Q 37 42.203125 39.34375 40 
Q 41.703125 37.796875 43 34.59375 
Q 44.296875 31.40625 44.296875 27.5 
Q 44.296875 22.59375 42.296875 18.34375 
Q 40.296875 14.09375 36.796875 11 
Q 33.296875 7.90625 28.640625 6.15625 
Q 24 4.40625 18.796875 4.40625 
Q 11.90625 4.40625 8.09375 6.296875 
Q 4.296875 8.203125 4.296875 11.203125 
Q 4.296875 12.296875 5.046875 13.34375 
Q 5.796875 14.40625 7.140625 14.84375 
Q 8.5 15.296875 10.203125 14.84375 
Q 11.90625 14.40625 13.90625 12.5 
Q 15.40625 11 16.453125 10 
Q 17.5 9 18.34375 8.453125 
Q 19.203125 7.90625 19.953125 7.65625 
Q 20.703125 7.40625 21.703125 7.40625 
Q 24.703125 7.40625 26.953125 8.90625 
Q 29.203125 10.40625 30.703125 12.90625 
Q 32.203125 15.40625 32.890625 18.5 
Q 33.59375 21.59375 33.59375 24.796875 
Q 33.59375 31.203125 30.546875 34.34375 
Q 27.5 37.5 23.40625 37.5 
Q 20.796875 37.5 18.84375 36.640625 
Q 16.90625 35.796875 14.90625 34.09375 
L 13.203125 36.40625 
Q 14.203125 37.296875 15.296875 38.1875 
Q 16.40625 39.09375 17.59375 40 
Q 23.09375 44.09375 26.1875 47.34375 
Q 29.296875 50.59375 29.296875 53.703125 
Q 29.296875 57.59375 27.046875 59.75 
Q 24.796875 61.90625 20.40625 61.90625 
Q 17.203125 61.90625 14.09375 60.046875 
Q 11 58.203125 9 53.59375 
z
" id="STSongti-SC-Black-51"/>
      </defs>
      <g transform="translate(340.209063 212.854545)scale(0.1 -0.1)">
       <use xlink:href="#STSongti-SC-Black-50"/>
       <use x="46.899994" xlink:href="#STSongti-SC-Black-48"/>
       <use x="93.799988" xlink:href="#STSongti-SC-Black-50"/>
       <use x="140.699982" xlink:href="#STSongti-SC-Black-48"/>
       <use x="187.599976" xlink:href="#STSongti-SC-Black-45"/>
       <use x="218.899963" xlink:href="#STSongti-SC-Black-48"/>
       <use x="265.799957" xlink:href="#STSongti-SC-Black-49"/>
       <use x="312.699951" xlink:href="#STSongti-SC-Black-45"/>
       <use x="343.999939" xlink:href="#STSongti-SC-Black-51"/>
       <use x="390.899933" xlink:href="#STSongti-SC-Black-49"/>
      </g>
     </g>
    </g>
    <g id="xtick_5">
     <g id="line2d_9">
      <path clip-path="url(#pd290ce483b)" d="M 410.46125 198.654545 
L 410.46125 50.4 
" style="fill:none;stroke:#b0b0b0;stroke-linecap:square;stroke-width:0.8;"/>
     </g>
     <g id="line2d_10">
      <g>
       <use style="stroke:#000000;stroke-width:0.8;" x="410.46125" xlink:href="#m3d1b00fe7f" y="198.654545"/>
      </g>
     </g>
     <g id="text_5">
      <!-- 2020-02-01 -->
      <g transform="translate(388.569062 212.854545)scale(0.1 -0.1)">
       <use xlink:href="#STSongti-SC-Black-50"/>
       <use x="46.899994" xlink:href="#STSongti-SC-Black-48"/>
       <use x="93.799988" xlink:href="#STSongti-SC-Black-50"/>
       <use x="140.699982" xlink:href="#STSongti-SC-Black-48"/>
       <use x="187.599976" xlink:href="#STSongti-SC-Black-45"/>
       <use x="218.899963" xlink:href="#STSongti-SC-Black-48"/>
       <use x="265.799957" xlink:href="#STSongti-SC-Black-50"/>
       <use x="312.699951" xlink:href="#STSongti-SC-Black-45"/>
       <use x="343.999939" xlink:href="#STSongti-SC-Black-48"/>
       <use x="390.899933" xlink:href="#STSongti-SC-Black-49"/>
      </g>
     </g>
    </g>
    <g id="xtick_6">
     <g id="line2d_11">
      <path clip-path="url(#pd290ce483b)" d="M 507.18125 198.654545 
L 507.18125 50.4 
" style="fill:none;stroke:#b0b0b0;stroke-linecap:square;stroke-width:0.8;"/>
     </g>
     <g id="line2d_12">
      <g>
       <use style="stroke:#000000;stroke-width:0.8;" x="507.18125" xlink:href="#m3d1b00fe7f" y="198.654545"/>
      </g>
     </g>
     <g id="text_6">
      <!-- 2020-02-03 -->
      <g transform="translate(485.289062 212.854545)scale(0.1 -0.1)">
       <use xlink:href="#STSongti-SC-Black-50"/>
       <use x="46.899994" xlink:href="#STSongti-SC-Black-48"/>
       <use x="93.799988" xlink:href="#STSongti-SC-Black-50"/>
       <use x="140.699982" xlink:href="#STSongti-SC-Black-48"/>
       <use x="187.599976" xlink:href="#STSongti-SC-Black-45"/>
       <use x="218.899963" xlink:href="#STSongti-SC-Black-48"/>
       <use x="265.799957" xlink:href="#STSongti-SC-Black-50"/>
       <use x="312.699951" xlink:href="#STSongti-SC-Black-45"/>
       <use x="343.999939" xlink:href="#STSongti-SC-Black-48"/>
       <use x="390.899933" xlink:href="#STSongti-SC-Black-51"/>
      </g>
     </g>
    </g>
    <g id="xtick_7">
     <g id="line2d_13">
      <path clip-path="url(#pd290ce483b)" d="M 603.90125 198.654545 
L 603.90125 50.4 
" style="fill:none;stroke:#b0b0b0;stroke-linecap:square;stroke-width:0.8;"/>
     </g>
     <g id="line2d_14">
      <g>
       <use style="stroke:#000000;stroke-width:0.8;" x="603.90125" xlink:href="#m3d1b00fe7f" y="198.654545"/>
      </g>
     </g>
     <g id="text_7">
      <!-- 2020-02-05 -->
      <g transform="translate(582.009062 212.854545)scale(0.1 -0.1)">
       <use xlink:href="#STSongti-SC-Black-50"/>
       <use x="46.899994" xlink:href="#STSongti-SC-Black-48"/>
       <use x="93.799988" xlink:href="#STSongti-SC-Black-50"/>
       <use x="140.699982" xlink:href="#STSongti-SC-Black-48"/>
       <use x="187.599976" xlink:href="#STSongti-SC-Black-45"/>
       <use x="218.899963" xlink:href="#STSongti-SC-Black-48"/>
       <use x="265.799957" xlink:href="#STSongti-SC-Black-50"/>
       <use x="312.699951" xlink:href="#STSongti-SC-Black-45"/>
       <use x="343.999939" xlink:href="#STSongti-SC-Black-48"/>
       <use x="390.899933" xlink:href="#STSongti-SC-Black-53"/>
      </g>
     </g>
    </g>
    <g id="xtick_8">
     <g id="line2d_15">
      <path clip-path="url(#pd290ce483b)" d="M 700.62125 198.654545 
L 700.62125 50.4 
" style="fill:none;stroke:#b0b0b0;stroke-linecap:square;stroke-width:0.8;"/>
     </g>
     <g id="line2d_16">
      <g>
       <use style="stroke:#000000;stroke-width:0.8;" x="700.62125" xlink:href="#m3d1b00fe7f" y="198.654545"/>
      </g>
     </g>
     <g id="text_8">
      <!-- 2020-02-07 -->
      <g transform="translate(678.729063 212.854545)scale(0.1 -0.1)">
       <use xlink:href="#STSongti-SC-Black-50"/>
       <use x="46.899994" xlink:href="#STSongti-SC-Black-48"/>
       <use x="93.799988" xlink:href="#STSongti-SC-Black-50"/>
       <use x="140.699982" xlink:href="#STSongti-SC-Black-48"/>
       <use x="187.599976" xlink:href="#STSongti-SC-Black-45"/>
       <use x="218.899963" xlink:href="#STSongti-SC-Black-48"/>
       <use x="265.799957" xlink:href="#STSongti-SC-Black-50"/>
       <use x="312.699951" xlink:href="#STSongti-SC-Black-45"/>
       <use x="343.999939" xlink:href="#STSongti-SC-Black-48"/>
       <use x="390.899933" xlink:href="#STSongti-SC-Black-55"/>
      </g>
     </g>
    </g>
    <g id="text_9">
     <!-- updateDate -->
     <defs>
      <path d="M 1.5 44.09375 
L 19.5 44.09375 
L 19.5 20.203125 
Q 19.5 15.40625 21.140625 13.40625 
Q 22.796875 11.40625 25.703125 11.40625 
Q 28.09375 11.40625 29.84375 12.15625 
Q 31.59375 12.90625 33.59375 14.59375 
L 33.59375 37.703125 
Q 33.59375 38.5 33.5 39.09375 
Q 33.40625 39.703125 32.75 40.140625 
Q 32.09375 40.59375 30.59375 40.890625 
Q 29.09375 41.203125 26.40625 41.5 
L 26.40625 44.09375 
L 45.09375 44.09375 
L 45.09375 15.703125 
Q 45.09375 14.203125 45.1875 13.203125 
Q 45.296875 12.203125 45.84375 11.640625 
Q 46.40625 11.09375 47.65625 10.890625 
Q 48.90625 10.703125 51.203125 10.59375 
Q 51.203125 10 51.25 9.34375 
Q 51.296875 8.703125 51.296875 8.09375 
L 33.59375 4.5 
L 33.59375 12.09375 
Q 31.90625 10.296875 30.40625 8.84375 
Q 28.90625 7.40625 27.296875 6.40625 
Q 25.703125 5.40625 23.75 4.90625 
Q 21.796875 4.40625 19.203125 4.40625 
Q 13 4.40625 10.5 8.09375 
Q 8 11.796875 8 17.90625 
L 8 37.796875 
Q 8 38.703125 7.796875 39.25 
Q 7.59375 39.796875 6.890625 40.25 
Q 6.203125 40.703125 4.953125 41 
Q 3.703125 41.296875 1.5 41.703125 
z
" id="STSongti-SC-Black-117"/>
      <path d="M 19.59375 40.59375 
Q 21.203125 41.90625 22.546875 42.90625 
Q 23.90625 43.90625 25.34375 44.59375 
Q 26.796875 45.296875 28.546875 45.640625 
Q 30.296875 46 32.59375 46 
Q 40.40625 46 44.90625 40.953125 
Q 49.40625 35.90625 49.40625 26.796875 
Q 49.40625 21.703125 47.75 17.703125 
Q 46.09375 13.703125 43.390625 10.953125 
Q 40.703125 8.203125 37.140625 6.75 
Q 33.59375 5.296875 29.796875 5.296875 
Q 26.90625 5.296875 24.25 5.890625 
Q 21.59375 6.5 19.59375 8.203125 
L 19.59375 -7 
Q 19.59375 -8.40625 20.4375 -9.09375 
Q 21.296875 -9.796875 23.796875 -10.203125 
L 29.796875 -11.203125 
L 29.796875 -13.90625 
Q 27.796875 -13.703125 25 -13.59375 
Q 22.203125 -13.5 17.796875 -13.5 
L 15.09375 -13.5 
Q 13.5 -13.5 11.546875 -13.546875 
Q 9.59375 -13.59375 7.6875 -13.640625 
Q 5.796875 -13.703125 4.140625 -13.75 
Q 2.5 -13.796875 1.5 -13.90625 
L 1.5 -11.296875 
L 5.703125 -10.5 
Q 7.203125 -10.203125 7.640625 -9.546875 
Q 8.09375 -8.90625 8.09375 -7 
L 8.09375 37.203125 
Q 8.09375 40.90625 6.796875 41 
L 1.90625 41.796875 
L 2.203125 43.203125 
Q 5 43.90625 7.34375 44.703125 
Q 9.703125 45.5 10.796875 46 
Q 11.5 46.296875 12.59375 46.84375 
Q 13.703125 47.40625 14.796875 48.046875 
Q 15.90625 48.703125 16.796875 49.296875 
Q 17.703125 49.90625 18.09375 50.40625 
L 19.59375 50.40625 
z
M 19.59375 36.59375 
L 19.59375 18.09375 
Q 19.59375 14.5 21.5 12.140625 
Q 23.40625 9.796875 27.796875 9.796875 
Q 32.40625 9.796875 34.84375 13.75 
Q 37.296875 17.703125 37.296875 24.59375 
Q 37.296875 27.90625 36.5 30.75 
Q 35.703125 33.59375 34.25 35.6875 
Q 32.796875 37.796875 30.9375 39 
Q 29.09375 40.203125 27 40.203125 
Q 24.59375 40.203125 22.890625 39.203125 
Q 21.203125 38.203125 19.59375 36.59375 
z
" id="STSongti-SC-Black-112"/>
      <path d="M 32.09375 60.5 
Q 32.09375 62.40625 31.890625 63.546875 
Q 31.703125 64.703125 30.890625 65.453125 
Q 30.09375 66.203125 28.546875 66.796875 
Q 27 67.40625 24.296875 68.09375 
L 24.296875 69.703125 
Q 25.90625 69.796875 28.25 70 
Q 30.59375 70.203125 33 70.5 
Q 35.40625 70.796875 37.59375 71.140625 
Q 39.796875 71.5 41.09375 72 
L 43.59375 72 
L 43.59375 13.796875 
Q 43.59375 12 43.75 11 
Q 43.90625 10 44.59375 9.546875 
Q 45.296875 9.09375 46.640625 9 
Q 48 8.90625 50.40625 8.796875 
L 50.40625 6.203125 
Q 48.5 5.796875 45.953125 5.4375 
Q 43.40625 5.09375 40.75 4.796875 
Q 38.09375 4.5 35.796875 4.25 
Q 33.5 4 32.09375 3.90625 
L 32.09375 10.5 
Q 29 8 26.046875 6.203125 
Q 23.09375 4.40625 19 4.40625 
Q 15.59375 4.40625 12.59375 5.296875 
Q 9.59375 6.203125 7.203125 9.09375 
Q 4.796875 12 3.640625 15.59375 
Q 2.5 19.203125 2.5 23.40625 
Q 2.5 29.09375 4.390625 33.34375 
Q 6.296875 37.59375 9.296875 40.390625 
Q 12.296875 43.203125 16 44.546875 
Q 19.703125 45.90625 23.296875 45.90625 
Q 26.5 45.90625 28.59375 45.15625 
Q 30.703125 44.40625 32.09375 43.203125 
z
M 32.09375 13.703125 
L 32.09375 30.5 
Q 32.09375 32.59375 31.796875 34.546875 
Q 31.5 36.5 30.703125 38.046875 
Q 29.90625 39.59375 28.34375 40.5 
Q 26.796875 41.40625 24.296875 41.40625 
Q 22.09375 41.40625 20.390625 40.15625 
Q 18.703125 38.90625 17.5 36.703125 
Q 16.296875 34.5 15.640625 31.59375 
Q 15 28.703125 15 25.296875 
Q 15 19.09375 17.296875 15.09375 
Q 19.59375 11.09375 24.296875 11.09375 
Q 27.40625 11.09375 29 11.796875 
Q 30.59375 12.5 32.09375 13.703125 
z
" id="STSongti-SC-Black-100"/>
      <path d="M 18 4.5 
Q 13.90625 4.5 10.953125 5.953125 
Q 8 7.40625 6.140625 9.90625 
Q 4.296875 12.40625 3.390625 15.796875 
Q 2.5 19.203125 2.5 23.09375 
Q 2.5 28.40625 4.09375 32.5 
Q 5.703125 36.59375 8.390625 39.390625 
Q 11.09375 42.203125 14.6875 43.640625 
Q 18.296875 45.09375 22.296875 45.09375 
Q 25.09375 45.09375 27.1875 44.6875 
Q 29.296875 44.296875 30.703125 43.796875 
Q 32.40625 43.296875 33.5 42.59375 
L 40.09375 46.296875 
L 41 46 
L 41 15.203125 
Q 41 11.203125 44.40625 11.40625 
Q 45.203125 11.40625 45.640625 11.65625 
Q 46.09375 11.90625 46.5 12.09375 
Q 46.90625 12.40625 47.203125 12.703125 
L 47.796875 11.296875 
Q 47 9.40625 45.703125 7.90625 
Q 44.59375 6.59375 42.75 5.546875 
Q 40.90625 4.5 38.203125 4.5 
Q 33.796875 4.5 31.9375 7.140625 
Q 30.09375 9.796875 30.09375 13.59375 
L 30.09375 16 
Q 29.59375 13.796875 28.640625 11.75 
Q 27.703125 9.703125 26.296875 8.09375 
Q 24.90625 6.5 22.84375 5.5 
Q 20.796875 4.5 18 4.5 
z
M 30.09375 27.5 
Q 30.09375 29.59375 29.890625 31.890625 
Q 29.703125 34.203125 29 36.140625 
Q 28.296875 38.09375 26.84375 39.390625 
Q 25.40625 40.703125 22.90625 40.703125 
Q 21.5 40.703125 19.953125 39.953125 
Q 18.40625 39.203125 17.09375 37.5 
Q 15.796875 35.796875 14.9375 32.84375 
Q 14.09375 29.90625 14.09375 25.59375 
Q 14.09375 22.59375 14.546875 19.890625 
Q 15 17.203125 16 15.203125 
Q 17 13.203125 18.453125 12.046875 
Q 19.90625 10.90625 21.90625 10.90625 
Q 23.90625 10.90625 25.40625 12.203125 
Q 26.90625 13.5 27.953125 15.640625 
Q 29 17.796875 29.546875 20.59375 
Q 30.09375 23.40625 30.09375 26.40625 
z
" id="STSongti-SC-Black-97"/>
      <path d="M 17.40625 54.203125 
L 19.59375 54.203125 
Q 19.59375 51.5 19.640625 48.84375 
Q 19.703125 46.203125 19.703125 43.5 
L 32.203125 43.796875 
L 32.203125 39.09375 
L 19.703125 38.703125 
L 19.703125 20.703125 
Q 19.703125 16.296875 20.796875 14.1875 
Q 21.90625 12.09375 25.40625 12.09375 
Q 26.90625 12.09375 28.703125 12.4375 
Q 30.5 12.796875 32.59375 14.59375 
L 33.5 13.203125 
Q 32.796875 11.796875 31.59375 10.25 
Q 30.40625 8.703125 28.65625 7.390625 
Q 26.90625 6.09375 24.703125 5.25 
Q 22.5 4.40625 19.703125 4.40625 
Q 14.09375 4.40625 11.25 7.25 
Q 8.40625 10.09375 8.40625 17 
L 8.40625 38.5 
Q 7 38.5 5.703125 38.453125 
Q 4.40625 38.40625 3 38.40625 
Q 1.59375 38.40625 1.546875 39.703125 
Q 1.5 41 2.90625 41.59375 
Q 5.09375 42.5 6.9375 43.5 
Q 8.796875 44.5 10 45.5 
Q 10.59375 46 11.640625 46.84375 
Q 12.703125 47.703125 13.796875 48.796875 
Q 14.90625 49.90625 15.84375 51.296875 
Q 16.796875 52.703125 17.40625 54.203125 
z
" id="STSongti-SC-Black-116"/>
      <path d="M 39.296875 29.5 
L 14.5 29.5 
Q 14.296875 28.5 14.25 28.296875 
Q 14.203125 28.09375 14.203125 27.09375 
Q 14.203125 23.90625 15.09375 21.25 
Q 16 18.59375 17.640625 16.640625 
Q 19.296875 14.703125 21.640625 13.59375 
Q 24 12.5 26.796875 12.5 
Q 30.296875 12.5 33.25 13.453125 
Q 36.203125 14.40625 39.5 17.59375 
L 39.90625 16.09375 
Q 38.703125 13.796875 37.140625 11.6875 
Q 35.59375 9.59375 33.390625 8 
Q 31.203125 6.40625 28.25 5.40625 
Q 25.296875 4.40625 21.296875 4.40625 
Q 17.09375 4.40625 13.59375 5.84375 
Q 10.09375 7.296875 7.640625 10 
Q 5.203125 12.703125 3.84375 16.5 
Q 2.5 20.296875 2.5 25 
Q 2.5 29.703125 3.953125 33.546875 
Q 5.40625 37.40625 8.046875 40.15625 
Q 10.703125 42.90625 14.5 44.40625 
Q 18.296875 45.90625 23 45.90625 
Q 27.296875 45.90625 30.296875 44.59375 
Q 33.296875 43.296875 35.25 41.046875 
Q 37.203125 38.796875 38.140625 35.796875 
Q 39.09375 32.796875 39.296875 29.5 
z
M 15 33.203125 
L 24.40625 33.203125 
Q 27.09375 33.203125 27.09375 35.796875 
Q 27.09375 38.703125 26.1875 40.75 
Q 25.296875 42.796875 22.59375 42.796875 
Q 17 42.796875 15 33.203125 
z
" id="STSongti-SC-Black-101"/>
      <path d="M 12.203125 59.40625 
Q 12.203125 61.796875 11.59375 62.75 
Q 11 63.703125 9.296875 64.09375 
L 3.5 65.296875 
L 3.5 68.59375 
Q 6.703125 68.5 11.140625 68.640625 
Q 15.59375 68.796875 20.296875 69 
Q 25 69.203125 29.546875 69.34375 
Q 34.09375 69.5 37.59375 69.5 
Q 45.40625 69.5 52.15625 67.546875 
Q 58.90625 65.59375 63.84375 61.6875 
Q 68.796875 57.796875 71.640625 51.9375 
Q 74.5 46.09375 74.5 38.203125 
Q 74.5 31.203125 71.703125 25.203125 
Q 68.90625 19.203125 64.15625 14.84375 
Q 59.40625 10.5 53.09375 8.09375 
Q 46.796875 5.703125 39.703125 5.90625 
L 23.5 6.296875 
L 2.5 6.296875 
L 2.5 9.40625 
L 9.296875 11.09375 
Q 10.90625 11.40625 11.546875 12.40625 
Q 12.203125 13.40625 12.203125 16.203125 
z
M 24.296875 18.59375 
Q 24.296875 17 25.046875 15.453125 
Q 25.796875 13.90625 27.390625 12.65625 
Q 29 11.40625 31.5 10.65625 
Q 34 9.90625 37.5 9.90625 
Q 43.796875 9.90625 48.140625 12.046875 
Q 52.5 14.203125 55.203125 18 
Q 57.90625 21.796875 59.09375 27.046875 
Q 60.296875 32.296875 60.296875 38.59375 
Q 60.296875 51.203125 53.390625 58.25 
Q 46.5 65.296875 34 65.296875 
Q 31.703125 65.296875 30.25 65.25 
Q 28.796875 65.203125 27.890625 65.046875 
Q 27 64.90625 26.5 64.703125 
Q 26 64.5 25.703125 64.203125 
Q 24.296875 63.09375 24.296875 59.40625 
z
" id="STSongti-SC-Black-68"/>
     </defs>
     <g transform="translate(361.985156 225.44517)scale(0.1 -0.1)">
      <use xlink:href="#STSongti-SC-Black-117"/>
      <use x="52.799988" xlink:href="#STSongti-SC-Black-112"/>
      <use x="104.699982" xlink:href="#STSongti-SC-Black-100"/>
      <use x="156.599976" xlink:href="#STSongti-SC-Black-97"/>
      <use x="205.899963" xlink:href="#STSongti-SC-Black-116"/>
      <use x="240.09996" xlink:href="#STSongti-SC-Black-101"/>
      <use x="282.499954" xlink:href="#STSongti-SC-Black-68"/>
      <use x="359.999939" xlink:href="#STSongti-SC-Black-97"/>
      <use x="409.299927" xlink:href="#STSongti-SC-Black-116"/>
      <use x="443.499924" xlink:href="#STSongti-SC-Black-101"/>
     </g>
    </g>
   </g>
   <g id="matplotlib.axis_2">
    <g id="ytick_1">
     <g id="line2d_17">
      <path clip-path="url(#pd290ce483b)" d="M 23.58125 194.13865 
L 748.98125 194.13865 
" style="fill:none;stroke:#b0b0b0;stroke-linecap:square;stroke-width:0.8;"/>
     </g>
     <g id="line2d_18">
      <defs>
       <path d="M 0 0 
L -3.5 0 
" id="m9f3cd9b610" style="stroke:#000000;stroke-width:0.8;"/>
      </defs>
      <g>
       <use style="stroke:#000000;stroke-width:0.8;" x="23.58125" xlink:href="#m9f3cd9b610" y="194.13865"/>
      </g>
     </g>
     <g id="text_10">
      <!-- 0 -->
      <g transform="translate(11.890625 197.73865)scale(0.1 -0.1)">
       <use xlink:href="#STSongti-SC-Black-48"/>
      </g>
     </g>
     <g id="text_11">
      <!-- 0 -->
      <g transform="translate(755.98125 197.73865)scale(0.1 -0.1)">
       <use xlink:href="#STSongti-SC-Black-48"/>
      </g>
     </g>
    </g>
    <g id="ytick_2">
     <g id="line2d_19">
      <path clip-path="url(#pd290ce483b)" d="M 23.58125 165.947631 
L 748.98125 165.947631 
" style="fill:none;stroke:#b0b0b0;stroke-linecap:square;stroke-width:0.8;"/>
     </g>
     <g id="line2d_20">
      <g>
       <use style="stroke:#000000;stroke-width:0.8;" x="23.58125" xlink:href="#m9f3cd9b610" y="165.947631"/>
      </g>
     </g>
     <g id="text_12">
      <!-- 2 -->
      <g transform="translate(11.890625 169.547631)scale(0.1 -0.1)">
       <use xlink:href="#STSongti-SC-Black-50"/>
      </g>
     </g>
     <g id="text_13">
      <!-- 2 -->
      <g transform="translate(755.98125 169.547631)scale(0.1 -0.1)">
       <use xlink:href="#STSongti-SC-Black-50"/>
      </g>
     </g>
    </g>
    <g id="ytick_3">
     <g id="line2d_21">
      <path clip-path="url(#pd290ce483b)" d="M 23.58125 137.756611 
L 748.98125 137.756611 
" style="fill:none;stroke:#b0b0b0;stroke-linecap:square;stroke-width:0.8;"/>
     </g>
     <g id="line2d_22">
      <g>
       <use style="stroke:#000000;stroke-width:0.8;" x="23.58125" xlink:href="#m9f3cd9b610" y="137.756611"/>
      </g>
     </g>
     <g id="text_14">
      <!-- 4 -->
      <defs>
       <path d="M 32.59375 69.5 
L 37.296875 69.5 
L 37.296875 28.796875 
L 45.59375 28.796875 
L 45.59375 22.40625 
L 37.296875 22.40625 
L 37.296875 4.40625 
L 26.09375 4.40625 
L 26.09375 22.40625 
L 1.90625 22.40625 
L 1.90625 27.5 
L 15.09375 45.5 
Q 19.59375 51.5 23.890625 57.5 
Q 28.203125 63.5 32.59375 69.5 
z
M 26.09375 28.796875 
L 26.09375 54.203125 
Q 22.703125 49.5 20.140625 46 
Q 17.59375 42.5 15.5 39.640625 
Q 13.40625 36.796875 11.546875 34.1875 
Q 9.703125 31.59375 7.703125 28.796875 
z
" id="STSongti-SC-Black-52"/>
      </defs>
      <g transform="translate(11.890625 141.356611)scale(0.1 -0.1)">
       <use xlink:href="#STSongti-SC-Black-52"/>
      </g>
     </g>
     <g id="text_15">
      <!-- 4 -->
      <g transform="translate(755.98125 141.356611)scale(0.1 -0.1)">
       <use xlink:href="#STSongti-SC-Black-52"/>
      </g>
     </g>
    </g>
    <g id="ytick_4">
     <g id="line2d_23">
      <path clip-path="url(#pd290ce483b)" d="M 23.58125 109.565591 
L 748.98125 109.565591 
" style="fill:none;stroke:#b0b0b0;stroke-linecap:square;stroke-width:0.8;"/>
     </g>
     <g id="line2d_24">
      <g>
       <use style="stroke:#000000;stroke-width:0.8;" x="23.58125" xlink:href="#m9f3cd9b610" y="109.565591"/>
      </g>
     </g>
     <g id="text_16">
      <!-- 6 -->
      <defs>
       <path d="M 38.40625 69.796875 
L 39.203125 67.90625 
Q 33.40625 64.703125 28.84375 61.34375 
Q 24.296875 58 21.1875 53.59375 
Q 18.09375 49.203125 16.5 43.140625 
Q 14.90625 37.09375 14.90625 28.5 
Q 14.90625 25.703125 15.203125 22.09375 
Q 15.5 18.5 16.453125 15.25 
Q 17.40625 12 19.296875 9.796875 
Q 21.203125 7.59375 24.40625 7.59375 
Q 28.5 7.59375 31.046875 11.546875 
Q 33.59375 15.5 33.59375 24.40625 
Q 33.59375 31.90625 31.1875 35.65625 
Q 28.796875 39.40625 24.296875 39.40625 
Q 22.40625 39.40625 20.59375 38.59375 
L 19.796875 41.203125 
Q 21.40625 41.90625 23.15625 42.25 
Q 24.90625 42.59375 27.296875 42.59375 
Q 35.59375 42.59375 40 37.890625 
Q 44.40625 33.203125 44.40625 25.40625 
Q 44.40625 20.59375 42.75 16.75 
Q 41.09375 12.90625 38.296875 10.15625 
Q 35.5 7.40625 31.796875 5.90625 
Q 28.09375 4.40625 23.90625 4.40625 
Q 18.59375 4.40625 14.75 6.296875 
Q 10.90625 8.203125 8.34375 11.546875 
Q 5.796875 14.90625 4.59375 19.40625 
Q 3.40625 23.90625 3.40625 29.09375 
Q 3.40625 37.90625 6.15625 44.75 
Q 8.90625 51.59375 13.65625 56.59375 
Q 18.40625 61.59375 24.796875 64.84375 
Q 31.203125 68.09375 38.40625 69.796875 
z
" id="STSongti-SC-Black-54"/>
      </defs>
      <g transform="translate(11.890625 113.165591)scale(0.1 -0.1)">
       <use xlink:href="#STSongti-SC-Black-54"/>
      </g>
     </g>
     <g id="text_17">
      <!-- 6 -->
      <g transform="translate(755.98125 113.165591)scale(0.1 -0.1)">
       <use xlink:href="#STSongti-SC-Black-54"/>
      </g>
     </g>
    </g>
    <g id="ytick_5">
     <g id="line2d_25">
      <path clip-path="url(#pd290ce483b)" d="M 23.58125 81.374571 
L 748.98125 81.374571 
" style="fill:none;stroke:#b0b0b0;stroke-linecap:square;stroke-width:0.8;"/>
     </g>
     <g id="line2d_26">
      <g>
       <use style="stroke:#000000;stroke-width:0.8;" x="23.58125" xlink:href="#m9f3cd9b610" y="81.374571"/>
      </g>
     </g>
     <g id="text_18">
      <!-- 8 -->
      <defs>
       <path d="M 16.703125 37 
Q 4.40625 43.09375 4.40625 53.5 
Q 4.40625 56.59375 5.75 59.4375 
Q 7.09375 62.296875 9.640625 64.546875 
Q 12.203125 66.796875 15.703125 68.140625 
Q 19.203125 69.5 23.59375 69.5 
Q 27.5 69.5 30.75 68.390625 
Q 34 67.296875 36.34375 65.390625 
Q 38.703125 63.5 40 60.953125 
Q 41.296875 58.40625 41.296875 55.5 
Q 41.296875 52.59375 40.4375 50.5 
Q 39.59375 48.40625 38.09375 46.75 
Q 36.59375 45.09375 34.390625 43.640625 
Q 32.203125 42.203125 29.5 40.59375 
Q 34.40625 38.203125 37.203125 35.890625 
Q 40 33.59375 41.34375 31.34375 
Q 42.703125 29.09375 43 26.84375 
Q 43.296875 24.59375 43.296875 22.40625 
Q 43.296875 18.59375 41.640625 15.296875 
Q 40 12 37.25 9.59375 
Q 34.5 7.203125 30.796875 5.796875 
Q 27.09375 4.40625 22.90625 4.40625 
Q 18.5 4.40625 14.84375 5.65625 
Q 11.203125 6.90625 8.59375 9 
Q 6 11.09375 4.59375 13.9375 
Q 3.203125 16.796875 3.203125 20 
Q 3.203125 22.40625 3.84375 24.75 
Q 4.5 27.09375 6.09375 29.296875 
Q 7.703125 31.5 10.296875 33.390625 
Q 12.90625 35.296875 16.703125 37 
z
M 26.296875 42.296875 
Q 30 44.59375 31.59375 47.59375 
Q 33.203125 50.59375 33.203125 55.09375 
Q 33.203125 59.796875 30.75 62.796875 
Q 28.296875 65.796875 23 65.796875 
Q 18.09375 65.796875 15.796875 63.046875 
Q 13.5 60.296875 13.5 56.203125 
Q 13.5 52.09375 16.34375 48.84375 
Q 19.203125 45.59375 26.296875 42.296875 
z
M 19.59375 35.40625 
Q 17.296875 34 15.796875 32.453125 
Q 14.296875 30.90625 13.4375 29.15625 
Q 12.59375 27.40625 12.25 25.34375 
Q 11.90625 23.296875 11.90625 20.796875 
Q 11.90625 14.703125 15.25 11.09375 
Q 18.59375 7.5 23.703125 7.5 
Q 33.796875 7.5 33.796875 19.296875 
Q 33.796875 22.09375 32.9375 24.296875 
Q 32.09375 26.5 30.34375 28.390625 
Q 28.59375 30.296875 25.890625 32 
Q 23.203125 33.703125 19.59375 35.40625 
z
" id="STSongti-SC-Black-56"/>
      </defs>
      <g transform="translate(11.890625 84.974571)scale(0.1 -0.1)">
       <use xlink:href="#STSongti-SC-Black-56"/>
      </g>
     </g>
     <g id="text_19">
      <!-- 8 -->
      <g transform="translate(755.98125 84.974571)scale(0.1 -0.1)">
       <use xlink:href="#STSongti-SC-Black-56"/>
      </g>
     </g>
    </g>
    <g id="ytick_6">
     <g id="line2d_27">
      <path clip-path="url(#pd290ce483b)" d="M 23.58125 53.183552 
L 748.98125 53.183552 
" style="fill:none;stroke:#b0b0b0;stroke-linecap:square;stroke-width:0.8;"/>
     </g>
     <g id="line2d_28">
      <g>
       <use style="stroke:#000000;stroke-width:0.8;" x="23.58125" xlink:href="#m9f3cd9b610" y="53.183552"/>
      </g>
     </g>
     <g id="text_20">
      <!-- 10 -->
      <g transform="translate(7.2 56.783552)scale(0.1 -0.1)">
       <use xlink:href="#STSongti-SC-Black-49"/>
       <use x="46.899994" xlink:href="#STSongti-SC-Black-48"/>
      </g>
     </g>
     <g id="text_21">
      <!-- 10 -->
      <g transform="translate(755.98125 56.783552)scale(0.1 -0.1)">
       <use xlink:href="#STSongti-SC-Black-49"/>
       <use x="46.899994" xlink:href="#STSongti-SC-Black-48"/>
      </g>
     </g>
    </g>
   </g>
   <g id="line2d_29">
    <path clip-path="url(#pd290ce483b)" d="M 23.58125 185.621726 
L 71.94125 189.384684 
L 120.30125 189.742961 
L 168.66125 191.179481 
L 217.02125 191.253183 
L 265.38125 190.224784 
L 313.74125 190.609258 
L 362.10125 191.164217 
L 410.46125 191.194726 
L 458.82125 191.519641 
L 507.18125 191.473253 
L 555.54125 191.915702 
L 603.90125 191.752381 
L 652.26125 191.797481 
L 700.62125 191.347153 
L 748.98125 190.789412 
" style="fill:none;stroke:#1f77b4;stroke-linecap:square;stroke-width:1.5;"/>
    <defs>
     <path d="M 0 -3 
L -0.673542 -0.927051 
L -2.85317 -0.927051 
L -1.089814 0.354102 
L -1.763356 2.427051 
L -0 1.145898 
L 1.763356 2.427051 
L 1.089814 0.354102 
L 2.85317 -0.927051 
L 0.673542 -0.927051 
z
" id="mfe0e6bd10c" style="stroke:#1f77b4;stroke-linejoin:bevel;"/>
    </defs>
    <g clip-path="url(#pd290ce483b)">
     <use style="fill:#1f77b4;stroke:#1f77b4;stroke-linejoin:bevel;" x="23.58125" xlink:href="#mfe0e6bd10c" y="185.621726"/>
     <use style="fill:#1f77b4;stroke:#1f77b4;stroke-linejoin:bevel;" x="71.94125" xlink:href="#mfe0e6bd10c" y="189.384684"/>
     <use style="fill:#1f77b4;stroke:#1f77b4;stroke-linejoin:bevel;" x="120.30125" xlink:href="#mfe0e6bd10c" y="189.742961"/>
     <use style="fill:#1f77b4;stroke:#1f77b4;stroke-linejoin:bevel;" x="168.66125" xlink:href="#mfe0e6bd10c" y="191.179481"/>
     <use style="fill:#1f77b4;stroke:#1f77b4;stroke-linejoin:bevel;" x="217.02125" xlink:href="#mfe0e6bd10c" y="191.253183"/>
     <use style="fill:#1f77b4;stroke:#1f77b4;stroke-linejoin:bevel;" x="265.38125" xlink:href="#mfe0e6bd10c" y="190.224784"/>
     <use style="fill:#1f77b4;stroke:#1f77b4;stroke-linejoin:bevel;" x="313.74125" xlink:href="#mfe0e6bd10c" y="190.609258"/>
     <use style="fill:#1f77b4;stroke:#1f77b4;stroke-linejoin:bevel;" x="362.10125" xlink:href="#mfe0e6bd10c" y="191.164217"/>
     <use style="fill:#1f77b4;stroke:#1f77b4;stroke-linejoin:bevel;" x="410.46125" xlink:href="#mfe0e6bd10c" y="191.194726"/>
     <use style="fill:#1f77b4;stroke:#1f77b4;stroke-linejoin:bevel;" x="458.82125" xlink:href="#mfe0e6bd10c" y="191.519641"/>
     <use style="fill:#1f77b4;stroke:#1f77b4;stroke-linejoin:bevel;" x="507.18125" xlink:href="#mfe0e6bd10c" y="191.473253"/>
     <use style="fill:#1f77b4;stroke:#1f77b4;stroke-linejoin:bevel;" x="555.54125" xlink:href="#mfe0e6bd10c" y="191.915702"/>
     <use style="fill:#1f77b4;stroke:#1f77b4;stroke-linejoin:bevel;" x="603.90125" xlink:href="#mfe0e6bd10c" y="191.752381"/>
     <use style="fill:#1f77b4;stroke:#1f77b4;stroke-linejoin:bevel;" x="652.26125" xlink:href="#mfe0e6bd10c" y="191.797481"/>
     <use style="fill:#1f77b4;stroke:#1f77b4;stroke-linejoin:bevel;" x="700.62125" xlink:href="#mfe0e6bd10c" y="191.347153"/>
     <use style="fill:#1f77b4;stroke:#1f77b4;stroke-linejoin:bevel;" x="748.98125" xlink:href="#mfe0e6bd10c" y="190.789412"/>
    </g>
   </g>
   <g id="line2d_30">
    <path clip-path="url(#pd290ce483b)" d="M 23.58125 177.104801 
L 71.94125 179.876752 
L 120.30125 185.347272 
L 168.66125 183.288363 
L 217.02125 179.711312 
L 265.38125 176.24669 
L 313.74125 178.256386 
L 362.10125 171.33466 
L 410.46125 164.110622 
L 458.82125 151.972595 
L 507.18125 147.049963 
L 555.54125 129.87525 
L 603.90125 107.131596 
L 652.26125 84.103706 
L 700.62125 59.216287 
L 748.98125 57.138843 
" style="fill:none;stroke:#ff7f0e;stroke-linecap:square;stroke-width:1.5;"/>
    <defs>
     <path d="M 0 -3 
L -0.673542 -0.927051 
L -2.85317 -0.927051 
L -1.089814 0.354102 
L -1.763356 2.427051 
L -0 1.145898 
L 1.763356 2.427051 
L 1.089814 0.354102 
L 2.85317 -0.927051 
L 0.673542 -0.927051 
z
" id="m3deddd71be" style="stroke:#ff7f0e;stroke-linejoin:bevel;"/>
    </defs>
    <g clip-path="url(#pd290ce483b)">
     <use style="fill:#ff7f0e;stroke:#ff7f0e;stroke-linejoin:bevel;" x="23.58125" xlink:href="#m3deddd71be" y="177.104801"/>
     <use style="fill:#ff7f0e;stroke:#ff7f0e;stroke-linejoin:bevel;" x="71.94125" xlink:href="#m3deddd71be" y="179.876752"/>
     <use style="fill:#ff7f0e;stroke:#ff7f0e;stroke-linejoin:bevel;" x="120.30125" xlink:href="#m3deddd71be" y="185.347272"/>
     <use style="fill:#ff7f0e;stroke:#ff7f0e;stroke-linejoin:bevel;" x="168.66125" xlink:href="#m3deddd71be" y="183.288363"/>
     <use style="fill:#ff7f0e;stroke:#ff7f0e;stroke-linejoin:bevel;" x="217.02125" xlink:href="#m3deddd71be" y="179.711312"/>
     <use style="fill:#ff7f0e;stroke:#ff7f0e;stroke-linejoin:bevel;" x="265.38125" xlink:href="#m3deddd71be" y="176.24669"/>
     <use style="fill:#ff7f0e;stroke:#ff7f0e;stroke-linejoin:bevel;" x="313.74125" xlink:href="#m3deddd71be" y="178.256386"/>
     <use style="fill:#ff7f0e;stroke:#ff7f0e;stroke-linejoin:bevel;" x="362.10125" xlink:href="#m3deddd71be" y="171.33466"/>
     <use style="fill:#ff7f0e;stroke:#ff7f0e;stroke-linejoin:bevel;" x="410.46125" xlink:href="#m3deddd71be" y="164.110622"/>
     <use style="fill:#ff7f0e;stroke:#ff7f0e;stroke-linejoin:bevel;" x="458.82125" xlink:href="#m3deddd71be" y="151.972595"/>
     <use style="fill:#ff7f0e;stroke:#ff7f0e;stroke-linejoin:bevel;" x="507.18125" xlink:href="#m3deddd71be" y="147.049963"/>
     <use style="fill:#ff7f0e;stroke:#ff7f0e;stroke-linejoin:bevel;" x="555.54125" xlink:href="#m3deddd71be" y="129.87525"/>
     <use style="fill:#ff7f0e;stroke:#ff7f0e;stroke-linejoin:bevel;" x="603.90125" xlink:href="#m3deddd71be" y="107.131596"/>
     <use style="fill:#ff7f0e;stroke:#ff7f0e;stroke-linejoin:bevel;" x="652.26125" xlink:href="#m3deddd71be" y="84.103706"/>
     <use style="fill:#ff7f0e;stroke:#ff7f0e;stroke-linejoin:bevel;" x="700.62125" xlink:href="#m3deddd71be" y="59.216287"/>
     <use style="fill:#ff7f0e;stroke:#ff7f0e;stroke-linejoin:bevel;" x="748.98125" xlink:href="#m3deddd71be" y="57.138843"/>
    </g>
   </g>
   <g id="patch_3">
    <path d="M 23.58125 198.654545 
L 23.58125 50.4 
" style="fill:none;stroke:#000000;stroke-linecap:square;stroke-linejoin:miter;stroke-width:0.8;"/>
   </g>
   <g id="patch_4">
    <path d="M 748.98125 198.654545 
L 748.98125 50.4 
" style="fill:none;stroke:#000000;stroke-linecap:square;stroke-linejoin:miter;stroke-width:0.8;"/>
   </g>
   <g id="patch_5">
    <path d="M 23.58125 198.654545 
L 748.98125 198.654545 
" style="fill:none;stroke:#000000;stroke-linecap:square;stroke-linejoin:miter;stroke-width:0.8;"/>
   </g>
   <g id="patch_6">
    <path d="M 23.58125 50.4 
L 748.98125 50.4 
" style="fill:none;stroke:#000000;stroke-linecap:square;stroke-linejoin:miter;stroke-width:0.8;"/>
   </g>
   <g id="legend_1">
    <g id="patch_7">
     <path d="M 30.58125 88.078125 
L 100.810938 88.078125 
Q 102.810938 88.078125 102.810938 86.078125 
L 102.810938 57.4 
Q 102.810938 55.4 100.810938 55.4 
L 30.58125 55.4 
Q 28.58125 55.4 28.58125 57.4 
L 28.58125 86.078125 
Q 28.58125 88.078125 30.58125 88.078125 
z
" style="fill:#ffffff;opacity:0.8;stroke:#cccccc;stroke-linejoin:miter;"/>
    </g>
    <g id="line2d_31">
     <path d="M 32.58125 64.279687 
L 52.58125 64.279687 
" style="fill:none;stroke:#1f77b4;stroke-linecap:square;stroke-width:1.5;"/>
    </g>
    <g id="line2d_32">
     <g>
      <use style="fill:#1f77b4;stroke:#1f77b4;stroke-linejoin:bevel;" x="42.58125" xlink:href="#mfe0e6bd10c" y="64.279687"/>
     </g>
    </g>
    <g id="text_22">
     <!-- 死亡率% -->
     <defs>
      <path d="M 22.703125 68 
L 12.203125 68 
Q 10.203125 68 8.59375 66.90625 
L 6 71.59375 
Q 8.40625 71.296875 11 71.296875 
L 78.90625 71.296875 
Q 80.203125 73.703125 81.796875 76.203125 
Q 83.40625 78.703125 84.046875 79.453125 
Q 84.703125 80.203125 85.453125 80.203125 
Q 86.203125 80.203125 87.59375 79.09375 
L 92.5 75.09375 
Q 95.90625 72.296875 97.09375 71 
Q 98.296875 69.703125 98.296875 68.84375 
Q 98.296875 68 96.296875 68 
L 69.5 68 
Q 68.796875 66.5 66.90625 65.5 
L 66.90625 30.296875 
Q 74 39.40625 80.5 57.203125 
Q 95.296875 50.5 95.296875 48.09375 
Q 95.296875 47.203125 93.59375 46.796875 
Q 89.90625 45.90625 87.84375 43.65625 
Q 85.796875 41.40625 79.4375 36.34375 
Q 73.09375 31.296875 66.90625 27 
L 66.90625 8.796875 
Q 66.90625 5.09375 67.953125 4.34375 
Q 69 3.59375 74 3.59375 
Q 79 3.59375 81.046875 4.5 
Q 83.09375 5.40625 85 8.90625 
Q 86.90625 12.40625 89 20.796875 
Q 89.203125 21.796875 89.640625 21.796875 
Q 90.09375 21.796875 90 20.703125 
Q 89.59375 16.796875 89.59375 13.84375 
Q 89.59375 10.90625 90.390625 8.84375 
Q 91.203125 6.796875 94.40625 4.796875 
Q 96.59375 3.40625 96.59375 0.796875 
Q 96.59375 -1.796875 93.25 -4.6875 
Q 89.90625 -7.59375 75.09375 -7.59375 
Q 63.796875 -7.59375 59.5 -5.390625 
Q 55.203125 -3.203125 55.203125 4.40625 
L 55.203125 68 
L 29.296875 68 
Q 37.296875 66 38.390625 65.5 
Q 39.5 65 39.5 63.953125 
Q 39.5 62.90625 38.09375 62.40625 
Q 36.703125 61.90625 35.75 60.5 
Q 34.796875 59.09375 33.296875 55.75 
Q 31.796875 52.40625 30.296875 49.59375 
L 37.296875 49.59375 
Q 40.59375 54.703125 41.046875 55.203125 
Q 41.5 55.703125 42.453125 55.703125 
Q 43.40625 55.703125 46.703125 53.59375 
L 52.203125 50.09375 
Q 54.296875 48.703125 54.296875 47.5 
Q 54.296875 46.296875 52.9375 45.890625 
Q 51.59375 45.5 50.796875 43.75 
Q 50 42 49.09375 38.40625 
Q 44.5 19.796875 36.34375 10.296875 
Q 28.203125 0.796875 16.953125 -4.59375 
Q 5.703125 -10 4.5 -10 
Q 4.296875 -10 4.296875 -9.90625 
Q 4.296875 -9.59375 5.796875 -8.59375 
Q 21.59375 2.09375 29.046875 14.84375 
Q 36.5 27.59375 38.796875 46.296875 
L 28.40625 46.296875 
Q 26.5 43.09375 23.40625 39.5 
Q 31.90625 35.59375 31.90625 29.09375 
Q 31.90625 25.296875 29.25 23.796875 
Q 26.59375 22.296875 24.5 22.296875 
Q 22.40625 22.296875 20.90625 24.296875 
Q 19.40625 26.296875 19.796875 27.703125 
Q 20.796875 31.296875 20.796875 33.140625 
Q 20.796875 35 20.296875 36.296875 
Q 17.203125 33.296875 11.59375 29 
Q 6 24.703125 5.25 24.25 
Q 4.5 23.796875 4.09375 23.796875 
Q 3.703125 23.796875 3.703125 24.25 
Q 3.703125 24.703125 4.5 25.59375 
Q 14.09375 36.90625 17.75 45.796875 
Q 21.40625 54.703125 22.703125 68 
z
" id="STSongti-SC-Black-27515"/>
      <path d="M 39.59375 80.40625 
Q 49.40625 80.40625 53.953125 77.09375 
Q 58.5 73.796875 58.5 69.09375 
Q 58.5 65.59375 55.84375 62.890625 
Q 53.203125 60.203125 49.59375 60.203125 
Q 47 60.203125 45.296875 62.25 
Q 43.59375 64.296875 43.796875 66.5 
Q 43.90625 67.40625 43.90625 68.203125 
Q 43.90625 75.296875 36.5 79.09375 
Q 35.5 79.59375 35.5 79.90625 
Q 35.5 80.40625 39.59375 80.40625 
z
M 18.703125 54.40625 
L 9.59375 54.40625 
Q 7.59375 54.40625 6 53.296875 
L 3.40625 58 
Q 5.796875 57.703125 8.40625 57.703125 
L 74.59375 57.703125 
Q 78.296875 64.09375 79.4375 65.84375 
Q 80.59375 67.59375 81.296875 67.59375 
Q 82.703125 67.59375 89.796875 62.25 
Q 96.90625 56.90625 96.90625 55.65625 
Q 96.90625 54.40625 94.90625 54.40625 
L 33.5 54.40625 
Q 33.09375 53.40625 31.5 52.5 
L 31.5 2.703125 
L 71.703125 2.703125 
Q 75.40625 8.703125 76.65625 10.453125 
Q 77.90625 12.203125 78.59375 12.203125 
Q 80 12.203125 86.5 7.046875 
Q 93 1.90625 93 0.65625 
Q 93 -0.59375 90.796875 -0.59375 
L 31.296875 -0.59375 
L 28.59375 -4.40625 
Q 27.796875 -5.5 26.9375 -5.5 
Q 26.09375 -5.5 21.5 -2.84375 
Q 16.90625 -0.203125 16.046875 0.25 
Q 15.203125 0.703125 15.203125 1.453125 
Q 15.203125 2.203125 16.5 3.046875 
Q 17.796875 3.90625 18.25 4.59375 
Q 18.703125 5.296875 18.703125 7.203125 
z
" id="STSongti-SC-Black-20129"/>
      <path d="M 46.5 70.90625 
Q 45.90625 71.5 45.546875 72.296875 
Q 45.203125 73.09375 45.203125 74 
L 45.296875 75.5 
Q 45.296875 79.90625 41.40625 82.09375 
Q 40.09375 82.796875 40.09375 83.203125 
Q 40.09375 83.796875 46.09375 83.796875 
Q 58.59375 83.796875 58.59375 76.90625 
Q 58.59375 73 54.296875 70.90625 
L 76.40625 70.90625 
Q 80.296875 77.5 80.9375 78.203125 
Q 81.59375 78.90625 82.203125 78.90625 
Q 83.703125 78.90625 89.046875 74.40625 
Q 94.40625 69.90625 94.40625 68.75 
Q 94.40625 67.59375 92.40625 67.59375 
L 51.59375 67.59375 
Q 55.203125 66.09375 56.453125 65.1875 
Q 57.703125 64.296875 57.703125 63.34375 
Q 57.703125 62.40625 56.453125 62.40625 
Q 55.203125 62.40625 53.890625 61.84375 
Q 52.59375 61.296875 48.25 58.1875 
Q 43.90625 55.09375 40.703125 52.203125 
L 53.59375 52.09375 
Q 57.203125 56.90625 58.5 59.59375 
Q 60.5 58.40625 64.09375 55.59375 
Q 67.703125 52.796875 68.09375 52.34375 
Q 68.5 51.90625 68.5 51.5 
Q 68.5 50.703125 67.296875 50.640625 
Q 66.09375 50.59375 61.4375 47.140625 
Q 56.796875 43.703125 53.796875 41.703125 
Q 61.296875 40.5 66.34375 37.390625 
Q 71.40625 34.296875 71.40625 29.5 
Q 71.40625 26.703125 69.046875 24.796875 
Q 66.703125 22.90625 65 22.90625 
Q 63.296875 22.90625 62.25 23.65625 
Q 61.203125 24.40625 60.890625 25.296875 
Q 60.59375 26.203125 60.59375 27.75 
Q 60.59375 29.296875 60.09375 31.09375 
L 46.703125 27.09375 
Q 48.296875 27 52.59375 26.34375 
Q 56.90625 25.703125 57.5 25.25 
Q 58.09375 24.796875 58.09375 23.9375 
Q 58.09375 23.09375 56.5 22.203125 
L 56.5 14.703125 
L 79.09375 14.703125 
Q 82.90625 21.09375 83.703125 22.203125 
Q 80.40625 22 79 23.796875 
Q 77.59375 25.59375 76.59375 30.09375 
Q 76 32.5 73 36.25 
Q 70 40 66.5 42.40625 
Q 73.09375 54.59375 74.703125 65 
Q 77.40625 64.203125 81.953125 62.140625 
Q 86.5 60.09375 88 59.1875 
Q 89.5 58.296875 89.5 57.5 
Q 89.5 56.203125 87.09375 56 
Q 85.40625 55.796875 83.953125 54.9375 
Q 82.5 54.09375 77.203125 49.84375 
Q 71.90625 45.59375 68.40625 42.40625 
Q 79.703125 40.40625 84.546875 37.203125 
Q 89.40625 34 89.40625 29.59375 
Q 89.40625 25.203125 86.09375 23.09375 
Q 88.40625 22.09375 93.296875 17.84375 
Q 98.203125 13.59375 98.203125 12.5 
Q 98.203125 11.40625 96.203125 11.40625 
L 56.5 11.40625 
L 56.5 3.296875 
Q 56.5 -1.703125 56.59375 -3.59375 
L 56.703125 -7.09375 
Q 56.703125 -8.796875 53.046875 -9.796875 
Q 49.40625 -10.796875 47.25 -10.796875 
Q 45.09375 -10.796875 44.4375 -10.390625 
Q 43.796875 -10 43.796875 -8.703125 
L 44 -4.796875 
Q 44.09375 -0.90625 44.09375 3.796875 
L 44.09375 11.40625 
L 9.90625 11.40625 
Q 7.90625 11.40625 6.296875 10.296875 
L 3.703125 15 
Q 6.09375 14.703125 8.703125 14.703125 
L 44.09375 14.703125 
L 44.09375 18.59375 
L 44 26.09375 
Q 38.09375 24.296875 36.75 23.59375 
Q 35.40625 22.90625 35.203125 22.90625 
Q 34.796875 22.90625 34.640625 23.546875 
Q 34.5 24.203125 33.203125 28.09375 
Q 31.90625 32 31.90625 32.59375 
Q 31.90625 33.703125 32.84375 33.5 
Q 33.796875 33.296875 34.296875 33.296875 
Q 36.5 33.296875 41.34375 37.9375 
Q 46.203125 42.59375 50.09375 47.5 
Q 40.40625 45 36.90625 43.296875 
Q 36.5 43.09375 36.046875 43.09375 
Q 35.59375 43.09375 35.390625 43.4375 
Q 35.203125 43.796875 33.890625 47.640625 
Q 32.59375 51.5 32.59375 52.09375 
Q 32.59375 52.703125 33.203125 52.796875 
Q 36.703125 53.296875 39.09375 57 
Q 41.5 60.703125 43.796875 67.59375 
L 13.796875 67.59375 
Q 11.796875 67.59375 10.203125 66.5 
L 7.59375 71.203125 
Q 10 70.90625 12.59375 70.90625 
z
M 52.796875 41 
Q 44.40625 35.5 41.09375 33.203125 
L 59.203125 33.40625 
Q 57.09375 37.90625 52.796875 41 
z
M 12.296875 63.59375 
Q 13.796875 63.59375 18.4375 61.890625 
Q 23.09375 60.203125 26.09375 57.296875 
Q 29.09375 54.40625 29.09375 51.203125 
Q 29.09375 48 27.1875 45.890625 
Q 25.296875 43.796875 21.90625 43.796875 
Q 19.90625 43.796875 18.453125 45.5 
Q 17 47.203125 17 49.40625 
L 17.09375 51.5 
Q 17.09375 54.703125 15.84375 57.75 
Q 14.59375 60.796875 12.5 62.40625 
Q 11.703125 63 11.703125 63.296875 
Q 11.703125 63.59375 12.296875 63.59375 
z
M 6.40625 34.5 
Q 12.296875 35.90625 20.1875 38.59375 
Q 28.09375 41.296875 30.890625 42.75 
Q 33.703125 44.203125 34.140625 44.203125 
Q 34.59375 44.203125 34.59375 44 
Q 34.59375 43.5 31.4375 40.640625 
Q 28.296875 37.796875 22.59375 31.796875 
Q 16.90625 25.796875 15.703125 24 
Q 14.5 22.203125 14.140625 22.203125 
Q 13.796875 22.203125 13.5 22.5 
Q 13.203125 22.796875 10.59375 26.75 
Q 8 30.703125 6.40625 34.5 
z
" id="STSongti-SC-Black-29575"/>
      <path d="M 75.296875 71.5 
L 13.40625 -14.59375 
L 8.09375 -10.5 
L 69.796875 75.296875 
z
M 28.703125 74.40625 
Q 31.5 74.40625 34.09375 72.90625 
Q 36.703125 71.40625 38.703125 68.75 
Q 40.703125 66.09375 41.890625 62.4375 
Q 43.09375 58.796875 43.09375 54.40625 
Q 43.09375 50 42 46.296875 
Q 40.90625 42.59375 39 39.84375 
Q 37.09375 37.09375 34.390625 35.546875 
Q 31.703125 34 28.59375 34 
Q 25.40625 34 22.75 35.5 
Q 20.09375 37 18.1875 39.703125 
Q 16.296875 42.40625 15.1875 46.09375 
Q 14.09375 49.796875 14.09375 54.296875 
Q 14.09375 58.796875 15.25 62.546875 
Q 16.40625 66.296875 18.40625 68.890625 
Q 20.40625 71.5 23.046875 72.953125 
Q 25.703125 74.40625 28.703125 74.40625 
z
M 33.59375 47.5 
Q 33.59375 52.90625 33.59375 57.453125 
Q 33.59375 62 33.1875 65.296875 
Q 32.796875 68.59375 31.75 70.4375 
Q 30.703125 72.296875 28.5 72.296875 
Q 26.796875 72.296875 25.796875 71.4375 
Q 24.796875 70.59375 24.296875 68.6875 
Q 23.796875 66.796875 23.640625 63.75 
Q 23.5 60.703125 23.5 56.296875 
Q 23.5 51.296875 23.59375 47.5 
Q 23.703125 43.703125 24.140625 41.140625 
Q 24.59375 38.59375 25.59375 37.25 
Q 26.59375 35.90625 28.5 35.90625 
Q 33.59375 35.90625 33.59375 47.5 
z
M 54.296875 27.40625 
Q 57 27.40625 59.546875 25.90625 
Q 62.09375 24.40625 64 21.75 
Q 65.90625 19.09375 67.046875 15.390625 
Q 68.203125 11.703125 68.203125 7.296875 
Q 68.203125 2.90625 67.140625 -0.796875 
Q 66.09375 -4.5 64.25 -7.203125 
Q 62.40625 -9.90625 59.90625 -11.453125 
Q 57.40625 -13 54.5 -13 
Q 51.59375 -13 49.046875 -11.5 
Q 46.5 -10 44.640625 -7.34375 
Q 42.796875 -4.703125 41.6875 -0.953125 
Q 40.59375 2.796875 40.59375 7.296875 
Q 40.59375 11.796875 41.6875 15.546875 
Q 42.796875 19.296875 44.640625 21.890625 
Q 46.5 24.5 49 25.953125 
Q 51.5 27.40625 54.296875 27.40625 
z
M 59 0.5 
Q 59 5.90625 59 10.453125 
Q 59 15 58.640625 18.296875 
Q 58.296875 21.59375 57.296875 23.4375 
Q 56.296875 25.296875 54.296875 25.296875 
Q 52.796875 25.296875 51.890625 24.546875 
Q 51 23.796875 50.546875 21.9375 
Q 50.09375 20.09375 49.9375 17 
Q 49.796875 13.90625 49.796875 9.296875 
Q 49.796875 4 49.84375 0.203125 
Q 49.90625 -3.59375 50.34375 -6.09375 
Q 50.796875 -8.59375 51.6875 -9.75 
Q 52.59375 -10.90625 54.40625 -10.90625 
Q 59 -10.90625 59 0.5 
z
" id="STSongti-SC-Black-37"/>
     </defs>
     <g transform="translate(60.58125 67.779687)scale(0.1 -0.1)">
      <use xlink:href="#STSongti-SC-Black-27515"/>
      <use x="99.999985" xlink:href="#STSongti-SC-Black-20129"/>
      <use x="199.999969" xlink:href="#STSongti-SC-Black-29575"/>
      <use x="299.999954" xlink:href="#STSongti-SC-Black-37"/>
     </g>
    </g>
    <g id="line2d_33">
     <path d="M 32.58125 79.11875 
L 52.58125 79.11875 
" style="fill:none;stroke:#ff7f0e;stroke-linecap:square;stroke-width:1.5;"/>
    </g>
    <g id="line2d_34">
     <g>
      <use style="fill:#ff7f0e;stroke:#ff7f0e;stroke-linejoin:bevel;" x="42.58125" xlink:href="#m3deddd71be" y="79.11875"/>
     </g>
    </g>
    <g id="text_23">
     <!-- 治愈率% -->
     <defs>
      <path d="M 80.703125 46.09375 
Q 61.5 42.09375 54.59375 40.390625 
Q 47.703125 38.703125 41.703125 36.703125 
Q 41.203125 36.5 40.75 36.5 
Q 40.296875 36.5 39.796875 37.25 
Q 39.296875 38 37.6875 43.046875 
Q 36.09375 48.09375 36.09375 49.25 
Q 36.09375 50.40625 37.5 50.40625 
Q 41.09375 50.5 43.140625 52.390625 
Q 45.203125 54.296875 48.890625 59.4375 
Q 52.59375 64.59375 54.6875 69.75 
Q 56.796875 74.90625 58.796875 82.90625 
Q 66.09375 80.59375 71 78.6875 
Q 75.90625 76.796875 76.59375 76.1875 
Q 77.296875 75.59375 77.296875 75.09375 
Q 77.296875 74.203125 75 73.703125 
Q 73.90625 73.5 72.40625 72.546875 
Q 70.90625 71.59375 69.90625 70.40625 
Q 60.5 60.203125 47.203125 48.90625 
L 79.703125 49.5 
Q 77 56.40625 69.296875 63.40625 
Q 68.203125 64.40625 68.203125 64.703125 
Q 68.203125 65 68.59375 65 
Q 69.90625 65 78.75 61.203125 
Q 87.59375 57.40625 91.4375 52.75 
Q 95.296875 48.09375 95.296875 43.84375 
Q 95.296875 39.59375 93.09375 37.140625 
Q 90.90625 34.703125 87.40625 34.703125 
Q 81.203125 34.703125 81.203125 41.59375 
Q 81.203125 44.203125 80.703125 46.09375 
z
M 33.90625 64.59375 
Q 33.90625 61 31.40625 58.890625 
Q 28.90625 56.796875 26.40625 56.796875 
Q 21.296875 56.796875 20.703125 63.296875 
Q 20 71.703125 14.203125 75 
Q 13.203125 75.59375 13.203125 75.9375 
Q 13.203125 76.296875 14.296875 76.296875 
Q 23.296875 76.296875 28.59375 73.09375 
Q 33.90625 69.90625 33.90625 64.59375 
z
M 41.296875 69.40625 
L 29.796875 32.296875 
Q 26.40625 21.5 26.40625 15.09375 
Q 26.40625 8.703125 27.546875 4.546875 
Q 28.703125 0.40625 28.703125 -1.59375 
Q 28.703125 -5.40625 26.453125 -7.703125 
Q 24.203125 -10 20.296875 -10 
Q 13.09375 -10 13.09375 -3.5 
Q 13.09375 -1.5 14.4375 3.25 
Q 15.796875 8 15.796875 11.953125 
Q 15.796875 15.90625 13.84375 18.046875 
Q 11.90625 20.203125 7.40625 21.296875 
Q 6.40625 21.5 6.40625 22.046875 
Q 6.40625 22.59375 7.84375 22.5 
Q 9.296875 22.40625 10.59375 22.40625 
Q 15.796875 22.40625 18.640625 25.296875 
Q 21.5 28.203125 25.703125 37.5 
L 40.203125 69.796875 
Q 40.703125 70.796875 41.09375 70.796875 
Q 41.5 70.796875 41.5 70.34375 
Q 41.5 69.90625 41.296875 69.40625 
z
M 23.5 43.796875 
Q 23.5 39.90625 21.25 37.953125 
Q 19 36 16.84375 36 
Q 14.703125 36 13.296875 36.953125 
Q 11.90625 37.90625 11.296875 39.09375 
Q 10.703125 40.296875 10.703125 42.5 
Q 10.703125 46.5 9.390625 49.09375 
Q 8.09375 51.703125 5 53.5 
Q 3.90625 54.203125 3.90625 54.546875 
Q 3.90625 54.90625 5.203125 54.90625 
Q 13 54.90625 18.25 52.09375 
Q 23.5 49.296875 23.5 43.796875 
z
M 54.40625 27.40625 
L 72.09375 27.40625 
Q 73.59375 30.203125 74.84375 32 
Q 76.09375 33.796875 76.6875 33.796875 
Q 77.296875 33.796875 79.84375 32.4375 
Q 82.40625 31.09375 85.59375 29 
Q 88.796875 26.90625 89.546875 26.15625 
Q 90.296875 25.40625 90.296875 24.703125 
Q 90.296875 23.203125 87 21.796875 
L 87 -1.796875 
Q 87 -3.5 87.09375 -4.796875 
L 87.296875 -7 
Q 87.296875 -7.59375 87 -7.890625 
Q 86.703125 -8.203125 84.890625 -8.890625 
Q 83.09375 -9.59375 80 -9.9375 
Q 76.90625 -10.296875 75.203125 -10.296875 
Q 74.09375 -10.296875 74.09375 -8.796875 
L 74.09375 -1.09375 
L 52.796875 -1.09375 
L 52.796875 -7.203125 
Q 52.796875 -8 52 -8.546875 
Q 51.203125 -9.09375 47.546875 -9.796875 
Q 43.90625 -10.5 40.296875 -10.5 
Q 39.796875 -10.5 39.796875 -9.5 
L 39.90625 -6.296875 
Q 40 -4.796875 40 -2.09375 
L 40 23.90625 
Q 40 26.90625 39.796875 32.40625 
Q 50.5 29.203125 54.40625 27.40625 
z
M 74.09375 2.203125 
L 74.09375 24.09375 
L 54.40625 24.09375 
Q 53.796875 23.5 52.796875 23.203125 
L 52.796875 2.203125 
z
" id="STSongti-SC-Black-27835"/>
      <path d="M 17.296875 49.5 
Q 4.796875 44.09375 3.703125 44.09375 
Q 3.296875 44.09375 3.296875 44.390625 
Q 3.296875 44.703125 4.5 45.5 
Q 18.40625 54.796875 28.34375 64.640625 
Q 38.296875 74.5 42.40625 83 
Q 48.90625 81.5 52.84375 80.34375 
Q 56.796875 79.203125 57.5 78.75 
Q 58.203125 78.296875 58.203125 77.546875 
Q 58.203125 76.796875 54.5 75.90625 
Q 61.796875 70.09375 73.1875 66.34375 
Q 84.59375 62.59375 97.5 61.5 
Q 99.703125 61.296875 99.703125 60.796875 
Q 99.703125 60.296875 97.890625 59.4375 
Q 96.09375 58.59375 94.296875 56.046875 
Q 92.5 53.5 91.90625 50.796875 
Q 91.5 48.796875 90.40625 48.796875 
Q 89.09375 48.796875 82.796875 51.296875 
L 82.796875 27.09375 
Q 82.796875 21.09375 80.75 19.5 
Q 78.703125 17.90625 74.296875 16.90625 
Q 86.703125 13.5 90.84375 9.203125 
Q 95 4.90625 95 0.5 
Q 95 -2.296875 93.046875 -4.1875 
Q 91.09375 -6.09375 88.09375 -6.09375 
Q 82.90625 -6.09375 82.5 0.203125 
Q 81.703125 10.09375 73.40625 16.703125 
Q 72.40625 16.40625 71.59375 16.40625 
Q 69.40625 16.40625 69.15625 19.09375 
Q 68.90625 21.796875 67.796875 23.1875 
Q 66.703125 24.59375 63.203125 25.59375 
Q 61.796875 26 61.796875 26.296875 
Q 61.796875 26.59375 63.296875 26.703125 
Q 69.203125 27 70.546875 27.640625 
Q 71.90625 28.296875 71.90625 30.59375 
L 71.90625 56.296875 
Q 68.203125 58.296875 64 61.5 
Q 64.5 60.796875 64.5 60.09375 
Q 64.5 58.59375 63 58.59375 
L 33.703125 58.59375 
Q 30.703125 56.59375 26.203125 54 
Q 28.09375 53.5 29.296875 53 
L 39.203125 53 
Q 40.40625 55.40625 41.09375 56.34375 
Q 41.796875 57.296875 42.40625 57.296875 
Q 43.59375 57.296875 48.75 54.390625 
Q 53.90625 51.5 53.90625 50.203125 
Q 53.90625 49.296875 51.203125 48.09375 
L 51.203125 27.5 
Q 51.203125 23.5 50.09375 21.5 
Q 54.90625 20.296875 57.59375 17.890625 
Q 60.296875 15.5 60.296875 12.703125 
Q 60.296875 9.90625 58.1875 7.796875 
Q 56.09375 5.703125 53.546875 5.703125 
Q 51 5.703125 50 6.390625 
Q 49 7.09375 48.796875 8.140625 
Q 48.59375 9.203125 48.59375 13.09375 
Q 48.59375 17 47 19 
Q 43.90625 17.796875 40.5 17.796875 
Q 38.09375 17.796875 38.09375 20.1875 
Q 38.09375 22.59375 36.84375 23.890625 
Q 35.59375 25.203125 33.296875 25.953125 
Q 31 26.703125 31 27 
Q 31 27.296875 34.640625 27.296875 
Q 38.296875 27.296875 39.59375 27.890625 
Q 40.90625 28.5 40.90625 30.09375 
L 40.90625 33.5 
L 28.703125 33.5 
L 28.703125 22.296875 
Q 28.703125 17.59375 20.703125 17.59375 
Q 18.296875 17.59375 17.59375 17.9375 
Q 16.90625 18.296875 16.90625 19.1875 
Q 16.90625 20.09375 17.09375 23.09375 
Q 17.296875 26.09375 17.296875 31.5 
z
M 52.796875 74.40625 
Q 45.296875 66.90625 38.40625 61.90625 
L 51 61.90625 
Q 52.796875 65.296875 53.640625 66.640625 
Q 54.5 68 54.796875 68 
Q 55.59375 68 60.90625 64.09375 
Q 56.09375 68.5 52.796875 74.40625 
z
M 28.703125 44.90625 
L 40.90625 44.90625 
L 40.90625 49.703125 
L 29.59375 49.703125 
Q 29.40625 49.09375 28.703125 48.796875 
z
M 40.90625 41.59375 
L 28.703125 41.59375 
L 28.703125 36.796875 
L 40.90625 36.796875 
z
M 56.203125 53.5 
Q 61.09375 53.5 64.390625 52.953125 
Q 67.703125 52.40625 67.703125 51.5 
Q 67.703125 50.59375 65.90625 49.796875 
L 65.90625 36 
L 66.09375 31.203125 
Q 66.09375 30.203125 65.59375 29.703125 
Q 65.09375 29.203125 62.890625 28.546875 
Q 60.703125 27.90625 58.5 27.90625 
Q 56.296875 27.90625 56.296875 30 
L 56.40625 35.796875 
L 56.40625 45.59375 
Q 56.40625 50 56.203125 53.5 
z
M 38.296875 11.796875 
L 38.296875 5.09375 
Q 38.296875 2.09375 40.59375 1.09375 
Q 42.90625 0.09375 50.40625 0.09375 
Q 55 0.09375 59 0.640625 
Q 63 1.203125 64.546875 5 
Q 66.09375 8.796875 67.09375 14.59375 
Q 67.296875 16 67.84375 16 
Q 68.40625 16 68.40625 14.40625 
L 68.40625 12.703125 
Q 68.40625 8.40625 69.5 5.953125 
Q 70.59375 3.5 73.1875 1.953125 
Q 75.796875 0.40625 75.796875 -1.90625 
Q 75.796875 -5.203125 71.046875 -7.59375 
Q 66.296875 -10 50.59375 -10 
Q 39.296875 -10 35.1875 -9.09375 
Q 31.09375 -8.203125 29.546875 -5.59375 
Q 28 -3 28 2.203125 
L 28 8.203125 
Q 28 12.296875 27.703125 16.40625 
Q 35 15.703125 37.09375 15.453125 
Q 39.203125 15.203125 39.890625 14.75 
Q 40.59375 14.296875 40.59375 13.796875 
Q 40.59375 12.703125 38.296875 11.796875 
z
M 17.40625 15.796875 
Q 18.09375 15.796875 19.796875 11.546875 
Q 21.5 7.296875 21.5 3.09375 
Q 21.5 -1.09375 18.953125 -3.75 
Q 16.40625 -6.40625 13.25 -6.40625 
Q 10.09375 -6.40625 8.390625 -4.703125 
Q 6.703125 -3 6.703125 -0.390625 
Q 6.703125 2.203125 10.296875 4.34375 
Q 13.90625 6.5 15.40625 8.640625 
Q 16.90625 10.796875 16.953125 13.296875 
Q 17 15.796875 17.40625 15.796875 
z
" id="STSongti-SC-Black-24840"/>
     </defs>
     <g transform="translate(60.58125 82.61875)scale(0.1 -0.1)">
      <use xlink:href="#STSongti-SC-Black-27835"/>
      <use x="99.999985" xlink:href="#STSongti-SC-Black-24840"/>
      <use x="199.999969" xlink:href="#STSongti-SC-Black-29575"/>
      <use x="299.999954" xlink:href="#STSongti-SC-Black-37"/>
     </g>
    </g>
   </g>
  </g>
  <g id="text_24">
   <!-- 全国增死亡治愈率%（除湖北省） -->
   <defs>
    <path d="M 53.296875 72 
Q 45.796875 59.5 37.140625 52.546875 
Q 28.5 45.59375 17.140625 41.046875 
Q 5.796875 36.5 4.40625 36.5 
Q 3.90625 36.5 3.90625 36.84375 
Q 3.90625 37.203125 5.203125 38 
Q 33.296875 55.703125 40.59375 81.90625 
Q 47.90625 80.5 52.5 79.296875 
Q 57.09375 78.09375 57.75 77.59375 
Q 58.40625 77.09375 58.40625 76.34375 
Q 58.40625 75.59375 57.203125 74.890625 
Q 56 74.203125 55.296875 73.703125 
Q 60.203125 66.09375 69.703125 60.34375 
Q 79.203125 54.59375 99 51.09375 
Q 100 50.90625 100 50.59375 
Q 100 50.296875 97.796875 48.890625 
Q 95.59375 47.5 93.546875 45 
Q 91.5 42.5 90.203125 38.796875 
Q 89.703125 37.59375 89 37.59375 
Q 87.5 37.59375 79.09375 41.9375 
Q 70.703125 46.296875 63.703125 53.796875 
Q 56.703125 61.296875 53.296875 72 
z
M 43.90625 38.703125 
L 28.296875 38.703125 
Q 26.296875 38.703125 24.703125 37.59375 
L 22.09375 42.296875 
Q 24.5 42 27.09375 42 
L 58.703125 42 
Q 62.59375 48.59375 63.140625 49.140625 
Q 63.703125 49.703125 64.203125 49.703125 
Q 64.703125 49.703125 66.75 48.25 
Q 68.796875 46.796875 72.046875 44.25 
Q 75.296875 41.703125 75.9375 40.890625 
Q 76.59375 40.09375 76.59375 39.703125 
Q 76.59375 38.703125 74.703125 38.703125 
L 58.5 38.703125 
Q 58 37.40625 56.5 37 
L 56.5 21.09375 
L 67.09375 21.09375 
Q 70.40625 27.203125 71.046875 28.203125 
Q 71.703125 29.203125 72.296875 29.203125 
Q 73.703125 29.203125 79.703125 24.640625 
Q 85.703125 20.09375 85.703125 18.703125 
Q 85.703125 17.796875 83.90625 17.796875 
L 56.5 17.796875 
L 56.5 -2.703125 
L 76.40625 -2.703125 
Q 80.5 5 81.046875 5.953125 
Q 81.59375 6.90625 82.296875 6.90625 
Q 83.59375 6.90625 90.1875 1.453125 
Q 96.796875 -4 96.796875 -5 
Q 96.796875 -6 94.796875 -6 
L 14.296875 -6 
Q 12.296875 -6 10.703125 -7.09375 
L 8.09375 -2.40625 
Q 10.5 -2.703125 13.09375 -2.703125 
L 43.90625 -2.703125 
L 43.90625 17.796875 
L 22.703125 17.796875 
Q 20.703125 17.796875 19.09375 16.703125 
L 16.5 21.40625 
Q 18.90625 21.09375 21.5 21.09375 
L 43.90625 21.09375 
z
" id="STSongti-SC-Black-20840"/>
    <path d="M 21.296875 74.5 
L 75.203125 74.5 
Q 76.5 77.40625 77.453125 79.046875 
Q 78.40625 80.703125 78.75 81 
Q 79.09375 81.296875 79.59375 81.296875 
Q 80.40625 81.296875 85.65625 78.296875 
Q 90.90625 75.296875 92.296875 74.046875 
Q 93.703125 72.796875 93.703125 71.796875 
Q 93.703125 70.796875 90.90625 69.59375 
L 90.90625 3.90625 
Q 90.90625 -0.796875 91 -2.59375 
L 91.09375 -6 
Q 91.09375 -6.90625 90.390625 -7.40625 
Q 89.703125 -7.90625 85.640625 -8.65625 
Q 81.59375 -9.40625 79.5 -9.40625 
Q 78.59375 -9.40625 78.59375 -7.703125 
L 78.59375 -1.40625 
L 20.90625 -1.40625 
L 20.90625 -6.5 
Q 20.90625 -7 20.75 -7.546875 
Q 20.59375 -8.09375 18.140625 -8.84375 
Q 15.703125 -9.59375 12.59375 -10.25 
Q 9.5 -10.90625 8.953125 -10.90625 
Q 8.40625 -10.90625 8.40625 -10.09375 
L 8.59375 -5.40625 
Q 8.796875 -0.5 8.796875 3.5 
L 8.796875 70.09375 
Q 8.796875 75.296875 8.59375 79.296875 
Q 16.40625 76.90625 21.296875 74.5 
z
M 41.796875 56.796875 
L 30.5 56.796875 
Q 28.5 56.796875 26.90625 55.703125 
L 24.296875 60.40625 
Q 26.703125 60.09375 29.296875 60.09375 
L 59.40625 60.09375 
Q 61.5 63.90625 62.640625 65.34375 
Q 63.796875 66.796875 64.5 66.796875 
Q 65.59375 66.796875 70.25 62.84375 
Q 74.90625 58.90625 74.90625 57.84375 
Q 74.90625 56.796875 73.09375 56.796875 
L 55.296875 56.796875 
Q 54.703125 55.703125 53.296875 55.203125 
L 53.296875 40.90625 
L 58.796875 40.90625 
Q 61.90625 46.09375 62.40625 46.796875 
Q 62.90625 47.5 63.59375 47.5 
Q 65.09375 47.5 69.84375 43.59375 
Q 74.59375 39.703125 74.59375 38.640625 
Q 74.59375 37.59375 72.796875 37.59375 
L 53.296875 37.59375 
L 53.296875 15.09375 
L 63.59375 15.09375 
L 65.59375 18.703125 
Q 59.59375 18.203125 59.296875 23.90625 
Q 59.203125 27.59375 58.046875 30.1875 
Q 56.90625 32.796875 55.796875 33 
Q 54.703125 33.203125 54.703125 33.59375 
Q 54.703125 34 56.5 34 
Q 58.296875 34 62.25 33 
Q 66.203125 32 67.84375 30.84375 
Q 69.5 29.703125 70 28.390625 
Q 70.5 27.09375 70.5 24.796875 
Q 70.5 22.5 69.40625 21 
Q 75 17.5 78.59375 14 
L 78.59375 71.203125 
L 22.40625 71.203125 
Q 22.296875 70.40625 20.90625 69.796875 
L 20.90625 1.90625 
L 78.59375 1.90625 
L 78.59375 11.796875 
L 27.59375 11.796875 
Q 25.59375 11.796875 24 10.703125 
L 21.40625 15.40625 
Q 23.796875 15.09375 26.40625 15.09375 
L 41.796875 15.09375 
L 41.796875 37.59375 
L 31.09375 37.59375 
Q 29.09375 37.59375 27.5 36.5 
L 24.90625 41.203125 
Q 27.296875 40.90625 29.90625 40.90625 
L 41.796875 40.90625 
z
" id="STSongti-SC-Black-22269"/>
    <path d="M 15.203125 47.09375 
L 7.296875 47.09375 
Q 5.296875 47.09375 3.703125 46 
L 1.09375 50.703125 
Q 3.5 50.40625 6.09375 50.40625 
L 15.203125 50.40625 
L 15.203125 70.09375 
Q 15.203125 75.09375 15 79 
Q 24.40625 78.296875 26.59375 77.546875 
Q 28.796875 76.796875 28.796875 75.796875 
Q 28.796875 74.703125 26.5 73.703125 
L 26.5 50.59375 
Q 28.296875 54.09375 29.140625 55.25 
Q 30 56.40625 30.703125 56.40625 
Q 32.40625 56.40625 37.203125 51.40625 
L 37.203125 58.40625 
Q 37.203125 62.90625 36.90625 67.296875 
Q 42.703125 65.90625 48.796875 63 
L 52.59375 63 
Q 49.59375 64.203125 49.203125 69.09375 
Q 48.703125 76.203125 43.40625 79.40625 
Q 42.09375 80.203125 42.09375 80.640625 
Q 42.09375 81.09375 43.203125 81.09375 
Q 45.59375 81.09375 51.296875 79.75 
Q 57 78.40625 59.390625 76.296875 
Q 61.796875 74.203125 61.796875 71.390625 
Q 61.796875 68.59375 60.140625 66.25 
Q 58.5 63.90625 56.09375 63 
L 68.40625 63 
Q 71.59375 71.203125 74.703125 83.09375 
Q 80.5 80.703125 84.703125 78.640625 
Q 88.90625 76.59375 89.453125 76.140625 
Q 90 75.703125 90 75.296875 
Q 90 74.296875 88.296875 73.90625 
Q 83.5 72.703125 74 63 
L 80.5 63 
Q 83.5 68 85.09375 68 
Q 85.796875 68 87.9375 66.59375 
Q 90.09375 65.203125 92.75 63.296875 
Q 95.40625 61.40625 96.09375 60.59375 
Q 96.796875 59.796875 96.796875 59.046875 
Q 96.796875 58.296875 93.59375 57.203125 
L 93.59375 44.40625 
L 93.796875 35.09375 
Q 93.796875 33.203125 90.9375 32.34375 
Q 88.09375 31.5 85.4375 31.5 
Q 82.796875 31.5 82.140625 31.59375 
Q 81.5 31.703125 81.5 33.40625 
L 48.09375 33.40625 
Q 48.09375 32.203125 47.59375 31.703125 
Q 47.09375 31.203125 45 30.796875 
Q 42.90625 30.40625 40.40625 30.40625 
Q 37.90625 30.40625 37.34375 30.453125 
Q 36.796875 30.5 36.796875 31.203125 
L 37 35.703125 
Q 37.203125 38.703125 37.203125 41.40625 
L 37.203125 47.09375 
L 26.5 47.09375 
L 26.5 22.40625 
Q 34.703125 24.203125 37.34375 24.890625 
Q 40 25.59375 40.75 25.59375 
Q 41.5 25.59375 41.5 25.25 
Q 41.5 24.90625 39.90625 23.90625 
Q 25.5 15.203125 11.09375 4.59375 
Q 10.203125 4 9.796875 4 
Q 9.40625 4 9.15625 4.34375 
Q 8.90625 4.703125 7.046875 9.203125 
Q 5.203125 13.703125 3.59375 18 
L 15.203125 20.09375 
z
M 59.59375 59.703125 
L 49.796875 59.703125 
Q 49.40625 58.796875 48.09375 58.40625 
L 48.09375 56.296875 
Q 53.796875 54.09375 56.546875 51.75 
Q 59.296875 49.40625 59.296875 46.59375 
Q 59.296875 43.796875 57.546875 42.046875 
Q 55.796875 40.296875 54.140625 40.296875 
Q 52.5 40.296875 51.640625 40.796875 
Q 50.796875 41.296875 50.390625 42.1875 
Q 50 43.09375 50 44.296875 
L 50 46.59375 
Q 50 50.796875 48.09375 53.296875 
L 48.09375 36.703125 
L 59.703125 36.703125 
L 59.703125 53.796875 
Q 59.703125 58.59375 59.59375 59.703125 
z
M 81.5 54 
L 81.5 59.703125 
L 71.90625 59.703125 
Q 71.296875 58.703125 70.203125 58 
L 70.203125 43.703125 
Q 72.90625 50.90625 74.703125 57.5 
Q 79.296875 55.296875 81.5 54 
z
M 81.5 36.703125 
L 81.5 49 
Q 79.59375 47.796875 70.203125 39.796875 
L 70.203125 36.703125 
z
M 56.203125 25.59375 
L 72.90625 25.59375 
Q 73.40625 26.59375 74.84375 28.84375 
Q 76.296875 31.09375 76.5 31.296875 
Q 76.703125 31.5 77 31.5 
Q 77.90625 31.5 82.15625 29.453125 
Q 86.40625 27.40625 88.40625 26.046875 
Q 90.40625 24.703125 90.40625 23.90625 
Q 90.40625 22.59375 87.59375 21.703125 
L 87.59375 2.796875 
L 87.90625 -5.796875 
Q 87.90625 -7.203125 87.15625 -7.953125 
Q 86.40625 -8.703125 83.75 -9.453125 
Q 81.09375 -10.203125 78.640625 -10.203125 
Q 76.203125 -10.203125 75.640625 -9.59375 
Q 75.09375 -9 75.09375 -6.796875 
L 75.09375 -4 
L 55.796875 -4 
L 55.796875 -7.296875 
Q 55.796875 -8.203125 54.84375 -8.84375 
Q 53.90625 -9.5 51.34375 -9.953125 
Q 48.796875 -10.40625 46.1875 -10.40625 
Q 43.59375 -10.40625 43.25 -10.296875 
Q 42.90625 -10.203125 42.90625 -9.59375 
L 43.09375 -5.203125 
Q 43.296875 -2.203125 43.296875 0.296875 
L 43.296875 20.796875 
Q 43.296875 25.203125 43 29.5 
Q 50.796875 27.796875 56.203125 25.59375 
z
M 55.796875 12.5 
L 75.09375 12.5 
L 75.09375 22.296875 
L 57.5 22.296875 
Q 57.09375 21.296875 55.796875 20.90625 
z
M 75.09375 9.203125 
L 55.796875 9.203125 
L 55.796875 -0.703125 
L 75.09375 -0.703125 
z
" id="STSongti-SC-Black-22686"/>
    <path d="M 94.59375 -8.796875 
Q 81.5 -1.09375 75.046875 9.75 
Q 68.59375 20.59375 68.59375 35.9375 
Q 68.59375 51.296875 75.25 62.84375 
Q 81.90625 74.40625 94.59375 80.796875 
L 94.59375 77.90625 
Q 87.203125 73.203125 83.546875 65.59375 
Q 79.90625 58 79.90625 37.640625 
Q 79.90625 17.296875 83.15625 8.6875 
Q 86.40625 0.09375 94.59375 -5.90625 
z
" id="STSongti-SC-Black-65288"/>
    <path d="M 66.40625 74.5 
Q 58.703125 62.59375 51.640625 55.59375 
Q 44.59375 48.59375 34.203125 42.296875 
Q 37.296875 38.90625 38.296875 32.203125 
L 55.5 32.203125 
L 55.5 43.796875 
L 48.59375 43.796875 
Q 46.59375 43.796875 45 42.703125 
L 42.40625 47.40625 
Q 44.796875 47.09375 47.40625 47.09375 
L 67.09375 47.09375 
Q 68.296875 49.5 69.34375 50.953125 
Q 70.40625 52.40625 71.40625 52.40625 
Q 72.703125 52.40625 76.546875 49.15625 
Q 80.40625 45.90625 80.40625 44.84375 
Q 80.40625 43.796875 78.09375 43.796875 
L 69.203125 43.796875 
Q 68.796875 43.203125 67.09375 42.296875 
L 67.09375 32.203125 
L 75.5 32.203125 
Q 79.296875 39.796875 80.59375 39.796875 
Q 81.90625 39.796875 86.703125 35.9375 
Q 91.5 32.09375 91.5 30.296875 
Q 91.5 28.90625 88.203125 28.90625 
L 67.09375 28.90625 
L 67.09375 23.296875 
Q 79.40625 20.796875 86 15.75 
Q 92.59375 10.703125 92.59375 5.5 
Q 92.59375 2.5 90.59375 0.296875 
Q 88.59375 -1.90625 85.890625 -1.90625 
Q 83.203125 -1.90625 81.59375 -0.40625 
Q 80 1.09375 79.703125 3.90625 
Q 79.203125 8.796875 75.84375 13.390625 
Q 72.5 18 67.09375 21.40625 
L 67.09375 0.40625 
Q 67.09375 -4.296875 65.5 -6.640625 
Q 63.90625 -9 60 -10.046875 
Q 56.09375 -11.09375 53.09375 -11.09375 
Q 50.703125 -11.09375 50.5 -8.796875 
Q 50.09375 -5.40625 48.5 -3.84375 
Q 46.90625 -2.296875 43.296875 -1.09375 
Q 39.703125 0.09375 39.703125 0.34375 
Q 39.703125 0.59375 41 0.59375 
L 45.796875 0.5 
Q 50.703125 0.5 53.09375 1.5 
Q 55.5 2.5 55.5 4.703125 
L 55.5 28.90625 
L 38.59375 28.90625 
Q 38.59375 22.5 34.09375 18.296875 
Q 29.59375 14.09375 25.5 14.09375 
Q 23.296875 14.09375 23.203125 16 
Q 22.90625 21.40625 17.203125 23.203125 
L 17.203125 -5.59375 
Q 17.203125 -7 16.59375 -7.640625 
Q 16 -8.296875 13.5 -9.140625 
Q 11 -10 8.09375 -10 
Q 6.203125 -10 6.203125 -8.5 
Q 6.203125 -8.203125 6.34375 -5 
Q 6.5 -1.796875 6.5 4.40625 
L 6.5 70.59375 
Q 6.5 77.796875 6.09375 81.09375 
Q 12.40625 79.203125 18.296875 76.40625 
L 27.09375 76.40625 
Q 28 78.703125 28.75 79.75 
Q 29.5 80.796875 30.5 80.796875 
Q 31.5 80.796875 35.203125 78.296875 
L 41.5 74.09375 
Q 44 72.5 44 71.09375 
Q 44 69.296875 40.296875 69.203125 
Q 38.296875 69.203125 32.9375 61.890625 
Q 27.59375 54.59375 24.203125 48.90625 
Q 29.59375 46.5 32.40625 44.09375 
Q 40.703125 51.09375 46.703125 61.6875 
Q 52.703125 72.296875 54.90625 83.703125 
Q 59.796875 82.90625 64.75 81.59375 
Q 69.703125 80.296875 70.640625 79.6875 
Q 71.59375 79.09375 71.59375 78.25 
Q 71.59375 77.40625 68.5 76.40625 
Q 72.09375 68.09375 78.84375 62.4375 
Q 85.59375 56.796875 97.5 53.09375 
Q 98.703125 52.703125 98.703125 52.34375 
Q 98.703125 52 96.453125 51 
Q 94.203125 50 91.84375 47.546875 
Q 89.5 45.09375 88.40625 42.203125 
Q 88.09375 41.40625 87.5 41.40625 
Q 85.796875 41.40625 77.34375 49.75 
Q 68.90625 58.09375 66.40625 74.5 
z
M 17.203125 24.90625 
Q 28 24.59375 28 33.40625 
Q 28 41.703125 21.40625 48.59375 
Q 25.703125 64.5 27.203125 73.09375 
L 19 73.09375 
Q 18.296875 72.09375 17.203125 71.796875 
z
M 41 25.90625 
Q 45.703125 24.40625 49.84375 22.84375 
Q 54 21.296875 54.5 20.890625 
Q 55 20.5 55 20 
Q 55 19 53.046875 18.75 
Q 51.09375 18.5 49.40625 16.296875 
Q 42.5 7.40625 34.09375 1.84375 
Q 25.703125 -3.703125 24.59375 -3.703125 
Q 24.296875 -3.703125 24.296875 -3.5 
Q 24.296875 -3 25.59375 -1.703125 
Q 31.09375 3.90625 34.6875 10.296875 
Q 38.296875 16.703125 41 25.90625 
z
" id="STSongti-SC-Black-38500"/>
    <path d="M 40.5 56.59375 
L 30 56.59375 
L 25.5 33.796875 
Q 23.59375 24.59375 23.59375 20.75 
Q 23.59375 16.90625 25.90625 5.59375 
Q 26.296875 3.796875 26.296875 2.203125 
Q 26.296875 -1.90625 24.140625 -4.25 
Q 22 -6.59375 18.640625 -6.59375 
Q 15.296875 -6.59375 13.5 -4.75 
Q 11.703125 -2.90625 11.703125 0.046875 
Q 11.703125 3 13.390625 7.140625 
Q 15.09375 11.296875 15.09375 14.796875 
Q 15.09375 21.703125 6.59375 24.09375 
Q 5.59375 24.40625 5.59375 24.796875 
Q 5.59375 25.203125 6.9375 25.09375 
Q 8.296875 25 8.40625 25 
Q 13.59375 25 16.796875 29 
Q 20 33 22.59375 41.796875 
L 31.703125 72.203125 
Q 32 73.296875 32.703125 73.296875 
Q 33.40625 73.296875 33.09375 71.796875 
L 30.703125 59.90625 
L 40.5 59.90625 
L 40.5 73.09375 
Q 40.5 78.09375 40.296875 82 
Q 49.796875 81.09375 52.046875 80.34375 
Q 54.296875 79.59375 54.296875 78.546875 
Q 54.296875 77.5 51.796875 76.203125 
L 51.796875 59.90625 
L 52.40625 59.90625 
Q 54.203125 64.09375 55.046875 65.34375 
Q 55.90625 66.59375 56.59375 66.59375 
Q 57.59375 66.59375 60.59375 64.09375 
Q 63.59375 61.59375 65 60 
Q 65 71.703125 64.90625 77.90625 
Q 71.5 76.203125 77 73.5 
L 82.09375 73.5 
Q 84 77.296875 84.453125 77.75 
Q 84.90625 78.203125 85.75 78.203125 
Q 86.59375 78.203125 88.890625 77 
Q 91.203125 75.796875 93.75 74.09375 
Q 96.296875 72.40625 97.09375 71.65625 
Q 97.90625 70.90625 97.90625 70.40625 
Q 97.90625 68.796875 94.59375 67.703125 
L 94.59375 1.203125 
Q 94.59375 -1.703125 94 -3.5 
Q 93.40625 -5.296875 91.75 -6.546875 
Q 90.09375 -7.796875 86.390625 -8.890625 
Q 82.703125 -10 80.90625 -10 
Q 78.40625 -10 78.296875 -7.90625 
Q 78 -4 76.046875 -2.203125 
Q 74.09375 -0.40625 69 1.09375 
Q 67.296875 1.59375 67.296875 2.046875 
Q 67.296875 2.5 68.796875 2.5 
L 73.5 2.40625 
Q 78.296875 2.40625 80.59375 3.09375 
Q 82.90625 3.796875 82.90625 5.796875 
L 82.90625 27.40625 
L 74.5 27.40625 
Q 73.09375 13.90625 67.546875 6.5 
Q 62 -0.90625 52.390625 -5.703125 
Q 42.796875 -10.5 41.203125 -10.5 
Q 40.796875 -10.5 40.796875 -10.140625 
Q 40.796875 -9.796875 42.203125 -8.90625 
Q 52.796875 -2.40625 57.5 4.140625 
Q 62.203125 10.703125 63.59375 20.953125 
Q 65 31.203125 65 56.59375 
L 51.796875 56.59375 
L 51.796875 40.40625 
Q 53.09375 42.90625 54.140625 42.90625 
Q 55.203125 42.90625 57.703125 40.90625 
Q 60.203125 38.90625 61.796875 37.703125 
Q 63.40625 36.5 63.40625 35.25 
Q 63.40625 34 60.90625 33.203125 
L 60.90625 17 
Q 60.90625 15.296875 61 14 
L 61.203125 11.796875 
Q 61.203125 11 58.796875 9.75 
Q 56.40625 8.5 51.296875 8.5 
Q 50.5 8.5 50.25 8.796875 
Q 50 9.09375 50 10 
L 50 12.40625 
L 40.59375 12.40625 
L 40.59375 9.59375 
Q 40.59375 7.59375 39.9375 6.6875 
Q 39.296875 5.796875 37.046875 5.046875 
Q 34.796875 4.296875 32.203125 4.296875 
Q 30.59375 4.296875 30.09375 4.75 
Q 29.59375 5.203125 29.796875 7.5 
Q 30 9.796875 30 14 
L 30 32.703125 
Q 30 36.90625 29.703125 41.203125 
Q 34.796875 39.90625 39.5 38.203125 
L 40.5 38.203125 
z
M 75.796875 52.203125 
L 82.90625 52.203125 
L 82.90625 70.203125 
L 76.40625 70.203125 
Q 76.09375 69.703125 76.09375 68.09375 
z
M 82.90625 48.90625 
L 75.703125 48.90625 
Q 75.203125 35.296875 74.796875 30.703125 
L 82.90625 30.703125 
z
M 50 15.703125 
L 50 34.90625 
L 42.40625 34.90625 
Q 41.703125 34.203125 40.59375 33.796875 
L 40.59375 15.703125 
z
M 27.796875 69.5 
Q 27.796875 66.59375 25.546875 64.5 
Q 23.296875 62.40625 20.796875 62.40625 
Q 18.296875 62.40625 16.9375 63.75 
Q 15.59375 65.09375 15.546875 67.890625 
Q 15.5 70.703125 14.75 72.75 
Q 14 74.796875 10.203125 77.796875 
Q 9.40625 78.5 9.40625 78.796875 
Q 9.40625 79.09375 10.296875 79.09375 
Q 18.203125 79.09375 23 76.34375 
Q 27.796875 73.59375 27.796875 69.5 
z
M 22.09375 46.59375 
Q 22.09375 43.703125 20.25 41.75 
Q 18.40625 39.796875 16.15625 39.796875 
Q 13.90625 39.796875 12.5 41.09375 
Q 11.09375 42.40625 10.890625 45.59375 
Q 10.703125 48.796875 9.75 50.890625 
Q 8.796875 53 6.75 54.140625 
Q 4.703125 55.296875 4.703125 55.59375 
Q 4.703125 55.90625 5.59375 55.90625 
Q 12.203125 55.90625 17.140625 53.65625 
Q 22.09375 51.40625 22.09375 46.59375 
z
" id="STSongti-SC-Black-28246"/>
    <path d="M 65.09375 42.296875 
Q 72.5 49.296875 80.296875 65.203125 
Q 94.09375 56.5 94.09375 54.296875 
Q 94.09375 53.203125 91.5 52.703125 
Q 88.90625 52.203125 83.25 49.5 
Q 77.59375 46.796875 65.09375 40.203125 
L 65.09375 11.09375 
Q 65.09375 8 66.890625 6.546875 
Q 68.703125 5.09375 73.59375 5.09375 
Q 78.5 5.09375 80.890625 6.25 
Q 83.296875 7.40625 84.390625 10.796875 
Q 85.5 14.203125 86.90625 23.296875 
Q 87 24.296875 87.640625 24.296875 
Q 88.296875 24.296875 88.203125 23.296875 
Q 87.796875 19.40625 87.796875 16.203125 
Q 87.796875 13 88.9375 11.25 
Q 90.09375 9.5 93 7.890625 
Q 95.90625 6.296875 95.90625 3.890625 
Q 95.90625 1.5 93 -1.34375 
Q 90.09375 -4.203125 85.796875 -4.796875 
Q 81.5 -5.40625 72.453125 -5.40625 
Q 63.40625 -5.40625 59.703125 -4 
Q 56 -2.59375 54.546875 0.5 
Q 53.09375 3.59375 53.09375 9.90625 
L 53.09375 70.203125 
Q 53.09375 77 52.796875 81.40625 
Q 63.5 80.40625 65.5 79.703125 
Q 67.5 79 67.5 77.59375 
Q 67.5 76.203125 65.09375 75.09375 
z
M 31.5 47.59375 
L 13.203125 47.59375 
Q 11.203125 47.59375 9.59375 46.5 
L 7 51.203125 
Q 9.40625 50.90625 12 50.90625 
L 31.5 50.90625 
L 31.5 71.703125 
Q 31.5 76.703125 31.296875 80.59375 
Q 40.40625 79.703125 43.046875 78.796875 
Q 45.703125 77.90625 45.703125 76.84375 
Q 45.703125 75.796875 43.703125 74.59375 
L 43.703125 -3.796875 
Q 43.703125 -4.59375 43.5 -4.9375 
Q 43.296875 -5.296875 41.09375 -6.140625 
Q 38.90625 -7 35.546875 -7.59375 
Q 32.203125 -8.203125 31.640625 -8.203125 
Q 31.09375 -8.203125 31.09375 -7.40625 
L 31.296875 -2.703125 
Q 31.5 2.203125 31.5 6.203125 
L 31.5 17.5 
Q 25.5 12.5 22.09375 9.203125 
Q 18.703125 5.90625 14 0.5 
Q 13.296875 -0.296875 12.84375 -0.296875 
Q 12.40625 -0.296875 11.953125 0.296875 
Q 11.5 0.90625 9.09375 5.09375 
Q 6.703125 9.296875 5 13.703125 
Q 18 16.5 31.5 21.203125 
z
" id="STSongti-SC-Black-21271"/>
    <path d="M 56.203125 53.203125 
Q 52 51.703125 46.40625 51.703125 
Q 44.40625 51.703125 44.40625 54.296875 
L 44.59375 58.203125 
Q 44.703125 62.203125 44.703125 67.203125 
L 44.703125 72.90625 
Q 44.703125 77.5 44.5 82.40625 
Q 56.90625 81.796875 59 81 
Q 61.09375 80.203125 61.09375 79.046875 
Q 61.09375 77.90625 58.296875 77 
L 58.296875 66.40625 
Q 58.296875 60.796875 58.59375 55.203125 
Q 65 60.703125 69.40625 66.40625 
Q 76.203125 62.5 79.34375 60.25 
Q 82.5 58 82.5 56.796875 
Q 82.5 55.59375 80.40625 55.59375 
Q 79.40625 55.59375 78.046875 54.9375 
Q 76.703125 54.296875 73.203125 52 
Q 59.90625 43.296875 47.796875 37.703125 
L 70.59375 37.703125 
Q 72.90625 42.203125 73.453125 42.953125 
Q 74 43.703125 75.09375 43.703125 
Q 76.203125 43.703125 82.890625 40.34375 
Q 89.59375 37 89.59375 35.25 
Q 89.59375 33.5 85.796875 32.5 
L 85.796875 3.796875 
Q 85.796875 -0.796875 85.90625 -2.59375 
L 86 -6 
Q 86 -7.90625 82.75 -9 
Q 79.5 -10.09375 74.40625 -10.09375 
Q 73 -10.09375 72.703125 -9.59375 
Q 72.40625 -9.09375 72.40625 -7.796875 
L 72.40625 -3.90625 
L 38.09375 -3.90625 
L 38.09375 -7.59375 
Q 38.09375 -8.796875 37.796875 -9.25 
Q 37.5 -9.703125 36.046875 -10.5 
Q 34.59375 -11.296875 32.6875 -11.640625 
Q 30.796875 -12 28.59375 -12 
Q 26.40625 -12 26.046875 -11.59375 
Q 25.703125 -11.203125 25.703125 -10.203125 
L 25.90625 -6.203125 
Q 26.09375 -1.703125 26.09375 2.40625 
L 26.09375 29.5 
Q 20.796875 27.90625 13.59375 26.25 
Q 6.40625 24.59375 5.09375 24.59375 
Q 3.796875 24.59375 3.796875 25.25 
Q 3.796875 25.90625 5.796875 26.703125 
Q 17.40625 31 26.09375 35.203125 
Q 26.09375 39.203125 25.90625 43.703125 
Q 31.5 42.09375 36.09375 40.203125 
Q 47.703125 46.5 56.203125 53.203125 
z
M 40.09375 34.40625 
Q 39.40625 33.203125 38.09375 32.703125 
L 38.09375 26.09375 
L 72.40625 26.09375 
L 72.40625 34.40625 
z
M 72.40625 22.796875 
L 38.09375 22.796875 
L 38.09375 13.796875 
L 72.40625 13.796875 
z
M 72.40625 -0.59375 
L 72.40625 10.5 
L 38.09375 10.5 
L 38.09375 -0.59375 
z
M 69.296875 75.703125 
Q 81.40625 75.703125 89.703125 71.25 
Q 98 66.796875 98 61.09375 
Q 98 57.5 95.796875 55.203125 
Q 93.59375 52.90625 89.9375 52.90625 
Q 86.296875 52.90625 84.390625 57.84375 
Q 82.5 62.796875 78 67.25 
Q 73.5 71.703125 68.40625 73.5 
Q 65.90625 74.40625 65.90625 75.046875 
Q 65.90625 75.703125 69.296875 75.703125 
z
M 26.703125 74.90625 
Q 41.796875 69.203125 41.796875 66.796875 
Q 41.796875 65.796875 39.84375 65.34375 
Q 37.90625 64.90625 34 62 
Q 24.90625 55.296875 16.296875 50.640625 
Q 7.703125 46 6.296875 46 
Q 5.90625 46 5.90625 46.296875 
Q 5.90625 46.90625 8.40625 49.09375 
Q 20.296875 60 26.703125 74.90625 
z
" id="STSongti-SC-Black-30465"/>
    <path d="M 5.40625 80.796875 
Q 18.09375 74.40625 24.75 62.84375 
Q 31.40625 51.296875 31.40625 35.9375 
Q 31.40625 20.59375 24.953125 9.75 
Q 18.5 -1.09375 5.40625 -8.796875 
L 5.40625 -5.90625 
Q 13.59375 0.09375 16.84375 8.6875 
Q 20.09375 17.296875 20.09375 37.640625 
Q 20.09375 58 16.4375 65.59375 
Q 12.796875 73.203125 5.40625 77.90625 
z
" id="STSongti-SC-Black-65289"/>
   </defs>
   <g transform="translate(241.174531 22.283437)scale(0.18 -0.18)">
    <use xlink:href="#STSongti-SC-Black-20840"/>
    <use x="99.999985" xlink:href="#STSongti-SC-Black-22269"/>
    <use x="199.999969" xlink:href="#STSongti-SC-Black-22686"/>
    <use x="299.999954" xlink:href="#STSongti-SC-Black-27515"/>
    <use x="399.999939" xlink:href="#STSongti-SC-Black-20129"/>
    <use x="499.999924" xlink:href="#STSongti-SC-Black-27835"/>
    <use x="599.999908" xlink:href="#STSongti-SC-Black-24840"/>
    <use x="699.999893" xlink:href="#STSongti-SC-Black-29575"/>
    <use x="799.999878" xlink:href="#STSongti-SC-Black-37"/>
    <use x="882.299866" xlink:href="#STSongti-SC-Black-65288"/>
    <use x="982.29985" xlink:href="#STSongti-SC-Black-38500"/>
    <use x="1082.299835" xlink:href="#STSongti-SC-Black-28246"/>
    <use x="1182.29982" xlink:href="#STSongti-SC-Black-21271"/>
    <use x="1282.299805" xlink:href="#STSongti-SC-Black-30465"/>
    <use x="1382.299789" xlink:href="#STSongti-SC-Black-65289"/>
   </g>
  </g>
 </g>
 <defs>
  <clipPath id="pd290ce483b">
   <rect height="148.254545" width="725.4" x="23.58125" y="50.4"/>
  </clipPath>
 </defs>
</svg>
